{"glyphs":{"0":{"ha":725,"x_min":39,"x_max":683,"o":"m 286 -14 q 100 67 161 -14 q 39 290 39 147 q 55 474 39 368 q 113 682 71 581 q 234 851 156 783 q 438 918 313 918 q 622 840 561 918 q 683 618 683 761 q 670 456 683 560 q 617 243 657 351 q 497 60 576 135 q 286 -14 418 -14 m 304 56 q 477 158 431 56 q 549 454 524 261 q 558 544 556 503 q 561 622 561 586 q 533 790 561 735 q 415 846 506 846 q 246 747 292 846 q 174 454 200 647 q 164 361 167 404 q 161 281 161 318 q 190 113 161 171 q 304 56 218 56 z "},"1":{"ha":528,"x_min":7,"x_max":465,"o":"m 182 76 l 283 799 l 76 799 l 76 858 l 349 906 l 407 906 l 290 76 l 465 57 l 458 0 l 7 0 l 14 57 l 182 76 z "},"2":{"ha":653,"x_min":-18,"x_max":599,"o":"m 17 0 l -18 75 l 267 350 q 444 554 408 486 q 481 683 481 622 q 442 781 481 746 q 321 815 404 815 q 211 789 258 815 q 118 722 164 763 l 89 746 q 141 810 103 769 q 239 884 179 851 q 379 917 299 917 q 542 861 486 917 q 599 721 599 806 q 525 521 599 615 q 308 288 451 426 l 119 104 l 122 96 l 138 96 l 475 96 l 522 226 l 583 217 l 542 0 l 17 0 z "},"3":{"ha":611,"x_min":-11,"x_max":560,"o":"m 225 -14 q -11 118 -11 -14 q 13 183 -11 143 q 51 224 36 224 l 86 224 l 96 96 q 150 67 111 78 q 232 56 189 56 q 429 243 429 56 q 232 436 429 436 l 194 436 l 179 471 l 179 510 l 228 510 q 386 563 324 510 q 449 699 449 617 q 304 821 449 821 q 113 732 200 821 l 82 751 q 194 871 121 825 q 340 917 267 917 q 500 864 440 917 q 560 722 560 811 q 510 581 560 646 q 381 489 460 517 l 381 486 q 546 288 546 438 q 456 71 546 156 q 225 -14 367 -14 z "},"4":{"ha":667,"x_min":-25,"x_max":614,"o":"m 335 0 l 368 253 l -1 253 l -25 326 l 492 946 l 564 917 l 488 336 l 614 336 l 604 253 l 478 253 l 444 0 l 335 0 m 88 336 l 378 336 l 433 758 l 436 775 l 433 776 l 419 760 l 83 347 l 88 336 z "},"5":{"ha":639,"x_min":-8,"x_max":614,"o":"m 226 -14 q 55 18 118 -14 q -8 118 -8 50 q 22 195 -8 167 q 54 224 53 224 l 89 224 l 99 96 q 131 76 99 96 q 249 56 164 56 q 385 104 333 56 q 438 271 438 153 q 372 438 438 378 q 108 522 306 499 l 181 900 l 531 900 l 553 953 l 614 953 l 592 794 l 235 794 l 201 583 q 468 497 378 561 q 558 318 558 432 q 517 141 558 215 q 401 26 475 67 q 226 -14 326 -14 z "},"6":{"ha":688,"x_min":50,"x_max":656,"o":"m 331 -14 q 136 56 222 -14 q 50 308 50 126 q 132 598 50 465 q 350 814 214 731 q 650 906 486 897 l 656 857 q 360 726 483 833 q 203 472 238 619 q 252 508 203 472 q 397 544 301 544 q 556 492 490 544 q 622 314 622 440 q 579 142 622 215 q 469 27 536 68 q 331 -14 403 -14 m 333 56 q 457 106 414 56 q 500 268 500 157 q 468 417 500 374 q 344 460 436 460 q 251 445 289 460 q 188 411 213 431 q 179 353 182 389 q 176 281 176 317 q 213 117 176 178 q 333 56 250 56 z "},"7":{"ha":611,"x_min":71,"x_max":635,"o":"m 553 794 l 157 794 l 132 685 l 75 685 l 75 900 l 635 900 l 635 794 l 161 0 l 71 0 l 71 51 l 553 779 l 553 794 z "},"8":{"ha":653,"x_min":31,"x_max":599,"o":"m 265 -15 q 88 47 146 -15 q 31 174 31 108 q 100 341 31 265 q 263 463 169 417 q 153 578 190 521 q 117 703 117 635 q 197 855 117 793 q 375 917 276 917 q 541 868 483 917 q 599 750 599 819 q 540 594 599 657 q 406 488 481 531 q 529 368 490 419 q 568 239 568 317 q 537 129 568 189 q 439 27 506 69 q 265 -15 372 -15 m 297 56 q 464 217 464 56 q 417 326 464 281 q 301 433 371 371 q 176 315 207 379 q 146 192 146 250 q 177 97 146 138 q 297 56 208 56 m 368 517 q 459 603 421 547 q 497 728 497 658 q 469 814 497 781 q 365 847 442 847 q 259 821 297 847 q 221 731 221 794 q 256 632 221 678 q 368 517 290 586 z "},"9":{"ha":688,"x_min":50,"x_max":638,"o":"m 163 -12 q 101 -10 132 -12 q 50 -3 69 -7 l 57 44 q 117 40 89 40 q 365 134 269 40 q 492 407 461 228 l 489 410 q 478 396 483 400 q 397 347 444 365 q 303 329 349 329 q 135 397 199 329 q 72 579 72 465 q 160 816 72 715 q 367 917 247 917 q 566 829 494 917 q 638 586 638 742 q 576 278 638 414 q 407 65 514 143 q 163 -12 300 -12 m 353 406 q 430 424 389 406 q 500 469 471 442 q 508 538 506 499 q 510 633 510 578 q 474 797 510 747 q 354 846 438 846 q 236 781 278 846 q 194 596 194 715 q 236 456 194 506 q 353 406 278 406 z "},"A":{"ha":708,"x_min":-71,"x_max":690,"o":"m -64 51 l 13 72 l 394 907 l 453 907 l 610 68 l 690 51 l 686 0 l 393 0 l 397 51 l 494 72 l 494 104 l 467 258 l 174 258 l 100 96 l 100 72 l 194 51 l 189 0 l -71 0 l -64 51 m 451 338 l 389 686 l 382 724 l 381 719 l 364 682 l 210 338 l 451 338 z "},"Á":{"ha":708,"x_min":-71,"x_max":690,"o":"m -64 51 l 13 72 l 394 907 l 453 907 l 610 68 l 690 51 l 686 0 l 393 0 l 397 51 l 494 72 l 494 104 l 467 258 l 174 258 l 100 96 l 100 72 l 194 51 l 189 0 l -71 0 l -64 51 m 451 338 l 389 686 l 382 724 l 381 719 l 364 682 l 210 338 l 451 338 z "},"Ă":{"ha":708,"x_min":-71,"x_max":690,"o":"m 636 1125 q 607 1085 636 1125 q 522 1005 578 1044 q 388 965 467 965 q 265 1010 306 965 q 224 1090 224 1054 q 245 1122 224 1107 q 289 1147 267 1138 q 300 1124 289 1147 q 336 1076 311 1100 q 406 1053 361 1053 q 510 1078 464 1053 q 581 1127 556 1103 q 607 1151 607 1151 l 636 1125 m -64 51 l 13 72 l 394 907 l 453 907 l 610 68 l 690 51 l 686 0 l 393 0 l 397 51 l 494 72 l 494 104 l 467 258 l 174 258 l 100 96 l 100 72 l 194 51 l 189 0 l -71 0 l -64 51 m 451 338 l 389 686 l 382 724 l 381 719 l 364 682 l 210 338 l 451 338 z "},"Ắ":{"ha":708,"x_min":-71,"x_max":690,"o":"m -64 51 l 13 72 l 394 907 l 453 907 l 610 68 l 690 51 l 686 0 l 393 0 l 397 51 l 494 72 l 494 104 l 467 258 l 174 258 l 100 96 l 100 72 l 194 51 l 189 0 l -71 0 l -64 51 m 451 338 l 389 686 l 382 724 l 381 719 l 364 682 l 210 338 l 451 338 z "},"Ặ":{"ha":708,"x_min":-71,"x_max":690,"o":"m -64 51 l 13 72 l 394 907 l 453 907 l 610 68 l 690 51 l 686 0 l 393 0 l 397 51 l 494 72 l 494 104 l 467 258 l 174 258 l 100 96 l 100 72 l 194 51 l 189 0 l -71 0 l -64 51 m 451 338 l 389 686 l 382 724 l 381 719 l 364 682 l 210 338 l 451 338 m 278 -231 q 226 -210 246 -231 q 207 -158 207 -189 q 227 -97 207 -126 q 290 -67 247 -67 q 342 -87 322 -67 q 363 -142 363 -107 q 342 -202 363 -174 q 278 -231 321 -231 z "},"Ằ":{"ha":708,"x_min":-71,"x_max":690,"o":"m -64 51 l 13 72 l 394 907 l 453 907 l 610 68 l 690 51 l 686 0 l 393 0 l 397 51 l 494 72 l 494 104 l 467 258 l 174 258 l 100 96 l 100 72 l 194 51 l 189 0 l -71 0 l -64 51 m 451 338 l 389 686 l 382 724 l 381 719 l 364 682 l 210 338 l 451 338 z "},"Ẳ":{"ha":708,"x_min":-71,"x_max":690,"o":"m -64 51 l 13 72 l 394 907 l 453 907 l 610 68 l 690 51 l 686 0 l 393 0 l 397 51 l 494 72 l 494 104 l 467 258 l 174 258 l 100 96 l 100 72 l 194 51 l 189 0 l -71 0 l -64 51 m 451 338 l 389 686 l 382 724 l 381 719 l 364 682 l 210 338 l 451 338 z "},"Ẵ":{"ha":708,"x_min":-71,"x_max":701,"o":"m -64 51 l 13 72 l 394 907 l 453 907 l 610 68 l 690 51 l 686 0 l 393 0 l 397 51 l 494 72 l 494 104 l 467 258 l 174 258 l 100 96 l 100 72 l 194 51 l 189 0 l -71 0 l -64 51 m 451 338 l 389 686 l 382 724 l 381 719 l 364 682 l 210 338 l 451 338 z "},"Ǎ":{"ha":708,"x_min":-71,"x_max":690,"o":"m -64 51 l 13 72 l 394 907 l 453 907 l 610 68 l 690 51 l 686 0 l 393 0 l 397 51 l 494 72 l 494 104 l 467 258 l 174 258 l 100 96 l 100 72 l 194 51 l 189 0 l -71 0 l -64 51 m 451 338 l 389 686 l 382 724 l 381 719 l 364 682 l 210 338 l 451 338 z "},"Â":{"ha":708,"x_min":-71,"x_max":690,"o":"m 235 1011 l 333 1085 q 410 1143 392 1128 q 439 1158 429 1158 q 484 1128 450 1157 q 529 1090 518 1100 l 613 1014 l 567 957 l 419 1050 l 269 965 l 235 1011 m -64 51 l 13 72 l 394 907 l 453 907 l 610 68 l 690 51 l 686 0 l 393 0 l 397 51 l 494 72 l 494 104 l 467 258 l 174 258 l 100 96 l 100 72 l 194 51 l 189 0 l -71 0 l -64 51 m 451 338 l 389 686 l 382 724 l 381 719 l 364 682 l 210 338 l 451 338 z "},"Ấ":{"ha":708,"x_min":-71,"x_max":792,"o":"m -64 51 l 13 72 l 394 907 l 453 907 l 610 68 l 690 51 l 686 0 l 393 0 l 397 51 l 494 72 l 494 104 l 467 258 l 174 258 l 100 96 l 100 72 l 194 51 l 189 0 l -71 0 l -64 51 m 451 338 l 389 686 l 382 724 l 381 719 l 364 682 l 210 338 l 451 338 z "},"Ậ":{"ha":708,"x_min":-71,"x_max":690,"o":"m -64 51 l 13 72 l 394 907 l 453 907 l 610 68 l 690 51 l 686 0 l 393 0 l 397 51 l 494 72 l 494 104 l 467 258 l 174 258 l 100 96 l 100 72 l 194 51 l 189 0 l -71 0 l -64 51 m 451 338 l 389 686 l 382 724 l 381 719 l 364 682 l 210 338 l 451 338 m 278 -231 q 226 -210 246 -231 q 207 -158 207 -189 q 227 -97 207 -126 q 290 -67 247 -67 q 342 -87 322 -67 q 363 -142 363 -107 q 342 -202 363 -174 q 278 -231 321 -231 z "},"Ầ":{"ha":708,"x_min":-71,"x_max":690,"o":"m -64 51 l 13 72 l 394 907 l 453 907 l 610 68 l 690 51 l 686 0 l 393 0 l 397 51 l 494 72 l 494 104 l 467 258 l 174 258 l 100 96 l 100 72 l 194 51 l 189 0 l -71 0 l -64 51 m 451 338 l 389 686 l 382 724 l 381 719 l 364 682 l 210 338 l 451 338 z "},"Ẩ":{"ha":708,"x_min":-71,"x_max":761,"o":"m -64 51 l 13 72 l 394 907 l 453 907 l 610 68 l 690 51 l 686 0 l 393 0 l 397 51 l 494 72 l 494 104 l 467 258 l 174 258 l 100 96 l 100 72 l 194 51 l 189 0 l -71 0 l -64 51 m 451 338 l 389 686 l 382 724 l 381 719 l 364 682 l 210 338 l 451 338 z "},"Ẫ":{"ha":708,"x_min":-71,"x_max":701,"o":"m -64 51 l 13 72 l 394 907 l 453 907 l 610 68 l 690 51 l 686 0 l 393 0 l 397 51 l 494 72 l 494 104 l 467 258 l 174 258 l 100 96 l 100 72 l 194 51 l 189 0 l -71 0 l -64 51 m 451 338 l 389 686 l 382 724 l 381 719 l 364 682 l 210 338 l 451 338 z "},"Ȁ":{"ha":708,"x_min":-71,"x_max":690,"o":"m -64 51 l 13 72 l 394 907 l 453 907 l 610 68 l 690 51 l 686 0 l 393 0 l 397 51 l 494 72 l 494 104 l 467 258 l 174 258 l 100 96 l 100 72 l 194 51 l 189 0 l -71 0 l -64 51 m 451 338 l 389 686 l 382 724 l 381 719 l 364 682 l 210 338 l 451 338 m 536 940 l 465 1013 q 436 1051 451 1028 q 421 1093 421 1074 q 448 1137 421 1118 q 507 1161 475 1156 l 585 974 l 536 940 m 324 940 l 253 1013 q 224 1051 239 1028 q 208 1093 208 1074 q 235 1137 208 1118 q 294 1161 263 1156 l 372 974 l 324 940 z "},"Ä":{"ha":708,"x_min":-71,"x_max":690,"o":"m 278 976 q 226 998 246 976 q 207 1054 207 1019 q 228 1113 207 1088 q 283 1138 249 1138 q 335 1117 315 1138 q 354 1063 354 1097 q 334 1002 354 1028 q 278 976 314 976 m 571 976 q 519 998 539 976 q 500 1054 500 1019 q 521 1113 500 1088 q 576 1138 542 1138 q 628 1117 608 1138 q 647 1063 647 1097 q 627 1002 647 1028 q 571 976 607 976 m -64 51 l 13 72 l 394 907 l 453 907 l 610 68 l 690 51 l 686 0 l 393 0 l 397 51 l 494 72 l 494 104 l 467 258 l 174 258 l 100 96 l 100 72 l 194 51 l 189 0 l -71 0 l -64 51 m 451 338 l 389 686 l 382 724 l 381 719 l 364 682 l 210 338 l 451 338 z "},"Ạ":{"ha":708,"x_min":-71,"x_max":690,"o":"m -64 51 l 13 72 l 394 907 l 453 907 l 610 68 l 690 51 l 686 0 l 393 0 l 397 51 l 494 72 l 494 104 l 467 258 l 174 258 l 100 96 l 100 72 l 194 51 l 189 0 l -71 0 l -64 51 m 451 338 l 389 686 l 382 724 l 381 719 l 364 682 l 210 338 l 451 338 m 278 -231 q 226 -210 246 -231 q 207 -158 207 -189 q 227 -97 207 -126 q 290 -67 247 -67 q 342 -87 322 -67 q 363 -142 363 -107 q 342 -202 363 -174 q 278 -231 321 -231 z "},"À":{"ha":708,"x_min":-71,"x_max":690,"o":"m 336 1021 q 285 1050 303 1035 q 267 1092 267 1065 q 279 1131 267 1111 q 314 1161 292 1150 l 547 994 l 517 946 l 336 1021 m -64 51 l 13 72 l 394 907 l 453 907 l 610 68 l 690 51 l 686 0 l 393 0 l 397 51 l 494 72 l 494 104 l 467 258 l 174 258 l 100 96 l 100 72 l 194 51 l 189 0 l -71 0 l -64 51 m 451 338 l 389 686 l 382 724 l 381 719 l 364 682 l 210 338 l 451 338 z "},"Ả":{"ha":708,"x_min":-71,"x_max":690,"o":"m -64 51 l 13 72 l 394 907 l 453 907 l 610 68 l 690 51 l 686 0 l 393 0 l 397 51 l 494 72 l 494 104 l 467 258 l 174 258 l 100 96 l 100 72 l 194 51 l 189 0 l -71 0 l -64 51 m 451 338 l 389 686 l 382 724 l 381 719 l 364 682 l 210 338 l 451 338 m 404 940 q 400 961 400 950 q 414 991 400 978 q 460 1015 428 1004 q 515 1065 515 1036 q 451 1090 515 1090 q 363 1079 410 1090 q 356 1101 357 1090 q 354 1118 354 1111 q 372 1149 354 1133 q 444 1165 389 1165 q 567 1144 522 1165 q 613 1079 613 1122 q 587 1017 613 1043 q 517 976 561 990 q 483 959 489 968 q 475 940 476 950 l 404 940 z "},"Ȃ":{"ha":708,"x_min":-71,"x_max":690,"o":"m -64 51 l 13 72 l 394 907 l 453 907 l 610 68 l 690 51 l 686 0 l 393 0 l 397 51 l 494 72 l 494 104 l 467 258 l 174 258 l 100 96 l 100 72 l 194 51 l 189 0 l -71 0 l -64 51 m 451 338 l 389 686 l 382 724 l 381 719 l 364 682 l 210 338 l 451 338 m 249 992 q 278 1032 249 992 q 363 1112 307 1072 q 497 1151 418 1151 q 620 1107 579 1151 q 661 1026 661 1063 q 640 994 661 1010 q 596 969 618 979 q 585 993 596 969 q 549 1040 574 1017 q 479 1064 524 1064 q 375 1039 421 1064 q 303 990 329 1014 q 278 965 278 965 l 249 992 z "},"Ā":{"ha":708,"x_min":-71,"x_max":690,"o":"m 229 1086 l 621 1086 l 610 999 l 218 999 l 229 1086 m -64 51 l 13 72 l 394 907 l 453 907 l 610 68 l 690 51 l 686 0 l 393 0 l 397 51 l 494 72 l 494 104 l 467 258 l 174 258 l 100 96 l 100 72 l 194 51 l 189 0 l -71 0 l -64 51 m 451 338 l 389 686 l 382 724 l 381 719 l 364 682 l 210 338 l 451 338 z "},"Ą":{"ha":708,"x_min":-71,"x_max":690,"o":"m 564 7 q 511 -40 540 -8 q 482 -119 482 -72 q 539 -175 482 -175 q 592 -161 567 -175 q 618 -147 618 -147 l 640 -181 q 599 -213 640 -181 q 494 -246 558 -246 q 421 -228 451 -246 q 390 -158 390 -210 q 423 -65 390 -108 q 508 8 456 -21 l 564 7 m -64 51 l 13 72 l 394 907 l 453 907 l 610 68 l 690 51 l 686 0 l 393 0 l 397 51 l 494 72 l 494 104 l 467 258 l 174 258 l 100 96 l 100 72 l 194 51 l 189 0 l -71 0 l -64 51 m 451 338 l 389 686 l 382 724 l 381 719 l 364 682 l 210 338 l 451 338 z "},"Å":{"ha":708,"x_min":-71,"x_max":690,"o":"m 424 919 q 339 944 368 919 q 310 1013 310 969 q 345 1111 310 1068 q 444 1154 381 1154 q 529 1130 500 1154 q 558 1063 558 1106 q 524 963 558 1007 q 424 919 489 919 m 436 981 q 475 999 464 981 q 486 1051 486 1018 q 432 1093 486 1093 q 392 1076 403 1093 q 381 1025 381 1058 q 436 981 381 981 m -64 51 l 13 72 l 394 907 l 453 907 l 610 68 l 690 51 l 686 0 l 393 0 l 397 51 l 494 72 l 494 104 l 467 258 l 174 258 l 100 96 l 100 72 l 194 51 l 189 0 l -71 0 l -64 51 m 451 338 l 389 686 l 382 724 l 381 719 l 364 682 l 210 338 l 451 338 z "},"Ǻ":{"ha":708,"x_min":-71,"x_max":690,"o":"m -64 51 l 13 72 l 394 907 l 453 907 l 610 68 l 690 51 l 686 0 l 393 0 l 397 51 l 494 72 l 494 104 l 467 258 l 174 258 l 100 96 l 100 72 l 194 51 l 189 0 l -71 0 l -64 51 m 451 338 l 389 686 l 382 724 l 381 719 l 364 682 l 210 338 l 451 338 z "},"Ã":{"ha":708,"x_min":-71,"x_max":690,"o":"m 179 1022 l 231 1089 q 307 1136 268 1136 q 356 1127 326 1136 q 413 1108 386 1118 l 504 1076 l 615 1128 l 647 1092 l 596 1025 q 519 978 558 978 q 469 987 499 978 q 414 1006 439 996 l 322 1038 l 211 986 l 179 1022 m -64 51 l 13 72 l 394 907 l 453 907 l 610 68 l 690 51 l 686 0 l 393 0 l 397 51 l 494 72 l 494 104 l 467 258 l 174 258 l 100 96 l 100 72 l 194 51 l 189 0 l -71 0 l -64 51 m 451 338 l 389 686 l 382 724 l 381 719 l 364 682 l 210 338 l 451 338 z "},"Æ":{"ha":960,"x_min":-140,"x_max":988,"o":"m -133 51 l -57 72 l 497 900 l 988 900 l 958 683 l 890 683 l 890 836 l 750 836 l 639 829 l 585 450 l 767 450 l 796 532 l 846 532 l 817 307 l 767 307 l 760 389 l 576 389 l 531 71 q 585 65 550 68 q 660 63 621 63 l 801 63 l 854 211 l 913 211 l 886 0 l 318 0 l 324 51 l 422 71 l 467 389 l 240 389 l 42 96 l 42 72 l 136 51 l 131 0 l -140 0 l -133 51 m 475 450 l 531 828 l 525 828 l 278 450 l 475 450 z "},"Ǽ":{"ha":960,"x_min":-140,"x_max":988,"o":"m -133 51 l -57 72 l 497 900 l 988 900 l 958 683 l 890 683 l 890 836 l 750 836 l 639 829 l 585 450 l 767 450 l 796 532 l 846 532 l 817 307 l 767 307 l 760 389 l 576 389 l 531 71 q 585 65 550 68 q 660 63 621 63 l 801 63 l 854 211 l 913 211 l 886 0 l 318 0 l 324 51 l 422 71 l 467 389 l 240 389 l 42 96 l 42 72 l 136 51 l 131 0 l -140 0 l -133 51 m 475 450 l 531 828 l 525 828 l 278 450 l 475 450 z "},"B":{"ha":754,"x_min":22,"x_max":671,"o":"m 28 51 l 126 71 l 233 829 l 139 849 l 144 900 l 401 900 q 603 851 536 900 q 671 717 671 803 q 624 576 671 644 q 468 468 576 508 q 594 408 542 450 q 646 286 646 367 q 565 92 646 183 q 301 0 485 0 l 22 0 l 28 51 m 236 71 q 254 67 236 71 q 321 63 272 63 q 470 115 419 63 q 521 264 521 167 q 469 388 521 344 q 286 433 417 431 l 236 71 m 294 488 q 488 550 419 497 q 557 697 557 603 q 516 806 557 778 q 401 835 475 835 q 358 831 375 835 q 342 828 342 828 l 294 488 z "},"C":{"ha":739,"x_min":61,"x_max":729,"o":"m 600 232 l 658 232 l 639 43 q 536 5 603 25 q 378 -15 469 -15 q 131 82 200 -15 q 61 339 61 179 q 120 636 61 506 q 281 842 179 767 q 510 917 383 917 q 642 907 586 917 q 729 889 697 897 l 699 685 l 640 685 l 631 818 q 572 837 611 828 q 492 846 533 846 q 267 720 346 846 q 188 371 188 594 q 236 133 188 210 q 403 56 285 56 q 517 76 478 56 q 557 97 557 97 l 600 232 z "},"Ć":{"ha":739,"x_min":61,"x_max":729,"o":"m 600 232 l 658 232 l 639 43 q 378 -15 519 -15 q 139 72 217 -15 q 61 339 61 160 q 119 635 61 504 q 279 841 178 765 q 510 917 381 917 q 729 889 626 917 l 699 685 l 640 685 l 631 818 q 492 846 575 846 q 267 722 347 846 q 188 371 188 597 q 238 130 188 204 q 403 56 289 56 q 557 97 504 56 l 600 232 m 417 946 l 386 994 l 619 1161 q 667 1092 667 1138 q 597 1021 667 1050 l 417 946 z "},"Č":{"ha":739,"x_min":61,"x_max":729,"o":"m 600 232 l 658 232 l 639 43 q 536 5 603 25 q 378 -15 469 -15 q 131 82 200 -15 q 61 339 61 179 q 120 636 61 506 q 281 842 179 767 q 510 917 383 917 q 642 907 586 917 q 729 889 697 897 l 699 685 l 640 685 l 631 818 q 572 837 611 828 q 492 846 533 846 q 267 720 346 846 q 188 371 188 594 q 236 133 188 210 q 403 56 285 56 q 517 76 478 56 q 557 97 557 97 l 600 232 m 344 1107 l 393 1160 l 529 1064 l 671 1164 l 706 1118 l 615 1033 q 541 970 563 983 q 510 957 519 957 q 467 985 499 957 q 425 1025 436 1014 l 344 1107 z "},"Ç":{"ha":739,"x_min":61,"x_max":729,"o":"m 254 -179 q 286 -195 269 -189 q 338 -201 303 -201 q 399 -169 399 -201 q 367 -133 399 -151 l 294 -96 l 294 -68 l 335 -14 q 122 94 182 -1 q 61 339 61 189 q 120 636 61 506 q 281 842 179 767 q 510 917 383 917 q 642 907 586 917 q 729 889 697 897 l 699 685 l 640 685 l 631 818 q 572 837 611 828 q 492 846 533 846 q 267 720 346 846 q 188 371 188 594 q 236 133 188 210 q 403 56 285 56 q 517 76 478 56 q 557 97 557 97 l 600 232 l 658 232 l 639 43 q 544 7 604 26 q 401 -15 483 -12 l 401 -40 l 449 -69 q 480 -97 467 -81 q 493 -136 493 -114 q 442 -237 493 -214 q 343 -260 392 -260 q 274 -247 303 -260 q 226 -219 244 -233 l 254 -179 z "},"Ĉ":{"ha":739,"x_min":61,"x_max":729,"o":"m 600 232 l 658 232 l 639 43 q 536 5 603 25 q 378 -15 469 -15 q 131 82 200 -15 q 61 339 61 179 q 120 636 61 506 q 281 842 179 767 q 510 917 383 917 q 642 907 586 917 q 729 889 697 897 l 699 685 l 640 685 l 631 818 q 572 837 611 828 q 492 846 533 846 q 267 720 346 846 q 188 371 188 594 q 236 133 188 210 q 403 56 285 56 q 517 76 478 56 q 557 97 557 97 l 600 232 z "},"Ċ":{"ha":739,"x_min":61,"x_max":729,"o":"m 600 232 l 658 232 l 639 43 q 536 5 603 25 q 378 -15 469 -15 q 131 82 200 -15 q 61 339 61 179 q 120 636 61 506 q 281 842 179 767 q 510 917 383 917 q 642 907 586 917 q 729 889 697 897 l 699 685 l 640 685 l 631 818 q 572 837 611 828 q 492 846 533 846 q 267 720 346 846 q 188 371 188 594 q 236 133 188 210 q 403 56 285 56 q 517 76 478 56 q 557 97 557 97 l 600 232 z "},"D":{"ha":882,"x_min":21,"x_max":824,"o":"m 26 51 l 125 71 l 232 829 l 138 849 l 143 900 l 464 900 q 730 813 636 900 q 824 564 824 725 q 684 158 824 315 q 322 0 544 0 l 21 0 l 26 51 m 235 71 q 286 65 256 68 q 340 63 317 63 q 603 185 507 63 q 701 524 699 307 q 635 760 701 686 q 425 835 569 835 q 372 833 394 835 q 342 829 349 831 l 235 71 z "},"Ǳ":{"ha":1563,"x_min":21,"x_max":1574,"o":"m 26 51 l 125 71 l 232 829 l 138 849 l 143 900 l 464 900 q 730 813 636 900 q 824 564 824 725 q 684 158 824 315 q 322 0 544 0 l 21 0 l 26 51 m 235 71 q 286 65 256 68 q 340 63 317 63 q 603 185 507 63 q 701 524 699 307 q 635 760 701 686 q 425 835 569 835 q 372 833 394 835 q 342 829 349 831 l 235 71 m 869 61 l 1419 803 l 1403 833 l 1086 833 l 1029 689 l 968 689 l 999 900 l 1538 900 l 1574 839 l 1014 79 l 1021 63 l 1379 63 l 1436 207 l 1497 207 l 1469 0 l 893 0 l 869 61 z "},"Ǆ":{"ha":1563,"x_min":21,"x_max":1574,"o":"m 26 51 l 125 71 l 232 829 l 138 849 l 143 900 l 464 900 q 730 813 636 900 q 824 564 824 725 q 684 158 824 315 q 322 0 544 0 l 21 0 l 26 51 m 235 71 q 286 65 256 68 q 340 63 317 63 q 603 185 507 63 q 701 524 699 307 q 635 760 701 686 q 425 835 569 835 q 372 833 394 835 q 342 829 349 831 l 235 71 m 869 61 l 1419 803 l 1403 833 l 1086 833 l 1029 689 l 968 689 l 999 900 l 1538 900 l 1574 839 l 1014 79 l 1021 63 l 1379 63 l 1436 207 l 1497 207 l 1469 0 l 893 0 l 869 61 z "},"Ð":{"ha":886,"x_min":21,"x_max":824,"o":"m 26 51 l 125 71 l 175 432 l 56 432 l 67 504 l 186 504 l 232 829 l 138 849 l 143 900 l 464 900 q 730 813 636 900 q 824 564 824 725 q 684 158 824 315 q 322 0 544 0 l 21 0 l 26 51 m 235 71 q 286 65 256 68 q 340 63 317 63 q 603 185 507 63 q 701 524 699 307 q 635 760 701 686 q 425 835 569 835 q 372 833 394 835 q 342 829 349 831 l 296 504 l 497 504 l 486 432 l 285 432 l 235 71 z "},"Ď":{"ha":872,"x_min":14,"x_max":817,"o":"m 19 51 l 118 71 l 225 829 l 131 849 l 136 900 l 457 900 q 723 813 629 900 q 817 564 817 725 q 677 158 817 315 q 315 0 538 0 l 14 0 l 19 51 m 228 71 q 280 65 249 68 q 333 63 311 63 q 596 185 500 63 q 694 524 692 307 q 628 760 694 686 q 418 835 563 835 q 365 833 388 835 q 335 829 342 831 l 228 71 m 358 1160 l 494 1064 l 636 1164 l 671 1118 l 581 1033 q 514 976 540 994 q 475 957 488 957 q 444 976 468 957 q 390 1025 419 996 l 310 1107 l 358 1160 z "},"Đ":{"ha":872,"x_min":14,"x_max":817,"o":"m 19 51 l 118 71 l 168 432 l 49 432 l 60 504 l 179 504 l 225 829 l 131 849 l 136 900 l 457 900 q 723 813 629 900 q 817 564 817 725 q 677 158 817 315 q 315 0 538 0 l 14 0 l 19 51 m 228 71 q 280 65 249 68 q 333 63 311 63 q 596 185 500 63 q 694 524 692 307 q 628 760 694 686 q 418 835 563 835 q 365 833 388 835 q 335 829 342 831 l 289 504 l 490 504 l 479 432 l 278 432 l 228 71 z "},"Ḍ":{"ha":882,"x_min":21,"x_max":824,"o":"m 26 51 l 125 71 l 232 829 l 138 849 l 143 900 l 464 900 q 730 813 636 900 q 824 564 824 725 q 684 158 824 315 q 322 0 544 0 l 21 0 l 26 51 m 235 71 q 286 65 256 68 q 340 63 317 63 q 603 185 507 63 q 701 524 699 307 q 635 760 701 686 q 425 835 569 835 q 372 833 394 835 q 342 829 349 831 l 235 71 m 365 -231 q 314 -210 333 -231 q 294 -158 294 -189 q 315 -97 294 -126 q 378 -67 335 -67 q 430 -87 410 -67 q 450 -142 450 -107 q 429 -202 450 -174 q 365 -231 408 -231 z "},"ǲ":{"ha":1431,"x_min":21,"x_max":1463,"o":"m 26 51 l 125 71 l 232 829 l 138 849 l 143 900 l 464 900 q 730 813 636 900 q 824 564 824 725 q 684 158 824 315 q 322 0 544 0 l 21 0 l 26 51 m 235 71 q 286 65 256 68 q 340 63 317 63 q 603 185 507 63 q 701 524 699 307 q 635 760 701 686 q 425 835 569 835 q 372 833 394 835 q 342 829 349 831 l 235 71 m 1268 553 l 1268 565 l 1058 642 l 1021 510 l 975 510 q 960 539 975 510 q 944 617 944 568 q 976 691 944 669 q 1054 713 1008 713 q 1124 706 1090 713 q 1201 689 1158 700 l 1349 654 l 1426 710 l 1463 682 l 1047 140 l 1047 125 l 1274 58 l 1311 190 l 1357 190 q 1372 161 1357 190 q 1388 83 1388 132 q 1352 9 1388 31 q 1271 -12 1317 -12 q 1203 -6 1235 -12 q 1129 8 1172 0 l 965 39 l 896 -10 l 857 25 l 1268 553 z "},"ǅ":{"ha":1431,"x_min":21,"x_max":1463,"o":"m 26 51 l 125 71 l 232 829 l 138 849 l 143 900 l 464 900 q 730 813 636 900 q 824 564 824 725 q 684 158 824 315 q 322 0 544 0 l 21 0 l 26 51 m 235 71 q 286 65 256 68 q 340 63 317 63 q 603 185 507 63 q 701 524 699 307 q 635 760 701 686 q 425 835 569 835 q 372 833 394 835 q 342 829 349 831 l 235 71 m 1268 553 l 1268 565 l 1058 642 l 1021 510 l 975 510 q 960 539 975 510 q 944 617 944 568 q 976 691 944 669 q 1054 713 1008 713 q 1124 706 1090 713 q 1201 689 1158 700 l 1349 654 l 1426 710 l 1463 682 l 1047 140 l 1047 125 l 1274 58 l 1311 190 l 1357 190 q 1372 161 1357 190 q 1388 83 1388 132 q 1352 9 1388 31 q 1271 -12 1317 -12 q 1203 -6 1235 -12 q 1129 8 1172 0 l 965 39 l 896 -10 l 857 25 l 1268 553 z "},"E":{"ha":713,"x_min":22,"x_max":692,"o":"m 28 51 l 126 71 l 233 829 l 139 849 l 144 900 l 692 900 l 663 683 l 594 683 l 594 836 l 454 836 l 343 829 l 296 497 l 478 497 l 507 579 l 557 579 l 528 354 l 478 354 l 471 436 l 288 436 l 236 71 q 291 65 256 67 q 364 63 326 63 l 506 63 l 558 211 l 617 211 l 590 0 l 22 0 l 28 51 z "},"É":{"ha":704,"x_min":22,"x_max":692,"o":"m 346 946 l 315 994 l 549 1161 q 583 1131 571 1150 q 596 1092 596 1111 q 578 1050 596 1065 q 526 1021 560 1035 l 346 946 m 28 51 l 126 71 l 233 829 l 139 849 l 144 900 l 692 900 l 663 683 l 594 683 l 594 836 l 454 836 l 343 829 l 296 497 l 478 497 l 507 579 l 557 579 l 528 354 l 478 354 l 471 436 l 288 436 l 236 71 q 291 65 256 67 q 364 63 326 63 l 506 63 l 558 211 l 617 211 l 590 0 l 22 0 l 28 51 z "},"Ĕ":{"ha":713,"x_min":22,"x_max":692,"o":"m 28 51 l 126 71 l 233 829 l 139 849 l 144 900 l 692 900 l 663 683 l 594 683 l 594 836 l 454 836 l 343 829 l 296 497 l 478 497 l 507 579 l 557 579 l 528 354 l 478 354 l 471 436 l 288 436 l 236 71 q 291 65 256 67 q 364 63 326 63 l 506 63 l 558 211 l 617 211 l 590 0 l 22 0 l 28 51 z "},"Ě":{"ha":704,"x_min":22,"x_max":692,"o":"m 282 1110 l 331 1163 l 467 1067 l 608 1167 l 643 1121 l 553 1036 q 478 973 500 986 q 447 960 457 960 q 404 988 436 960 q 363 1028 372 1017 l 282 1110 m 28 51 l 126 71 l 233 829 l 139 849 l 144 900 l 692 900 l 663 683 l 594 683 l 594 836 l 454 836 l 343 829 l 296 497 l 478 497 l 507 579 l 557 579 l 528 354 l 478 354 l 471 436 l 288 436 l 236 71 q 291 65 256 67 q 364 63 326 63 l 506 63 l 558 211 l 617 211 l 590 0 l 22 0 l 28 51 z "},"Ê":{"ha":704,"x_min":22,"x_max":692,"o":"m 267 1011 l 365 1085 q 442 1143 424 1128 q 471 1158 461 1158 q 515 1128 481 1157 q 561 1090 550 1100 l 644 1014 l 599 957 l 451 1050 l 301 965 l 267 1011 m 28 51 l 126 71 l 233 829 l 139 849 l 144 900 l 692 900 l 663 683 l 594 683 l 594 836 l 454 836 l 343 829 l 296 497 l 478 497 l 507 579 l 557 579 l 528 354 l 478 354 l 471 436 l 288 436 l 236 71 q 291 65 256 67 q 364 63 326 63 l 506 63 l 558 211 l 617 211 l 590 0 l 22 0 l 28 51 z "},"Ế":{"ha":713,"x_min":22,"x_max":794,"o":"m 28 51 l 126 71 l 233 829 l 139 849 l 144 900 l 692 900 l 663 683 l 594 683 l 594 836 l 454 836 l 343 829 l 296 497 l 478 497 l 507 579 l 557 579 l 528 354 l 478 354 l 471 436 l 288 436 l 236 71 q 291 65 256 67 q 364 63 326 63 l 506 63 l 558 211 l 617 211 l 590 0 l 22 0 l 28 51 z "},"Ệ":{"ha":713,"x_min":22,"x_max":692,"o":"m 28 51 l 126 71 l 233 829 l 139 849 l 144 900 l 692 900 l 663 683 l 594 683 l 594 836 l 454 836 l 343 829 l 296 497 l 478 497 l 507 579 l 557 579 l 528 354 l 478 354 l 471 436 l 288 436 l 236 71 q 291 65 256 67 q 364 63 326 63 l 506 63 l 558 211 l 617 211 l 590 0 l 22 0 l 28 51 m 281 -231 q 229 -210 249 -231 q 210 -158 210 -189 q 230 -97 210 -126 q 293 -67 250 -67 q 345 -87 325 -67 q 365 -142 365 -107 q 344 -202 365 -174 q 281 -231 324 -231 z "},"Ề":{"ha":713,"x_min":22,"x_max":692,"o":"m 28 51 l 126 71 l 233 829 l 139 849 l 144 900 l 692 900 l 663 683 l 594 683 l 594 836 l 454 836 l 343 829 l 296 497 l 478 497 l 507 579 l 557 579 l 528 354 l 478 354 l 471 436 l 288 436 l 236 71 q 291 65 256 67 q 364 63 326 63 l 506 63 l 558 211 l 617 211 l 590 0 l 22 0 l 28 51 z "},"Ể":{"ha":713,"x_min":22,"x_max":764,"o":"m 28 51 l 126 71 l 233 829 l 139 849 l 144 900 l 692 900 l 663 683 l 594 683 l 594 836 l 454 836 l 343 829 l 296 497 l 478 497 l 507 579 l 557 579 l 528 354 l 478 354 l 471 436 l 288 436 l 236 71 q 291 65 256 67 q 364 63 326 63 l 506 63 l 558 211 l 617 211 l 590 0 l 22 0 l 28 51 z "},"Ễ":{"ha":713,"x_min":22,"x_max":704,"o":"m 28 51 l 126 71 l 233 829 l 139 849 l 144 900 l 692 900 l 663 683 l 594 683 l 594 836 l 454 836 l 343 829 l 296 497 l 478 497 l 507 579 l 557 579 l 528 354 l 478 354 l 471 436 l 288 436 l 236 71 q 291 65 256 67 q 364 63 326 63 l 506 63 l 558 211 l 617 211 l 590 0 l 22 0 l 28 51 z "},"Ȅ":{"ha":713,"x_min":22,"x_max":692,"o":"m 28 51 l 126 71 l 233 829 l 139 849 l 144 900 l 692 900 l 663 683 l 594 683 l 594 836 l 454 836 l 343 829 l 296 497 l 478 497 l 507 579 l 557 579 l 528 354 l 478 354 l 471 436 l 288 436 l 236 71 q 291 65 256 67 q 364 63 326 63 l 506 63 l 558 211 l 617 211 l 590 0 l 22 0 l 28 51 m 539 940 l 468 1013 q 439 1051 454 1028 q 424 1093 424 1074 q 451 1137 424 1118 q 510 1161 478 1156 l 588 974 l 539 940 m 326 940 l 256 1013 q 226 1051 242 1028 q 211 1093 211 1074 q 238 1137 211 1118 q 297 1161 265 1156 l 375 974 l 326 940 z "},"Ë":{"ha":704,"x_min":22,"x_max":692,"o":"m 306 963 q 254 984 274 963 q 235 1040 235 1006 q 256 1099 235 1074 q 311 1124 276 1124 q 363 1103 343 1124 q 382 1049 382 1083 q 362 988 382 1014 q 306 963 342 963 m 599 963 q 547 984 567 963 q 528 1040 528 1006 q 549 1099 528 1074 q 604 1124 569 1124 q 656 1103 636 1124 q 675 1049 675 1083 q 655 988 675 1014 q 599 963 635 963 m 28 51 l 126 71 l 233 829 l 139 849 l 144 900 l 692 900 l 663 683 l 594 683 l 594 836 l 454 836 l 343 829 l 296 497 l 478 497 l 507 579 l 557 579 l 528 354 l 478 354 l 471 436 l 288 436 l 236 71 q 291 65 256 67 q 364 63 326 63 l 506 63 l 558 211 l 617 211 l 590 0 l 22 0 l 28 51 z "},"Ė":{"ha":704,"x_min":22,"x_max":692,"o":"m 451 971 q 400 992 419 971 q 381 1043 381 1013 q 401 1105 381 1075 q 464 1135 421 1135 q 515 1115 494 1135 q 536 1060 536 1094 q 515 999 536 1028 q 451 971 494 971 m 28 51 l 126 71 l 233 829 l 139 849 l 144 900 l 692 900 l 663 683 l 594 683 l 594 836 l 454 836 l 343 829 l 296 497 l 478 497 l 507 579 l 557 579 l 528 354 l 478 354 l 471 436 l 288 436 l 236 71 q 291 65 256 67 q 364 63 326 63 l 506 63 l 558 211 l 617 211 l 590 0 l 22 0 l 28 51 z "},"Ẹ":{"ha":713,"x_min":22,"x_max":692,"o":"m 28 51 l 126 71 l 233 829 l 139 849 l 144 900 l 692 900 l 663 683 l 594 683 l 594 836 l 454 836 l 343 829 l 296 497 l 478 497 l 507 579 l 557 579 l 528 354 l 478 354 l 471 436 l 288 436 l 236 71 q 291 65 256 67 q 364 63 326 63 l 506 63 l 558 211 l 617 211 l 590 0 l 22 0 l 28 51 m 281 -231 q 229 -210 249 -231 q 210 -158 210 -189 q 230 -97 210 -126 q 293 -67 250 -67 q 345 -87 325 -67 q 365 -142 365 -107 q 344 -202 365 -174 q 281 -231 324 -231 z "},"È":{"ha":704,"x_min":22,"x_max":692,"o":"m 342 1021 q 290 1050 308 1035 q 272 1092 272 1065 q 285 1131 272 1111 q 319 1161 297 1150 l 553 994 l 522 946 l 342 1021 m 28 51 l 126 71 l 233 829 l 139 849 l 144 900 l 692 900 l 663 683 l 594 683 l 594 836 l 454 836 l 343 829 l 296 497 l 478 497 l 507 579 l 557 579 l 528 354 l 478 354 l 471 436 l 288 436 l 236 71 q 291 65 256 67 q 364 63 326 63 l 506 63 l 558 211 l 617 211 l 590 0 l 22 0 l 28 51 z "},"Ẻ":{"ha":713,"x_min":22,"x_max":692,"o":"m 28 51 l 126 71 l 233 829 l 139 849 l 144 900 l 692 900 l 663 683 l 594 683 l 594 836 l 454 836 l 343 829 l 296 497 l 478 497 l 507 579 l 557 579 l 528 354 l 478 354 l 471 436 l 288 436 l 236 71 q 291 65 256 67 q 364 63 326 63 l 506 63 l 558 211 l 617 211 l 590 0 l 22 0 l 28 51 m 407 940 q 403 961 403 950 q 417 991 403 978 q 463 1015 431 1004 q 518 1065 518 1036 q 454 1090 518 1090 q 365 1079 413 1090 q 358 1101 360 1090 q 357 1118 357 1111 q 374 1149 357 1133 q 447 1165 392 1165 q 570 1144 525 1165 q 615 1079 615 1122 q 590 1017 615 1043 q 519 976 564 990 q 485 959 492 968 q 478 940 479 950 l 407 940 z "},"Ȇ":{"ha":713,"x_min":22,"x_max":692,"o":"m 28 51 l 126 71 l 233 829 l 139 849 l 144 900 l 692 900 l 663 683 l 594 683 l 594 836 l 454 836 l 343 829 l 296 497 l 478 497 l 507 579 l 557 579 l 528 354 l 478 354 l 471 436 l 288 436 l 236 71 q 291 65 256 67 q 364 63 326 63 l 506 63 l 558 211 l 617 211 l 590 0 l 22 0 l 28 51 m 251 992 q 281 1032 251 992 q 365 1112 310 1072 q 500 1151 421 1151 q 623 1107 582 1151 q 664 1026 664 1063 q 642 994 664 1010 q 599 969 621 979 q 588 993 599 969 q 551 1040 576 1017 q 482 1064 526 1064 q 378 1039 424 1064 q 306 990 332 1014 q 281 965 281 965 l 251 992 z "},"Ē":{"ha":704,"x_min":22,"x_max":692,"o":"m 269 1086 l 661 1086 l 650 999 l 258 999 l 269 1086 m 28 51 l 126 71 l 233 829 l 139 849 l 144 900 l 692 900 l 663 683 l 594 683 l 594 836 l 454 836 l 343 829 l 296 497 l 478 497 l 507 579 l 557 579 l 528 354 l 478 354 l 471 436 l 288 436 l 236 71 q 291 65 256 67 q 364 63 326 63 l 506 63 l 558 211 l 617 211 l 590 0 l 22 0 l 28 51 z "},"Ę":{"ha":704,"x_min":22,"x_max":692,"o":"m 560 7 q 507 -40 536 -8 q 478 -119 478 -72 q 535 -175 478 -175 q 588 -161 563 -175 q 614 -147 614 -147 l 636 -181 q 595 -213 636 -181 q 490 -246 554 -246 q 417 -228 447 -246 q 386 -158 386 -210 q 419 -65 386 -108 q 504 8 453 -21 l 560 7 m 28 51 l 126 71 l 233 829 l 139 849 l 144 900 l 692 900 l 663 683 l 594 683 l 594 836 l 454 836 l 343 829 l 296 497 l 478 497 l 507 579 l 557 579 l 528 354 l 478 354 l 471 436 l 288 436 l 236 71 q 291 65 256 67 q 364 63 326 63 l 506 63 l 558 211 l 617 211 l 590 0 l 22 0 l 28 51 z "},"Ẽ":{"ha":713,"x_min":22,"x_max":692,"o":"m 28 51 l 126 71 l 233 829 l 139 849 l 144 900 l 692 900 l 663 683 l 594 683 l 594 836 l 454 836 l 343 829 l 296 497 l 478 497 l 507 579 l 557 579 l 528 354 l 478 354 l 471 436 l 288 436 l 236 71 q 291 65 256 67 q 364 63 326 63 l 506 63 l 558 211 l 617 211 l 590 0 l 22 0 l 28 51 z "},"F":{"ha":672,"x_min":22,"x_max":701,"o":"m 28 51 l 126 71 l 233 829 l 139 849 l 144 900 l 701 900 l 669 693 l 600 693 l 600 831 l 460 831 l 342 819 l 292 469 l 492 469 l 519 553 l 569 553 l 536 314 l 488 314 l 482 400 l 283 400 l 236 74 l 369 54 l 365 0 l 22 0 l 28 51 z "},"G":{"ha":785,"x_min":67,"x_max":736,"o":"m 571 38 l 560 38 q 495 5 540 25 q 363 -15 450 -15 q 143 74 219 -15 q 67 335 67 163 q 118 617 67 483 q 268 833 169 750 q 510 917 367 917 q 669 901 601 917 q 736 886 736 886 l 710 682 l 651 682 l 643 807 q 599 826 643 807 q 483 846 556 846 q 279 735 367 846 q 192 364 192 624 q 245 125 192 194 q 396 56 299 56 q 492 69 453 56 q 563 100 531 83 l 600 361 l 453 386 l 460 446 l 707 446 l 647 0 l 601 0 l 571 38 z "},"Ǵ":{"ha":785,"x_min":67,"x_max":744,"o":"m 571 38 l 560 38 q 495 5 540 25 q 363 -15 450 -15 q 143 74 219 -15 q 67 335 67 163 q 118 617 67 483 q 268 833 169 750 q 510 917 367 917 q 669 901 601 917 q 736 886 736 886 l 710 682 l 651 682 l 643 807 q 599 826 643 807 q 483 846 556 846 q 279 735 367 846 q 192 364 192 624 q 245 125 192 194 q 396 56 299 56 q 492 69 453 56 q 563 100 531 83 l 600 361 l 453 386 l 460 446 l 707 446 l 647 0 l 601 0 l 571 38 z "},"Ğ":{"ha":774,"x_min":56,"x_max":725,"o":"m 560 38 l 549 38 q 484 5 529 25 q 351 -15 439 -15 q 132 74 208 -15 q 56 335 56 163 q 107 617 56 483 q 257 833 158 750 q 499 917 356 917 q 658 901 590 917 q 725 886 725 886 l 699 682 l 640 682 l 632 807 q 588 826 632 807 q 472 846 544 846 q 268 735 356 846 q 181 364 181 624 q 234 125 181 194 q 385 56 288 56 q 481 69 442 56 q 551 100 519 83 l 589 361 l 442 386 l 449 446 l 696 446 l 636 0 l 590 0 l 560 38 m 725 1125 q 696 1085 725 1125 q 611 1005 667 1044 q 476 965 556 965 q 353 1010 394 965 q 313 1090 313 1054 q 334 1122 313 1107 q 378 1147 356 1138 q 389 1124 378 1147 q 425 1076 400 1100 q 494 1053 450 1053 q 599 1078 553 1053 q 670 1127 644 1103 q 696 1151 696 1151 l 725 1125 z "},"Ǧ":{"ha":785,"x_min":67,"x_max":736,"o":"m 571 38 l 560 38 q 495 5 540 25 q 363 -15 450 -15 q 143 74 219 -15 q 67 335 67 163 q 118 617 67 483 q 268 833 169 750 q 510 917 367 917 q 669 901 601 917 q 736 886 736 886 l 710 682 l 651 682 l 643 807 q 599 826 643 807 q 483 846 556 846 q 279 735 367 846 q 192 364 192 624 q 245 125 192 194 q 396 56 299 56 q 492 69 453 56 q 563 100 531 83 l 600 361 l 453 386 l 460 446 l 707 446 l 647 0 l 601 0 l 571 38 z "},"Ĝ":{"ha":785,"x_min":67,"x_max":738,"o":"m 571 38 l 560 38 q 495 5 540 25 q 363 -15 450 -15 q 143 74 219 -15 q 67 335 67 163 q 118 617 67 483 q 268 833 169 750 q 510 917 367 917 q 669 901 601 917 q 736 886 736 886 l 710 682 l 651 682 l 643 807 q 599 826 643 807 q 483 846 556 846 q 279 735 367 846 q 192 364 192 624 q 245 125 192 194 q 396 56 299 56 q 492 69 453 56 q 563 100 531 83 l 600 361 l 453 386 l 460 446 l 707 446 l 647 0 l 601 0 l 571 38 z "},"Ģ":{"ha":774,"x_min":56,"x_max":725,"o":"m 560 38 l 549 38 q 484 5 529 25 q 351 -15 439 -15 q 132 74 208 -15 q 56 335 56 163 q 107 617 56 483 q 257 833 158 750 q 499 917 356 917 q 658 901 590 917 q 725 886 725 886 l 699 682 l 640 682 l 632 807 q 588 826 632 807 q 472 846 544 846 q 268 735 356 846 q 181 364 181 624 q 234 125 181 194 q 385 56 288 56 q 481 69 442 56 q 551 100 519 83 l 589 361 l 442 386 l 449 446 l 696 446 l 636 0 l 590 0 l 560 38 m 279 -256 q 305 -226 279 -256 q 331 -157 331 -197 q 319 -106 331 -125 q 297 -78 308 -87 q 317 -58 303 -69 q 358 -46 331 -46 q 408 -65 386 -46 q 429 -126 429 -83 q 402 -201 429 -168 q 344 -254 375 -233 q 303 -279 314 -275 l 279 -256 z "},"Ġ":{"ha":785,"x_min":67,"x_max":736,"o":"m 571 38 l 560 38 q 495 5 540 25 q 363 -15 450 -15 q 143 74 219 -15 q 67 335 67 163 q 118 617 67 483 q 268 833 169 750 q 510 917 367 917 q 669 901 601 917 q 736 886 736 886 l 710 682 l 651 682 l 643 807 q 599 826 643 807 q 483 846 556 846 q 279 735 367 846 q 192 364 192 624 q 245 125 192 194 q 396 56 299 56 q 492 69 453 56 q 563 100 531 83 l 600 361 l 453 386 l 460 446 l 707 446 l 647 0 l 601 0 l 571 38 z "},"H":{"ha":926,"x_min":21,"x_max":918,"o":"m 26 51 l 125 71 l 232 829 l 138 849 l 143 900 l 446 900 l 440 849 l 342 829 l 296 500 l 658 500 l 704 829 l 610 849 l 615 900 l 918 900 l 913 849 l 814 829 l 707 71 l 801 51 l 797 0 l 493 0 l 499 51 l 597 71 l 647 424 l 285 424 l 235 71 l 329 51 l 325 0 l 21 0 l 26 51 z "},"Ħ":{"ha":926,"x_min":21,"x_max":918,"o":"m 913 849 l 814 829 l 792 672 l 883 672 l 872 600 l 782 600 l 707 71 l 801 51 l 797 0 l 493 0 l 499 51 l 597 71 l 639 371 l 276 371 l 235 71 l 329 51 l 325 0 l 21 0 l 26 51 l 125 71 l 200 600 l 108 600 l 119 672 l 210 672 l 232 829 l 138 849 l 143 900 l 446 900 l 440 849 l 342 829 l 319 672 l 682 672 l 704 829 l 610 849 l 615 900 l 918 900 l 913 849 m 650 447 l 672 600 l 310 600 l 288 447 l 650 447 z "},"Ĥ":{"ha":926,"x_min":21,"x_max":918,"o":"m 26 51 l 125 71 l 232 829 l 138 849 l 143 900 l 446 900 l 440 849 l 342 829 l 296 500 l 658 500 l 704 829 l 610 849 l 615 900 l 918 900 l 913 849 l 814 829 l 707 71 l 801 51 l 797 0 l 493 0 l 499 51 l 597 71 l 647 424 l 285 424 l 235 71 l 329 51 l 325 0 l 21 0 l 26 51 z "},"Ḥ":{"ha":926,"x_min":21,"x_max":918,"o":"m 26 51 l 125 71 l 232 829 l 138 849 l 143 900 l 446 900 l 440 849 l 342 829 l 296 500 l 658 500 l 704 829 l 610 849 l 615 900 l 918 900 l 913 849 l 814 829 l 707 71 l 801 51 l 797 0 l 493 0 l 499 51 l 597 71 l 647 424 l 285 424 l 235 71 l 329 51 l 325 0 l 21 0 l 26 51 m 382 -231 q 331 -210 350 -231 q 311 -158 311 -189 q 331 -97 311 -126 q 394 -67 351 -67 q 447 -87 426 -67 q 467 -142 467 -107 q 446 -202 467 -174 q 382 -231 425 -231 z "},"I":{"ha":454,"x_min":22,"x_max":447,"o":"m 28 51 l 126 71 l 233 829 l 139 849 l 144 900 l 447 900 l 442 849 l 343 829 l 236 71 l 331 51 l 326 0 l 22 0 l 28 51 z "},"Ĳ":{"ha":1007,"x_min":22,"x_max":1025,"o":"m 28 51 l 126 71 l 233 829 l 139 849 l 144 900 l 447 900 l 442 849 l 343 829 l 236 71 l 331 51 l 326 0 l 22 0 l 28 51 m 471 218 l 539 218 l 556 64 q 577 58 556 64 q 628 51 599 51 q 694 67 675 51 q 719 138 713 83 l 811 825 l 690 849 l 696 900 l 1025 900 l 1019 849 l 921 829 l 829 154 q 765 20 817 60 q 617 -19 713 -19 q 494 -1 540 -19 q 447 18 447 18 l 471 218 z "},"Í":{"ha":454,"x_min":21,"x_max":465,"o":"m 26 51 l 125 71 l 232 829 l 138 849 l 143 900 l 446 900 l 440 849 l 342 829 l 235 71 l 329 51 l 325 0 l 21 0 l 26 51 m 215 946 l 185 994 l 418 1161 q 453 1131 440 1150 q 465 1092 465 1111 q 447 1050 465 1065 q 396 1021 429 1035 l 215 946 z "},"Ĭ":{"ha":454,"x_min":22,"x_max":535,"o":"m 28 51 l 126 71 l 233 829 l 139 849 l 144 900 l 447 900 l 442 849 l 343 829 l 236 71 l 331 51 l 326 0 l 22 0 l 28 51 z "},"Ǐ":{"ha":454,"x_min":22,"x_max":508,"o":"m 28 51 l 126 71 l 233 829 l 139 849 l 144 900 l 447 900 l 442 849 l 343 829 l 236 71 l 331 51 l 326 0 l 22 0 l 28 51 z "},"Î":{"ha":435,"x_min":1,"x_max":472,"o":"m 7 51 l 106 71 l 213 829 l 118 849 l 124 900 l 426 900 l 421 849 l 322 829 l 215 71 l 310 51 l 306 0 l 1 0 l 7 51 m 94 1011 l 193 1085 q 270 1143 251 1128 q 299 1158 289 1158 q 343 1128 308 1157 q 389 1090 378 1100 l 472 1014 l 426 957 l 279 1050 l 129 965 l 94 1011 z "},"Ȉ":{"ha":454,"x_min":22,"x_max":458,"o":"m 28 51 l 126 71 l 233 829 l 139 849 l 144 900 l 447 900 l 442 849 l 343 829 l 236 71 l 331 51 l 326 0 l 22 0 l 28 51 m 410 940 l 339 1013 q 310 1051 325 1028 q 294 1093 294 1074 q 322 1137 294 1118 q 381 1161 349 1156 l 458 974 l 410 940 m 197 940 l 126 1013 q 97 1051 113 1028 q 82 1093 82 1074 q 109 1137 82 1118 q 168 1161 136 1156 l 246 974 l 197 940 z "},"Ï":{"ha":454,"x_min":21,"x_max":521,"o":"m 26 51 l 125 71 l 232 829 l 138 849 l 143 900 l 446 900 l 440 849 l 342 829 l 235 71 l 329 51 l 325 0 l 21 0 l 26 51 m 179 963 q 128 984 147 963 q 108 1040 108 1006 q 129 1099 108 1074 q 185 1124 150 1124 q 236 1103 217 1124 q 256 1049 256 1083 q 235 988 256 1014 q 179 963 215 963 m 444 963 q 393 984 413 963 q 374 1040 374 1006 q 394 1099 374 1074 q 450 1124 415 1124 q 501 1103 482 1124 q 521 1049 521 1083 q 501 988 521 1014 q 444 963 481 963 z "},"İ":{"ha":447,"x_min":14,"x_max":439,"o":"m 19 51 l 118 71 l 225 829 l 131 849 l 136 900 l 439 900 l 433 849 l 335 829 l 228 71 l 322 51 l 318 0 l 14 0 l 19 51 m 307 971 q 256 992 275 971 q 236 1043 236 1013 q 256 1105 236 1075 q 319 1135 276 1135 q 371 1115 350 1135 q 392 1060 392 1094 q 371 999 392 1028 q 307 971 350 971 z "},"Ị":{"ha":454,"x_min":22,"x_max":447,"o":"m 28 51 l 126 71 l 233 829 l 139 849 l 144 900 l 447 900 l 442 849 l 343 829 l 236 71 l 331 51 l 326 0 l 22 0 l 28 51 m 151 -231 q 100 -210 119 -231 q 81 -158 81 -189 q 101 -97 81 -126 q 164 -67 121 -67 q 216 -87 196 -67 q 236 -142 236 -107 q 215 -202 236 -174 q 151 -231 194 -231 z "},"Ì":{"ha":454,"x_min":21,"x_max":446,"o":"m 26 51 l 125 71 l 232 829 l 138 849 l 143 900 l 446 900 l 440 849 l 342 829 l 235 71 l 329 51 l 325 0 l 21 0 l 26 51 m 218 1021 q 167 1050 185 1035 q 149 1092 149 1065 q 161 1131 149 1111 q 196 1161 174 1150 l 429 994 l 399 946 l 218 1021 z "},"Ỉ":{"ha":454,"x_min":22,"x_max":486,"o":"m 28 51 l 126 71 l 233 829 l 139 849 l 144 900 l 447 900 l 442 849 l 343 829 l 236 71 l 331 51 l 326 0 l 22 0 l 28 51 m 278 940 q 274 961 274 950 q 288 991 274 978 q 333 1015 301 1004 q 389 1065 389 1036 q 325 1090 389 1090 q 236 1079 283 1090 q 229 1101 231 1090 q 228 1118 228 1111 q 245 1149 228 1133 q 318 1165 263 1165 q 441 1144 396 1165 q 486 1079 486 1122 q 460 1017 486 1043 q 390 976 435 990 q 356 959 363 968 q 349 940 350 950 l 278 940 z "},"Ȋ":{"ha":454,"x_min":22,"x_max":535,"o":"m 28 51 l 126 71 l 233 829 l 139 849 l 144 900 l 447 900 l 442 849 l 343 829 l 236 71 l 331 51 l 326 0 l 22 0 l 28 51 m 122 992 q 151 1032 122 992 q 236 1112 181 1072 q 371 1151 292 1151 q 494 1107 453 1151 q 535 1026 535 1063 q 513 994 535 1010 q 469 969 492 979 q 458 993 469 969 q 422 1040 447 1017 q 353 1064 397 1064 q 249 1039 294 1064 q 177 990 203 1014 q 151 965 151 965 l 122 992 z "},"Ī":{"ha":454,"x_min":21,"x_max":486,"o":"m 153 1086 l 486 1086 l 474 999 l 140 999 l 153 1086 m 26 51 l 125 71 l 232 829 l 138 849 l 143 900 l 446 900 l 440 849 l 342 829 l 235 71 l 329 51 l 325 0 l 21 0 l 26 51 z "},"Į":{"ha":454,"x_min":21,"x_max":446,"o":"m 26 51 l 125 71 l 232 829 l 138 849 l 143 900 l 446 900 l 440 849 l 342 829 l 235 71 l 329 51 l 325 0 l 196 0 q 148 -47 172 -17 q 124 -119 124 -76 q 181 -175 124 -175 q 234 -161 208 -175 q 260 -147 260 -147 l 282 -181 q 241 -213 282 -181 q 136 -246 200 -246 q 63 -228 93 -246 q 32 -158 32 -210 q 60 -70 32 -111 q 136 0 89 -29 l 21 0 l 26 51 z "},"Ĩ":{"ha":454,"x_min":22,"x_max":561,"o":"m 28 51 l 126 71 l 233 829 l 139 849 l 144 900 l 447 900 l 442 849 l 343 829 l 236 71 l 331 51 l 326 0 l 22 0 l 28 51 z "},"J":{"ha":553,"x_min":-7,"x_max":571,"o":"m 17 218 l 85 218 l 101 64 q 123 58 101 64 q 174 51 144 51 q 240 67 221 51 q 265 138 258 83 l 357 825 l 236 849 l 242 900 l 571 900 l 565 849 l 467 829 l 375 154 q 310 20 363 60 q 163 -19 258 -19 q 40 -1 86 -19 q -7 18 -7 18 l 17 218 z "},"Ĵ":{"ha":553,"x_min":-7,"x_max":633,"o":"m 17 218 l 85 218 l 101 64 q 123 58 101 64 q 174 51 144 51 q 240 67 221 51 q 265 138 258 83 l 357 825 l 236 849 l 242 900 l 571 900 l 565 849 l 467 829 l 375 154 q 310 20 363 60 q 163 -19 258 -19 q 40 -1 86 -19 q -7 18 -7 18 l 17 218 z "},"K":{"ha":725,"x_min":22,"x_max":800,"o":"m 28 51 l 126 71 l 233 829 l 139 849 l 144 900 l 447 900 l 442 849 l 343 829 l 296 496 l 349 496 l 621 817 l 621 829 l 546 849 l 553 900 l 800 900 l 794 849 l 719 829 l 433 494 l 647 72 l 728 51 l 724 0 l 608 0 q 565 8 581 0 q 538 40 550 15 l 344 431 l 288 431 l 236 71 l 331 51 l 326 0 l 22 0 l 28 51 z "},"Ķ":{"ha":725,"x_min":14,"x_max":792,"o":"m 19 51 l 118 71 l 225 829 l 131 849 l 136 900 l 439 900 l 433 849 l 335 829 l 288 496 l 340 496 l 613 817 l 613 829 l 538 849 l 544 900 l 792 900 l 786 849 l 711 829 l 425 494 l 635 74 l 719 51 l 715 0 l 594 0 q 551 8 567 0 q 524 40 536 15 l 325 431 l 279 431 l 228 71 l 322 51 l 318 0 l 14 0 l 19 51 m 265 -256 q 291 -226 265 -256 q 317 -157 317 -197 q 306 -106 317 -125 q 283 -78 294 -87 q 303 -58 289 -69 q 344 -46 317 -46 q 394 -65 372 -46 q 415 -126 415 -83 q 388 -201 415 -168 q 331 -254 361 -233 q 289 -279 300 -275 l 265 -256 z "},"L":{"ha":614,"x_min":21,"x_max":579,"o":"m 26 51 l 125 71 l 232 829 l 138 849 l 143 900 l 446 900 l 440 849 l 342 829 l 235 71 l 293 64 l 465 64 l 521 211 l 579 211 l 547 0 l 21 0 l 26 51 z "},"Ǉ":{"ha":1167,"x_min":21,"x_max":1185,"o":"m 26 51 l 125 71 l 232 829 l 138 849 l 143 900 l 446 900 l 440 849 l 342 829 l 235 71 l 293 64 l 465 64 l 521 211 l 579 211 l 547 0 l 21 0 l 26 51 m 631 218 l 699 218 l 715 64 q 737 58 715 64 q 788 51 758 51 q 853 67 835 51 q 879 138 872 83 l 971 825 l 850 849 l 856 900 l 1185 900 l 1179 849 l 1081 829 l 989 154 q 924 20 976 60 q 776 -19 872 -19 q 653 -1 700 -19 q 607 18 607 18 l 631 218 z "},"Ĺ":{"ha":614,"x_min":14,"x_max":572,"o":"m 19 51 l 118 71 l 225 829 l 131 849 l 136 900 l 439 900 l 433 849 l 335 829 l 228 71 l 286 64 l 458 64 l 514 211 l 572 211 l 540 0 l 14 0 l 19 51 m 208 946 l 178 994 l 411 1161 q 446 1131 433 1150 q 458 1092 458 1111 q 440 1050 458 1065 q 389 1021 422 1035 l 208 946 z "},"Ľ":{"ha":614,"x_min":14,"x_max":633,"o":"m 500 786 q 517 819 500 786 q 535 904 535 851 q 530 936 535 922 q 515 965 525 950 q 534 985 521 974 q 575 997 547 997 q 618 980 603 997 q 633 935 633 963 q 610 847 633 883 q 560 790 588 811 q 522 765 533 769 l 500 786 m 19 51 l 118 71 l 225 829 l 131 849 l 136 900 l 439 900 l 433 849 l 335 829 l 228 71 l 286 64 l 458 64 l 514 211 l 572 211 l 540 0 l 14 0 l 19 51 z "},"Ļ":{"ha":614,"x_min":14,"x_max":572,"o":"m 19 51 l 118 71 l 225 829 l 131 849 l 136 900 l 439 900 l 433 849 l 335 829 l 228 71 l 286 64 l 458 64 l 514 211 l 572 211 l 540 0 l 14 0 l 19 51 m 210 -256 q 235 -226 210 -256 q 261 -157 261 -197 q 250 -106 261 -125 q 228 -78 239 -87 q 247 -58 233 -69 q 289 -46 261 -46 q 338 -65 317 -46 q 360 -126 360 -83 q 333 -201 360 -168 q 275 -254 306 -233 q 233 -279 244 -275 l 210 -256 z "},"Ŀ":{"ha":614,"x_min":21,"x_max":588,"o":"m 26 51 l 125 71 l 232 829 l 138 849 l 143 900 l 446 900 l 440 849 l 342 829 l 235 71 l 293 64 l 465 64 l 521 211 l 579 211 l 547 0 l 21 0 l 26 51 m 493 411 q 426 478 426 411 q 452 550 426 518 q 519 582 478 582 q 569 563 550 582 q 588 515 588 544 q 563 444 588 476 q 493 411 539 411 z "},"ǈ":{"ha":992,"x_min":21,"x_max":951,"o":"m 26 51 l 125 71 l 232 829 l 138 849 l 143 900 l 446 900 l 440 849 l 342 829 l 235 71 l 293 64 l 465 64 l 521 211 l 579 211 l 547 0 l 21 0 l 26 51 m 536 -232 q 482 -182 482 -232 q 492 -140 482 -154 q 500 -126 501 -126 l 596 -126 q 676 -110 660 -126 q 700 -77 682 -104 q 726 6 718 -50 l 821 611 l 711 635 l 711 686 l 921 713 l 921 613 l 838 51 q 728 -163 815 -94 q 536 -232 642 -232 m 867 810 q 815 831 835 810 q 796 882 796 851 q 816 944 796 914 q 879 974 836 974 q 931 953 911 974 q 951 899 951 933 q 931 838 951 867 q 867 810 910 810 z "},"Ł":{"ha":614,"x_min":14,"x_max":572,"o":"m 19 51 l 118 71 l 161 378 l 35 329 l 35 400 l 172 454 l 225 829 l 131 849 l 136 900 l 439 900 l 433 849 l 335 829 l 289 500 l 426 556 l 426 481 l 278 422 l 228 71 l 286 64 l 458 64 l 514 211 l 572 211 l 540 0 l 14 0 l 19 51 z "},"M":{"ha":1056,"x_min":21,"x_max":1047,"o":"m 26 51 l 125 71 l 232 829 l 138 849 l 143 900 l 388 900 l 481 251 l 486 175 l 488 179 l 515 251 l 803 900 l 1047 900 l 1042 849 l 943 829 l 836 71 l 931 51 l 926 0 l 622 0 l 628 51 l 726 71 l 815 713 l 822 758 l 817 758 l 481 0 l 419 0 l 301 758 l 296 758 l 292 726 l 199 71 l 293 51 l 289 0 l 21 0 l 26 51 z "},"N":{"ha":908,"x_min":21,"x_max":915,"o":"m 26 51 l 125 71 l 232 829 l 138 849 l 143 900 l 344 900 l 632 183 l 638 168 l 644 168 l 646 182 l 738 829 l 643 849 l 647 900 l 915 900 l 910 849 l 811 829 l 694 0 l 588 0 l 303 706 l 297 721 l 290 721 l 199 71 l 293 51 l 289 0 l 21 0 l 26 51 z "},"Ǌ":{"ha":1461,"x_min":21,"x_max":1479,"o":"m 26 51 l 125 71 l 232 829 l 138 849 l 143 900 l 344 900 l 632 183 l 638 168 l 644 168 l 646 182 l 738 829 l 643 849 l 647 900 l 915 900 l 910 849 l 811 829 l 694 0 l 588 0 l 303 706 l 297 721 l 290 721 l 199 71 l 293 51 l 289 0 l 21 0 l 26 51 m 925 218 l 993 218 l 1010 64 q 1031 58 1010 64 q 1082 51 1053 51 q 1148 67 1129 51 q 1174 138 1167 83 l 1265 825 l 1144 849 l 1150 900 l 1479 900 l 1474 849 l 1375 829 l 1283 154 q 1219 20 1271 60 q 1071 -19 1167 -19 q 948 -1 994 -19 q 901 18 901 18 l 925 218 z "},"Ń":{"ha":908,"x_min":21,"x_max":915,"o":"m 471 950 l 440 999 l 638 1165 q 703 1135 686 1156 q 721 1096 721 1115 q 703 1054 721 1069 q 651 1025 685 1039 l 471 950 m 26 51 l 125 71 l 232 829 l 138 849 l 143 900 l 344 900 l 632 183 l 638 168 l 644 168 l 646 182 l 738 829 l 643 849 l 647 900 l 915 900 l 910 849 l 811 829 l 694 0 l 588 0 l 303 706 l 297 721 l 290 721 l 199 71 l 293 51 l 289 0 l 21 0 l 26 51 z "},"Ň":{"ha":908,"x_min":21,"x_max":915,"o":"m 375 1107 l 424 1160 l 560 1064 l 701 1164 l 736 1118 l 646 1033 q 572 970 593 983 q 540 957 550 957 q 498 985 529 957 q 456 1025 467 1014 l 375 1107 m 26 51 l 125 71 l 232 829 l 138 849 l 143 900 l 344 900 l 632 183 l 638 168 l 644 168 l 646 182 l 738 829 l 643 849 l 647 900 l 915 900 l 910 849 l 811 829 l 694 0 l 588 0 l 303 706 l 297 721 l 290 721 l 199 71 l 293 51 l 289 0 l 21 0 l 26 51 z "},"Ņ":{"ha":908,"x_min":21,"x_max":915,"o":"m 324 -256 q 349 -226 324 -256 q 375 -157 375 -197 q 364 -106 375 -125 q 342 -78 353 -87 q 361 -58 347 -69 q 403 -46 375 -46 q 452 -65 431 -46 q 474 -126 474 -83 q 447 -201 474 -168 q 389 -254 419 -233 q 347 -279 358 -275 l 324 -256 m 26 51 l 125 71 l 232 829 l 138 849 l 143 900 l 344 900 l 632 183 l 638 168 l 644 168 l 646 182 l 738 829 l 643 849 l 647 900 l 915 900 l 910 849 l 811 829 l 694 0 l 588 0 l 303 706 l 297 721 l 290 721 l 199 71 l 293 51 l 289 0 l 21 0 l 26 51 z "},"Ṅ":{"ha":908,"x_min":21,"x_max":915,"o":"m 26 51 l 125 71 l 232 829 l 138 849 l 143 900 l 344 900 l 632 183 l 638 168 l 644 168 l 646 182 l 738 829 l 643 849 l 647 900 l 915 900 l 910 849 l 811 829 l 694 0 l 588 0 l 303 706 l 297 721 l 290 721 l 199 71 l 293 51 l 289 0 l 21 0 l 26 51 z "},"Ŋ":{"ha":908,"x_min":21,"x_max":915,"o":"m 647 900 l 915 900 l 910 849 l 811 829 l 701 51 q 593 -163 681 -94 q 400 -232 506 -232 q 346 -182 346 -232 q 356 -140 346 -154 q 364 -126 365 -126 l 460 -126 q 540 -110 524 -126 q 563 -78 546 -104 q 590 1 581 -51 l 307 697 l 297 721 l 290 721 l 199 71 l 293 51 l 289 0 l 21 0 l 26 51 l 125 71 l 232 829 l 138 849 l 143 900 l 344 900 l 622 204 l 638 168 l 644 168 l 650 206 l 738 829 l 643 849 l 647 900 z "},"Ɲ":{"ha":908,"x_min":-129,"x_max":915,"o":"m 647 900 l 915 900 l 910 849 l 811 829 l 694 0 l 588 0 l 307 697 l 297 721 l 290 721 l 199 51 q 99 -163 179 -94 q -71 -232 19 -232 q -114 -223 -99 -232 q -129 -183 -129 -214 q -119 -140 -129 -153 q -111 -126 -108 -126 l -15 -126 q 34 -119 14 -126 q 65 -106 54 -112 q 97 -65 85 -92 q 115 6 108 -39 l 232 829 l 138 849 l 143 900 l 344 900 l 624 204 l 638 168 l 644 168 l 649 200 l 738 829 l 643 849 l 647 900 z "},"ǋ":{"ha":1286,"x_min":21,"x_max":1246,"o":"m 26 51 l 125 71 l 232 829 l 138 849 l 143 900 l 344 900 l 632 183 l 638 168 l 644 168 l 646 182 l 738 829 l 643 849 l 647 900 l 915 900 l 910 849 l 811 829 l 694 0 l 588 0 l 303 706 l 297 721 l 290 721 l 199 71 l 293 51 l 289 0 l 21 0 l 26 51 m 831 -232 q 776 -182 776 -232 q 786 -140 776 -154 q 794 -126 796 -126 l 890 -126 q 971 -110 954 -126 q 994 -77 976 -104 q 1021 6 1013 -50 l 1115 611 l 1006 635 l 1006 686 l 1215 713 l 1215 613 l 1132 51 q 1023 -163 1110 -94 q 831 -232 936 -232 m 1161 810 q 1110 831 1129 810 q 1090 882 1090 851 q 1110 944 1090 914 q 1174 974 1131 974 q 1226 953 1206 974 q 1246 899 1246 933 q 1225 838 1246 867 q 1161 810 1204 810 z "},"Ñ":{"ha":908,"x_min":21,"x_max":915,"o":"m 332 1022 l 383 1089 q 460 1136 421 1136 q 509 1127 479 1136 q 565 1108 539 1118 l 657 1076 l 768 1128 l 800 1092 l 749 1025 q 672 978 711 978 q 622 987 651 978 q 567 1006 592 996 l 475 1038 l 364 986 l 332 1022 m 26 51 l 125 71 l 232 829 l 138 849 l 143 900 l 344 900 l 632 183 l 638 168 l 644 168 l 646 182 l 738 829 l 643 849 l 647 900 l 915 900 l 910 849 l 811 829 l 694 0 l 588 0 l 303 706 l 297 721 l 290 721 l 199 71 l 293 51 l 289 0 l 21 0 l 26 51 z "},"O":{"ha":903,"x_min":61,"x_max":842,"o":"m 382 -15 q 144 81 226 -15 q 61 344 61 176 q 113 625 61 494 q 266 836 165 756 q 510 917 367 917 q 693 874 619 917 q 804 752 767 832 q 842 558 842 672 q 793 281 842 413 q 642 67 744 150 q 382 -15 540 -15 m 421 56 q 651 192 586 56 q 715 544 715 329 q 663 775 715 704 q 481 846 610 846 q 256 716 325 846 q 188 379 188 586 q 237 133 188 211 q 421 56 286 56 z "},"Ó":{"ha":903,"x_min":61,"x_max":842,"o":"m 382 -15 q 144 81 226 -15 q 61 344 61 176 q 113 625 61 494 q 266 836 165 756 q 510 917 367 917 q 693 874 619 917 q 804 752 767 832 q 842 558 842 672 q 793 281 842 413 q 642 67 744 150 q 382 -15 540 -15 m 421 56 q 651 192 586 56 q 715 544 715 329 q 663 775 715 704 q 481 846 610 846 q 256 716 325 846 q 188 379 188 586 q 237 133 188 211 q 421 56 286 56 m 407 1019 l 640 1186 q 675 1156 663 1175 q 688 1117 688 1136 q 669 1075 688 1090 q 618 1046 651 1060 l 438 971 l 407 1019 z "},"Ŏ":{"ha":903,"x_min":61,"x_max":842,"o":"m 382 -15 q 144 81 226 -15 q 61 344 61 176 q 113 625 61 494 q 266 836 165 756 q 510 917 367 917 q 693 874 619 917 q 804 752 767 832 q 842 558 842 672 q 793 281 842 413 q 642 67 744 150 q 382 -15 540 -15 m 421 56 q 651 192 586 56 q 715 544 715 329 q 663 775 715 704 q 481 846 610 846 q 256 716 325 846 q 188 379 188 586 q 237 133 188 211 q 421 56 286 56 z "},"Ǒ":{"ha":903,"x_min":61,"x_max":842,"o":"m 382 -15 q 144 81 226 -15 q 61 344 61 176 q 113 625 61 494 q 266 836 165 756 q 510 917 367 917 q 693 874 619 917 q 804 752 767 832 q 842 558 842 672 q 793 281 842 413 q 642 67 744 150 q 382 -15 540 -15 m 421 56 q 651 192 586 56 q 715 544 715 329 q 663 775 715 704 q 481 846 610 846 q 256 716 325 846 q 188 379 188 586 q 237 133 188 211 q 421 56 286 56 z "},"Ô":{"ha":903,"x_min":61,"x_max":842,"o":"m 382 -15 q 144 81 226 -15 q 61 344 61 176 q 113 625 61 494 q 266 836 165 756 q 510 917 367 917 q 693 874 619 917 q 804 752 767 832 q 842 558 842 672 q 793 281 842 413 q 642 67 744 150 q 382 -15 540 -15 m 421 56 q 651 192 586 56 q 715 544 715 329 q 663 775 715 704 q 481 846 610 846 q 256 716 325 846 q 188 379 188 586 q 237 133 188 211 q 421 56 286 56 m 358 1036 l 457 1110 q 533 1169 514 1156 q 563 1183 553 1183 q 607 1153 572 1182 q 653 1115 642 1125 l 736 1039 l 690 982 l 543 1075 l 393 990 l 358 1036 z "},"Ố":{"ha":903,"x_min":61,"x_max":872,"o":"m 382 -15 q 144 81 226 -15 q 61 344 61 176 q 113 625 61 494 q 266 836 165 756 q 510 917 367 917 q 693 874 619 917 q 804 752 767 832 q 842 558 842 672 q 793 281 842 413 q 642 67 744 150 q 382 -15 540 -15 m 421 56 q 651 192 586 56 q 715 544 715 329 q 663 775 715 704 q 481 846 610 846 q 256 716 325 846 q 188 379 188 586 q 237 133 188 211 q 421 56 286 56 z "},"Ộ":{"ha":903,"x_min":61,"x_max":842,"o":"m 382 -15 q 144 81 226 -15 q 61 344 61 176 q 113 625 61 494 q 266 836 165 756 q 510 917 367 917 q 693 874 619 917 q 804 752 767 832 q 842 558 842 672 q 793 281 842 413 q 642 67 744 150 q 382 -15 540 -15 m 421 56 q 651 192 586 56 q 715 544 715 329 q 663 775 715 704 q 481 846 610 846 q 256 716 325 846 q 188 379 188 586 q 237 133 188 211 q 421 56 286 56 m 375 -231 q 324 -210 343 -231 q 304 -158 304 -189 q 324 -97 304 -126 q 388 -67 344 -67 q 440 -87 419 -67 q 460 -142 460 -107 q 439 -202 460 -174 q 375 -231 418 -231 z "},"Ồ":{"ha":903,"x_min":61,"x_max":842,"o":"m 382 -15 q 144 81 226 -15 q 61 344 61 176 q 113 625 61 494 q 266 836 165 756 q 510 917 367 917 q 693 874 619 917 q 804 752 767 832 q 842 558 842 672 q 793 281 842 413 q 642 67 744 150 q 382 -15 540 -15 m 421 56 q 651 192 586 56 q 715 544 715 329 q 663 775 715 704 q 481 846 610 846 q 256 716 325 846 q 188 379 188 586 q 237 133 188 211 q 421 56 286 56 z "},"Ổ":{"ha":903,"x_min":61,"x_max":842,"o":"m 382 -15 q 144 81 226 -15 q 61 344 61 176 q 113 625 61 494 q 266 836 165 756 q 510 917 367 917 q 693 874 619 917 q 804 752 767 832 q 842 558 842 672 q 793 281 842 413 q 642 67 744 150 q 382 -15 540 -15 m 421 56 q 651 192 586 56 q 715 544 715 329 q 663 775 715 704 q 481 846 610 846 q 256 716 325 846 q 188 379 188 586 q 237 133 188 211 q 421 56 286 56 z "},"Ỗ":{"ha":903,"x_min":61,"x_max":842,"o":"m 382 -15 q 144 81 226 -15 q 61 344 61 176 q 113 625 61 494 q 266 836 165 756 q 510 917 367 917 q 693 874 619 917 q 804 752 767 832 q 842 558 842 672 q 793 281 842 413 q 642 67 744 150 q 382 -15 540 -15 m 421 56 q 651 192 586 56 q 715 544 715 329 q 663 775 715 704 q 481 846 610 846 q 256 716 325 846 q 188 379 188 586 q 237 133 188 211 q 421 56 286 56 z "},"Ȍ":{"ha":903,"x_min":61,"x_max":842,"o":"m 382 -15 q 144 81 226 -15 q 61 344 61 176 q 113 625 61 494 q 266 836 165 756 q 510 917 367 917 q 693 874 619 917 q 804 752 767 832 q 842 558 842 672 q 793 281 842 413 q 642 67 744 150 q 382 -15 540 -15 m 421 56 q 651 192 586 56 q 715 544 715 329 q 663 775 715 704 q 481 846 610 846 q 256 716 325 846 q 188 379 188 586 q 237 133 188 211 q 421 56 286 56 m 617 940 l 546 1013 q 517 1051 532 1028 q 501 1093 501 1074 q 528 1137 501 1118 q 588 1161 556 1156 l 665 974 l 617 940 m 404 940 l 333 1013 q 304 1051 319 1028 q 289 1093 289 1074 q 316 1137 289 1118 q 375 1161 343 1156 l 453 974 l 404 940 z "},"Ö":{"ha":903,"x_min":61,"x_max":842,"o":"m 382 -15 q 144 81 226 -15 q 61 344 61 176 q 113 625 61 494 q 266 836 165 756 q 510 917 367 917 q 693 874 619 917 q 804 752 767 832 q 842 558 842 672 q 793 281 842 413 q 642 67 744 150 q 382 -15 540 -15 m 421 56 q 651 192 586 56 q 715 544 715 329 q 663 775 715 704 q 481 846 610 846 q 256 716 325 846 q 188 379 188 586 q 237 133 188 211 q 421 56 286 56 m 406 988 q 354 1009 374 988 q 335 1065 335 1031 q 356 1124 335 1099 q 411 1149 376 1149 q 463 1128 443 1149 q 482 1074 482 1108 q 462 1013 482 1039 q 406 988 442 988 m 699 988 q 647 1009 667 988 q 628 1065 628 1031 q 649 1124 628 1099 q 704 1149 669 1149 q 756 1128 736 1149 q 775 1074 775 1108 q 755 1013 775 1039 q 699 988 735 988 z "},"Ọ":{"ha":903,"x_min":61,"x_max":842,"o":"m 382 -15 q 144 81 226 -15 q 61 344 61 176 q 113 625 61 494 q 266 836 165 756 q 510 917 367 917 q 693 874 619 917 q 804 752 767 832 q 842 558 842 672 q 793 281 842 413 q 642 67 744 150 q 382 -15 540 -15 m 421 56 q 651 192 586 56 q 715 544 715 329 q 663 775 715 704 q 481 846 610 846 q 256 716 325 846 q 188 379 188 586 q 237 133 188 211 q 421 56 286 56 m 375 -231 q 324 -210 343 -231 q 304 -158 304 -189 q 324 -97 304 -126 q 388 -67 344 -67 q 440 -87 419 -67 q 460 -142 460 -107 q 439 -202 460 -174 q 375 -231 418 -231 z "},"Ò":{"ha":903,"x_min":61,"x_max":842,"o":"m 382 -15 q 144 81 226 -15 q 61 344 61 176 q 113 625 61 494 q 266 836 165 756 q 510 917 367 917 q 693 874 619 917 q 804 752 767 832 q 842 558 842 672 q 793 281 842 413 q 642 67 744 150 q 382 -15 540 -15 m 421 56 q 651 192 586 56 q 715 544 715 329 q 663 775 715 704 q 481 846 610 846 q 256 716 325 846 q 188 379 188 586 q 237 133 188 211 q 421 56 286 56 m 447 1046 q 396 1075 414 1060 q 378 1117 378 1090 q 390 1156 378 1136 q 425 1186 403 1175 l 658 1019 l 628 971 l 447 1046 z "},"Ỏ":{"ha":903,"x_min":61,"x_max":842,"o":"m 382 -15 q 144 81 226 -15 q 61 344 61 176 q 113 625 61 494 q 266 836 165 756 q 510 917 367 917 q 693 874 619 917 q 804 752 767 832 q 842 558 842 672 q 793 281 842 413 q 642 67 744 150 q 382 -15 540 -15 m 421 56 q 651 192 586 56 q 715 544 715 329 q 663 775 715 704 q 481 846 610 846 q 256 716 325 846 q 188 379 188 586 q 237 133 188 211 q 421 56 286 56 m 485 940 q 481 961 481 950 q 494 991 481 978 q 540 1015 508 1004 q 596 1065 596 1036 q 532 1090 596 1090 q 443 1079 490 1090 q 436 1101 438 1090 q 435 1118 435 1111 q 452 1149 435 1133 q 525 1165 469 1165 q 648 1144 603 1165 q 693 1079 693 1122 q 667 1017 693 1043 q 597 976 642 990 q 563 959 569 968 q 556 940 557 950 l 485 940 z "},"Ơ":{"ha":903,"x_min":61,"x_max":1042,"o":"m 382 -15 q 144 81 226 -15 q 61 344 61 176 q 113 625 61 494 q 266 836 165 756 q 510 917 367 917 q 693 874 619 917 q 804 752 767 832 q 842 558 842 672 q 793 281 842 413 q 642 67 744 150 q 382 -15 540 -15 m 421 56 q 651 192 586 56 q 715 544 715 329 q 663 775 715 704 q 481 846 610 846 q 256 716 325 846 q 188 379 188 586 q 237 133 188 211 q 421 56 286 56 m 781 640 l 778 682 q 890 765 829 714 q 950 872 950 815 q 921 919 950 899 l 921 940 l 997 994 q 1026 967 1011 983 q 1042 908 1042 951 q 986 792 1042 861 q 781 640 931 722 z "},"Ớ":{"ha":903,"x_min":61,"x_max":1042,"o":"m 382 -15 q 144 81 226 -15 q 61 344 61 176 q 113 625 61 494 q 266 836 165 756 q 510 917 367 917 q 693 874 619 917 q 804 752 767 832 q 842 558 842 672 q 793 281 842 413 q 642 67 744 150 q 382 -15 540 -15 m 421 56 q 651 192 586 56 q 715 544 715 329 q 663 775 715 704 q 481 846 610 846 q 256 716 325 846 q 188 379 188 586 q 237 133 188 211 q 421 56 286 56 m 781 640 l 778 682 q 890 765 829 714 q 950 872 950 815 q 921 919 950 899 l 921 940 l 997 994 q 1026 967 1011 983 q 1042 908 1042 951 q 986 792 1042 861 q 781 640 931 722 z "},"Ợ":{"ha":903,"x_min":61,"x_max":1042,"o":"m 382 -15 q 144 81 226 -15 q 61 344 61 176 q 113 625 61 494 q 266 836 165 756 q 510 917 367 917 q 693 874 619 917 q 804 752 767 832 q 842 558 842 672 q 793 281 842 413 q 642 67 744 150 q 382 -15 540 -15 m 421 56 q 651 192 586 56 q 715 544 715 329 q 663 775 715 704 q 481 846 610 846 q 256 716 325 846 q 188 379 188 586 q 237 133 188 211 q 421 56 286 56 m 781 640 l 778 682 q 890 765 829 714 q 950 872 950 815 q 921 919 950 899 l 921 940 l 997 994 q 1026 967 1011 983 q 1042 908 1042 951 q 986 792 1042 861 q 781 640 931 722 m 375 -231 q 324 -210 343 -231 q 304 -158 304 -189 q 324 -97 304 -126 q 388 -67 344 -67 q 440 -87 419 -67 q 460 -142 460 -107 q 439 -202 460 -174 q 375 -231 418 -231 z "},"Ờ":{"ha":903,"x_min":61,"x_max":1042,"o":"m 382 -15 q 144 81 226 -15 q 61 344 61 176 q 113 625 61 494 q 266 836 165 756 q 510 917 367 917 q 693 874 619 917 q 804 752 767 832 q 842 558 842 672 q 793 281 842 413 q 642 67 744 150 q 382 -15 540 -15 m 421 56 q 651 192 586 56 q 715 544 715 329 q 663 775 715 704 q 481 846 610 846 q 256 716 325 846 q 188 379 188 586 q 237 133 188 211 q 421 56 286 56 m 781 640 l 778 682 q 890 765 829 714 q 950 872 950 815 q 921 919 950 899 l 921 940 l 997 994 q 1026 967 1011 983 q 1042 908 1042 951 q 986 792 1042 861 q 781 640 931 722 z "},"Ở":{"ha":903,"x_min":61,"x_max":1042,"o":"m 382 -15 q 144 81 226 -15 q 61 344 61 176 q 113 625 61 494 q 266 836 165 756 q 510 917 367 917 q 693 874 619 917 q 804 752 767 832 q 842 558 842 672 q 793 281 842 413 q 642 67 744 150 q 382 -15 540 -15 m 421 56 q 651 192 586 56 q 715 544 715 329 q 663 775 715 704 q 481 846 610 846 q 256 716 325 846 q 188 379 188 586 q 237 133 188 211 q 421 56 286 56 m 781 640 l 778 682 q 890 765 829 714 q 950 872 950 815 q 921 919 950 899 l 921 940 l 997 994 q 1026 967 1011 983 q 1042 908 1042 951 q 986 792 1042 861 q 781 640 931 722 m 485 940 q 481 961 481 950 q 494 991 481 978 q 540 1015 508 1004 q 596 1065 596 1036 q 532 1090 596 1090 q 443 1079 490 1090 q 436 1101 438 1090 q 435 1118 435 1111 q 452 1149 435 1133 q 525 1165 469 1165 q 648 1144 603 1165 q 693 1079 693 1122 q 667 1017 693 1043 q 597 976 642 990 q 563 959 569 968 q 556 940 557 950 l 485 940 z "},"Ỡ":{"ha":903,"x_min":61,"x_max":1042,"o":"m 382 -15 q 144 81 226 -15 q 61 344 61 176 q 113 625 61 494 q 266 836 165 756 q 510 917 367 917 q 693 874 619 917 q 804 752 767 832 q 842 558 842 672 q 793 281 842 413 q 642 67 744 150 q 382 -15 540 -15 m 421 56 q 651 192 586 56 q 715 544 715 329 q 663 775 715 704 q 481 846 610 846 q 256 716 325 846 q 188 379 188 586 q 237 133 188 211 q 421 56 286 56 m 781 640 l 778 682 q 890 765 829 714 q 950 872 950 815 q 921 919 950 899 l 921 940 l 997 994 q 1026 967 1011 983 q 1042 908 1042 951 q 986 792 1042 861 q 781 640 931 722 z "},"Ő":{"ha":903,"x_min":61,"x_max":842,"o":"m 382 -15 q 144 81 226 -15 q 61 344 61 176 q 113 625 61 494 q 266 836 165 756 q 510 917 367 917 q 693 874 619 917 q 804 752 767 832 q 842 558 842 672 q 793 281 842 413 q 642 67 744 150 q 382 -15 540 -15 m 421 56 q 651 192 586 56 q 715 544 715 329 q 663 775 715 704 q 481 846 610 846 q 256 716 325 846 q 188 379 188 586 q 237 133 188 211 q 421 56 286 56 m 378 940 l 339 974 l 468 1161 q 522 1136 508 1154 q 536 1100 536 1118 q 510 1053 535 1079 q 468 1013 485 1026 l 378 940 m 590 940 l 551 974 l 681 1161 q 734 1136 719 1154 q 749 1100 749 1118 q 722 1053 747 1079 q 681 1013 697 1026 l 590 940 z "},"Ȏ":{"ha":903,"x_min":61,"x_max":842,"o":"m 382 -15 q 144 81 226 -15 q 61 344 61 176 q 113 625 61 494 q 266 836 165 756 q 510 917 367 917 q 693 874 619 917 q 804 752 767 832 q 842 558 842 672 q 793 281 842 413 q 642 67 744 150 q 382 -15 540 -15 m 421 56 q 651 192 586 56 q 715 544 715 329 q 663 775 715 704 q 481 846 610 846 q 256 716 325 846 q 188 379 188 586 q 237 133 188 211 q 421 56 286 56 m 329 992 q 358 1032 329 992 q 443 1112 388 1072 q 578 1151 499 1151 q 701 1107 660 1151 q 742 1026 742 1063 q 720 994 742 1010 q 676 969 699 979 q 665 993 676 969 q 629 1040 654 1017 q 560 1064 604 1064 q 456 1039 501 1064 q 384 990 410 1014 q 358 965 358 965 l 329 992 z "},"Ō":{"ha":903,"x_min":61,"x_max":842,"o":"m 382 -15 q 144 81 226 -15 q 61 344 61 176 q 113 625 61 494 q 266 836 165 756 q 510 917 367 917 q 693 874 619 917 q 804 752 767 832 q 842 558 842 672 q 793 281 842 413 q 642 67 744 150 q 382 -15 540 -15 m 421 56 q 651 192 586 56 q 715 544 715 329 q 663 775 715 704 q 481 846 610 846 q 256 716 325 846 q 188 379 188 586 q 237 133 188 211 q 421 56 286 56 m 351 1086 l 743 1086 l 732 999 l 340 999 l 351 1086 z "},"Ǫ":{"ha":903,"x_min":61,"x_max":842,"o":"m 382 -15 q 144 81 226 -15 q 61 344 61 176 q 113 625 61 494 q 266 836 165 756 q 510 917 367 917 q 693 874 619 917 q 804 752 767 832 q 842 558 842 672 q 793 281 842 413 q 642 67 744 150 q 382 -15 540 -15 m 421 56 q 651 192 586 56 q 715 544 715 329 q 663 775 715 704 q 481 846 610 846 q 256 716 325 846 q 188 379 188 586 q 237 133 188 211 q 421 56 286 56 z "},"Ø":{"ha":903,"x_min":61,"x_max":842,"o":"m 238 -126 l 168 -93 l 219 21 q 101 144 142 61 q 61 344 61 228 q 113 625 61 494 q 266 836 165 756 q 510 917 367 917 q 625 901 571 917 l 676 1014 l 743 982 l 693 874 q 804 751 767 831 q 842 558 842 671 q 793 281 842 413 q 642 67 744 150 q 382 -15 540 -15 q 292 -6 340 -15 l 238 -126 m 258 106 l 590 828 q 481 846 540 846 q 258 716 325 846 q 188 379 192 586 q 203 212 188 279 q 258 106 219 144 m 421 56 q 651 192 586 56 q 715 544 715 329 q 653 786 715 718 l 325 68 q 421 56 367 56 z "},"Ǿ":{"ha":903,"x_min":61,"x_max":842,"o":"m 238 -126 l 168 -93 l 219 21 q 101 144 142 61 q 61 344 61 228 q 113 625 61 494 q 266 836 165 756 q 510 917 367 917 q 625 901 571 917 l 676 1014 l 743 982 l 693 874 q 804 751 767 831 q 842 558 842 671 q 793 281 842 413 q 642 67 744 150 q 382 -15 540 -15 q 292 -6 340 -15 l 238 -126 m 258 106 l 590 828 q 481 846 540 846 q 258 716 325 846 q 188 379 192 586 q 203 212 188 279 q 258 106 219 144 m 421 56 q 651 192 586 56 q 715 544 715 329 q 653 786 715 718 l 325 68 q 421 56 367 56 z "},"Õ":{"ha":903,"x_min":61,"x_max":842,"o":"m 382 -15 q 144 81 226 -15 q 61 344 61 176 q 113 625 61 494 q 266 836 165 756 q 510 917 367 917 q 693 874 619 917 q 804 752 767 832 q 842 558 842 672 q 793 281 842 413 q 642 67 744 150 q 382 -15 540 -15 m 421 56 q 651 192 586 56 q 715 544 715 329 q 663 775 715 704 q 481 846 610 846 q 256 716 325 846 q 188 379 188 586 q 237 133 188 211 q 421 56 286 56 m 317 1047 l 368 1114 q 444 1161 406 1161 q 494 1152 464 1161 q 550 1133 524 1143 l 642 1101 l 753 1153 l 785 1117 l 733 1050 q 657 1003 696 1003 q 606 1012 636 1003 q 551 1031 576 1021 l 460 1063 l 349 1011 l 317 1047 z "},"Œ":{"ha":1083,"x_min":49,"x_max":1069,"o":"m 374 0 q 133 88 218 0 q 49 344 49 176 q 103 618 49 492 q 261 822 158 744 q 507 900 364 900 l 1069 900 l 1040 683 l 972 683 l 972 836 l 832 836 l 721 829 l 674 497 l 856 497 l 885 579 l 935 579 l 906 354 l 856 354 l 849 436 l 665 436 l 613 71 q 667 65 631 68 q 742 63 703 63 l 883 63 l 936 211 l 994 211 l 968 0 l 374 0 m 413 65 q 464 67 442 65 q 504 71 486 68 l 610 826 q 551 836 582 833 q 483 839 519 839 q 253 713 328 839 q 175 379 179 586 q 197 198 175 267 q 270 97 218 129 q 413 65 322 65 z "},"P":{"ha":708,"x_min":22,"x_max":708,"o":"m 22 0 l 28 51 l 126 71 l 233 829 l 140 849 l 146 900 l 425 900 q 636 843 564 900 q 708 676 708 786 q 665 510 708 578 q 541 408 621 443 q 351 372 461 372 l 329 372 l 329 419 q 536 491 485 419 q 588 660 588 563 q 543 798 588 761 q 413 835 499 835 q 343 828 375 835 l 236 71 l 349 51 l 344 0 l 22 0 z "},"Þ":{"ha":674,"x_min":21,"x_max":660,"o":"m 21 0 l 26 51 l 125 71 l 232 829 l 138 849 l 143 900 l 446 900 l 440 849 l 342 829 l 324 700 l 407 700 q 590 651 519 700 q 660 488 660 603 q 615 334 660 393 q 499 247 569 275 q 356 219 429 219 q 297 222 321 219 q 257 228 274 224 l 235 71 l 329 51 l 325 0 l 21 0 m 326 275 q 490 328 440 275 q 539 478 539 381 q 493 607 539 579 q 382 635 447 635 q 345 633 363 635 q 313 628 328 631 l 264 282 q 326 275 292 275 z "},"Q":{"ha":903,"x_min":61,"x_max":842,"o":"m 236 -156 l 368 -15 q 140 85 219 -11 q 61 344 61 181 q 113 625 61 494 q 266 836 165 756 q 510 917 367 917 q 693 874 619 917 q 804 752 767 832 q 842 558 842 672 q 798 296 842 421 q 665 87 754 171 q 435 -12 575 3 l 381 -69 q 414 -76 396 -72 q 450 -83 432 -79 l 688 -137 l 769 -99 l 799 -131 l 743 -203 q 712 -224 731 -219 q 676 -228 693 -228 q 633 -222 658 -228 q 581 -210 608 -217 l 342 -157 l 265 -192 l 236 -156 m 421 56 q 651 192 586 56 q 715 544 715 329 q 663 775 715 704 q 481 846 610 846 q 256 716 325 846 q 188 379 188 586 q 237 133 188 211 q 421 56 286 56 z "},"R":{"ha":738,"x_min":22,"x_max":714,"o":"m 22 0 l 28 51 l 126 71 l 233 829 l 140 849 l 146 900 l 454 900 q 631 848 569 900 q 692 699 692 796 q 623 520 689 597 q 432 413 557 443 q 478 367 458 394 q 517 294 497 339 l 607 90 l 714 51 l 710 0 l 578 0 q 508 43 525 0 l 424 238 q 363 354 389 319 q 281 396 338 389 l 236 71 l 331 51 l 326 0 l 22 0 m 289 456 q 440 479 376 456 q 538 551 503 503 q 572 671 572 599 q 544 789 572 744 q 429 833 517 833 q 365 831 388 833 q 343 829 343 829 l 289 456 z "},"Ŕ":{"ha":738,"x_min":22,"x_max":714,"o":"m 22 0 l 28 51 l 126 71 l 233 829 l 140 849 l 146 900 l 454 900 q 631 848 569 900 q 692 699 692 796 q 623 520 689 597 q 432 413 557 443 q 478 367 458 394 q 517 294 497 339 l 607 90 l 714 51 l 710 0 l 578 0 q 508 43 525 0 l 424 238 q 365 354 389 319 q 281 396 340 389 l 236 71 l 331 51 l 326 0 l 22 0 m 289 456 q 440 479 376 456 q 538 551 503 503 q 572 671 572 599 q 544 789 572 744 q 429 833 517 833 q 365 831 388 833 q 343 829 343 829 l 289 456 m 354 946 l 324 994 l 557 1161 q 592 1131 579 1150 q 604 1092 604 1111 q 586 1050 604 1065 q 535 1021 568 1035 l 354 946 z "},"Ř":{"ha":738,"x_min":22,"x_max":714,"o":"m 22 0 l 28 51 l 126 71 l 233 829 l 140 849 l 146 900 l 454 900 q 631 848 569 900 q 692 699 692 796 q 623 520 689 597 q 432 413 557 443 q 478 367 458 394 q 517 294 497 339 l 607 90 l 714 51 l 710 0 l 578 0 q 508 43 525 0 l 424 238 q 365 354 389 319 q 281 396 340 389 l 236 71 l 331 51 l 326 0 l 22 0 m 289 456 q 440 479 376 456 q 538 551 503 503 q 572 671 572 599 q 544 789 572 744 q 429 833 517 833 q 365 831 388 833 q 343 829 343 829 l 289 456 m 428 957 q 385 985 417 957 q 343 1025 353 1014 l 263 1107 l 311 1160 l 447 1064 l 589 1164 l 624 1118 l 533 1033 q 459 970 481 983 q 428 957 438 957 z "},"Ŗ":{"ha":738,"x_min":22,"x_max":714,"o":"m 22 0 l 28 51 l 126 71 l 233 829 l 140 849 l 146 900 l 454 900 q 631 848 569 900 q 692 699 692 796 q 623 520 689 597 q 432 413 557 443 q 478 367 458 394 q 517 294 497 339 l 607 90 l 714 51 l 710 0 l 578 0 q 508 43 525 0 l 424 238 q 365 354 389 319 q 281 396 340 389 l 236 71 l 331 51 l 326 0 l 22 0 m 325 -279 l 301 -256 q 327 -226 301 -256 q 353 -157 353 -197 q 342 -106 353 -125 q 319 -78 331 -87 q 339 -58 325 -69 q 381 -46 353 -46 q 430 -65 408 -46 q 451 -126 451 -83 q 424 -201 451 -168 q 367 -254 397 -233 q 325 -279 336 -275 m 289 456 q 440 479 376 456 q 538 551 503 503 q 572 671 572 599 q 544 789 572 744 q 429 833 517 833 q 365 831 388 833 q 343 829 343 829 l 289 456 z "},"Ȑ":{"ha":738,"x_min":22,"x_max":714,"o":"m 22 0 l 28 51 l 126 71 l 233 829 l 140 849 l 146 900 l 454 900 q 631 848 569 900 q 692 699 692 796 q 623 520 689 597 q 432 413 557 443 q 478 367 458 394 q 517 294 497 339 l 607 90 l 714 51 l 710 0 l 578 0 q 508 43 525 0 l 424 238 q 363 354 389 319 q 281 396 338 389 l 236 71 l 331 51 l 326 0 l 22 0 m 289 456 q 440 479 376 456 q 538 551 503 503 q 572 671 572 599 q 544 789 572 744 q 429 833 517 833 q 365 831 388 833 q 343 829 343 829 l 289 456 m 551 940 l 481 1013 q 451 1051 467 1028 q 436 1093 436 1074 q 463 1137 436 1118 q 522 1161 490 1156 l 600 974 l 551 940 m 339 940 l 268 1013 q 239 1051 254 1028 q 224 1093 224 1074 q 251 1137 224 1118 q 310 1161 278 1156 l 388 974 l 339 940 z "},"Ṛ":{"ha":738,"x_min":22,"x_max":714,"o":"m 22 0 l 28 51 l 126 71 l 233 829 l 140 849 l 146 900 l 454 900 q 631 848 569 900 q 692 699 692 796 q 623 520 689 597 q 432 413 557 443 q 478 367 458 394 q 517 294 497 339 l 607 90 l 714 51 l 710 0 l 578 0 q 508 43 525 0 l 424 238 q 363 354 389 319 q 281 396 338 389 l 236 71 l 331 51 l 326 0 l 22 0 m 289 456 q 440 479 376 456 q 538 551 503 503 q 572 671 572 599 q 544 789 572 744 q 429 833 517 833 q 365 831 388 833 q 343 829 343 829 l 289 456 m 349 -231 q 297 -210 317 -231 q 278 -158 278 -189 q 298 -97 278 -126 q 361 -67 318 -67 q 413 -87 393 -67 q 433 -142 433 -107 q 413 -202 433 -174 q 349 -231 392 -231 z "},"Ȓ":{"ha":738,"x_min":22,"x_max":714,"o":"m 22 0 l 28 51 l 126 71 l 233 829 l 140 849 l 146 900 l 454 900 q 631 848 569 900 q 692 699 692 796 q 623 520 689 597 q 432 413 557 443 q 478 367 458 394 q 517 294 497 339 l 607 90 l 714 51 l 710 0 l 578 0 q 508 43 525 0 l 424 238 q 363 354 389 319 q 281 396 338 389 l 236 71 l 331 51 l 326 0 l 22 0 m 289 456 q 440 479 376 456 q 538 551 503 503 q 572 671 572 599 q 544 789 572 744 q 429 833 517 833 q 365 831 388 833 q 343 829 343 829 l 289 456 m 264 992 q 293 1032 264 992 q 378 1112 322 1072 q 513 1151 433 1151 q 635 1107 594 1151 q 676 1026 676 1063 q 655 994 676 1010 q 611 969 633 979 q 600 993 611 969 q 564 1040 589 1017 q 494 1064 539 1064 q 390 1039 436 1064 q 319 990 344 1014 q 293 965 293 965 l 264 992 z "},"S":{"ha":625,"x_min":13,"x_max":600,"o":"m 229 -15 q 97 8 161 -15 q 13 51 33 31 l 35 247 l 103 247 l 118 93 q 167 66 133 76 q 238 56 200 56 q 392 100 347 56 q 438 217 438 144 q 394 321 438 272 q 294 417 350 369 q 163 537 225 474 q 101 681 101 600 q 183 860 101 803 q 389 917 264 917 q 509 906 451 917 q 600 883 567 896 l 576 675 l 515 675 l 504 819 q 368 846 447 846 q 245 814 283 846 q 207 724 207 782 q 258 613 207 665 q 371 508 308 561 q 489 392 435 453 q 543 257 543 332 q 460 58 543 131 q 229 -15 378 -15 z "},"Ś":{"ha":625,"x_min":13,"x_max":600,"o":"m 229 -15 q 97 8 161 -15 q 13 51 33 31 l 35 247 l 103 247 l 118 93 q 146 74 118 93 q 238 56 174 56 q 392 100 347 56 q 438 217 438 144 q 393 323 438 274 q 292 419 349 372 q 163 538 224 475 q 101 681 101 600 q 183 860 101 803 q 389 917 264 917 q 509 906 451 917 q 600 883 567 896 l 576 675 l 515 675 l 504 819 q 465 833 504 819 q 368 846 425 846 q 245 814 283 846 q 207 724 207 782 q 260 610 207 664 q 378 501 314 557 q 492 390 440 449 q 543 257 543 331 q 460 58 543 131 q 229 -15 378 -15 m 311 944 l 281 993 l 514 1160 q 549 1130 536 1150 q 561 1090 561 1110 q 543 1049 561 1064 q 492 1019 525 1033 l 311 944 z "},"Ꞌ":{"ha":174,"x_min":47,"x_max":222,"o":"m 104 897 q 179 915 149 915 q 214 903 206 915 q 222 878 222 892 q 210 813 222 857 q 186 738 197 768 l 103 493 l 47 493 l 104 897 z "},"Š":{"ha":626,"x_min":13,"x_max":601,"o":"m 229 -15 q 97 8 161 -15 q 13 51 33 31 l 35 247 l 103 247 l 118 93 q 167 66 133 76 q 238 56 200 56 q 392 100 347 56 q 438 217 438 144 q 390 328 438 278 q 281 428 342 378 q 158 543 215 483 q 101 681 101 603 q 183 860 101 803 q 389 917 264 917 q 509 906 451 917 q 600 883 567 896 l 576 675 l 515 675 l 504 819 q 368 846 447 846 q 245 814 283 846 q 207 724 207 782 q 252 619 207 668 q 356 521 297 569 q 483 399 424 463 q 543 257 543 336 q 460 58 543 131 q 229 -15 378 -15 m 406 958 q 363 988 394 958 q 321 1026 331 1017 l 240 1108 l 289 1161 l 425 1065 l 567 1165 l 601 1119 l 511 1035 q 437 972 458 985 q 406 958 415 958 z "},"Ş":{"ha":625,"x_min":13,"x_max":600,"o":"m 211 -260 q 142 -247 171 -260 q 94 -219 113 -233 l 122 -179 q 153 -195 136 -189 q 206 -201 171 -201 q 267 -169 267 -201 q 235 -133 267 -151 l 163 -96 l 163 -68 l 201 -14 q 85 12 139 -10 q 13 51 31 33 l 35 247 l 103 247 l 118 93 q 146 74 118 93 q 238 56 174 56 q 392 100 347 56 q 438 217 438 144 q 397 316 438 269 q 304 408 357 363 q 167 533 233 468 q 101 681 101 597 q 183 860 101 803 q 389 917 264 917 q 509 906 451 917 q 600 883 567 896 l 576 675 l 515 675 l 504 819 q 465 833 504 819 q 368 846 425 846 q 245 814 283 846 q 207 724 207 782 q 266 604 207 660 q 392 492 325 549 q 497 383 450 440 q 543 257 543 326 q 472 68 543 139 q 269 -14 400 -3 l 269 -40 l 317 -69 q 349 -97 336 -81 q 361 -136 361 -114 q 310 -237 361 -214 q 211 -260 260 -260 z "},"Ŝ":{"ha":625,"x_min":13,"x_max":601,"o":"m 229 -15 q 97 8 161 -15 q 13 51 33 31 l 35 247 l 103 247 l 118 93 q 167 66 133 76 q 238 56 200 56 q 392 100 347 56 q 438 217 438 144 q 394 321 438 272 q 294 417 350 369 q 163 537 225 474 q 101 681 101 600 q 183 860 101 803 q 389 917 264 917 q 509 906 451 917 q 600 883 567 896 l 576 675 l 515 675 l 504 819 q 368 846 447 846 q 245 814 283 846 q 207 724 207 782 q 258 613 207 665 q 371 508 308 561 q 489 392 435 453 q 543 257 543 332 q 460 58 543 131 q 229 -15 378 -15 z "},"Ș":{"ha":625,"x_min":13,"x_max":600,"o":"m 229 -15 q 97 8 161 -15 q 13 51 33 31 l 35 247 l 103 247 l 118 93 q 146 74 118 93 q 238 56 174 56 q 392 100 347 56 q 438 217 438 144 q 396 319 438 272 q 299 413 354 367 q 166 535 231 471 q 101 681 101 599 q 183 860 101 803 q 389 917 264 917 q 509 906 451 917 q 600 883 567 896 l 576 675 l 515 675 l 504 819 q 465 833 504 819 q 368 846 425 846 q 245 814 283 846 q 207 724 207 782 q 262 609 207 663 q 381 500 317 556 q 492 388 442 446 q 543 257 543 329 q 460 58 543 131 q 229 -15 378 -15 m 168 -279 l 144 -256 q 170 -226 144 -256 q 196 -157 196 -197 q 184 -106 196 -125 q 163 -78 172 -87 q 183 -58 168 -69 q 224 -46 197 -46 q 273 -65 251 -46 q 294 -126 294 -83 q 267 -201 294 -168 q 210 -254 240 -233 q 168 -279 179 -275 z "},"Ṣ":{"ha":625,"x_min":13,"x_max":600,"o":"m 229 -15 q 97 8 161 -15 q 13 51 33 31 l 35 247 l 103 247 l 118 93 q 167 66 133 76 q 238 56 200 56 q 392 100 347 56 q 438 217 438 144 q 394 321 438 272 q 294 417 350 369 q 163 537 225 474 q 101 681 101 600 q 183 860 101 803 q 389 917 264 917 q 509 906 451 917 q 600 883 567 896 l 576 675 l 515 675 l 504 819 q 368 846 447 846 q 245 814 283 846 q 207 724 207 782 q 258 613 207 665 q 371 508 308 561 q 489 392 435 453 q 543 257 543 332 q 460 58 543 131 q 229 -15 378 -15 m 236 -231 q 185 -210 204 -231 q 165 -158 165 -189 q 185 -97 165 -126 q 249 -67 206 -67 q 301 -87 281 -67 q 321 -142 321 -107 q 300 -202 321 -174 q 236 -231 279 -231 z "},"ẞ":{"ha":940,"x_min":-37,"x_max":867,"o":"m 560 -15 q 428 8 492 -15 q 343 51 364 31 l 365 247 l 433 247 l 449 93 q 494 67 463 78 q 568 56 526 56 q 709 94 668 56 q 750 199 750 133 q 715 303 750 261 q 619 368 679 344 q 485 397 558 392 l 461 458 l 713 794 l 700 818 q 624 830 664 825 q 544 835 583 835 q 319 747 381 835 q 238 514 257 660 l 176 71 l 271 51 l 267 0 l -37 0 l -32 51 l 67 71 l 122 475 q 260 793 149 669 q 572 917 372 917 q 706 909 628 917 q 831 892 783 901 l 867 831 l 606 476 l 610 467 q 783 398 711 451 q 856 239 856 344 q 778 53 856 121 q 560 -15 700 -15 z "},"Ə":{"ha":856,"x_min":61,"x_max":794,"o":"m 358 -15 q 138 81 214 -15 q 61 344 61 176 q 65 423 61 383 q 76 500 69 463 l 668 500 q 668 522 668 511 q 668 544 668 533 q 612 775 668 704 q 417 846 556 846 q 299 825 339 846 q 258 804 258 804 l 215 669 l 157 669 l 176 858 q 281 897 214 876 q 442 917 349 917 q 705 822 615 917 q 794 558 794 728 q 748 281 794 413 q 605 67 701 150 q 358 -15 508 -15 m 397 56 q 588 157 526 56 q 663 424 649 258 l 185 424 q 183 402 183 414 q 183 379 183 390 q 228 133 183 211 q 397 56 274 56 z "},"T":{"ha":656,"x_min":47,"x_max":715,"o":"m 131 51 l 229 71 l 336 829 l 161 829 l 110 672 l 47 672 l 74 900 l 715 900 l 676 672 l 604 672 l 614 829 l 446 829 l 339 71 l 433 51 l 429 0 l 125 0 l 131 51 z "},"Ŧ":{"ha":656,"x_min":47,"x_max":715,"o":"m 49 432 l 60 504 l 643 504 l 632 432 l 49 432 m 131 51 l 229 71 l 336 829 l 161 829 l 110 672 l 47 672 l 74 900 l 715 900 l 676 672 l 604 672 l 614 829 l 446 829 l 339 71 l 433 51 l 429 0 l 125 0 l 131 51 z "},"Ť":{"ha":656,"x_min":47,"x_max":715,"o":"m 125 0 l 131 51 l 229 71 l 336 829 l 161 829 l 110 672 l 47 672 l 74 900 l 715 900 l 676 672 l 604 672 l 614 829 l 446 829 l 339 71 l 433 51 l 429 0 l 125 0 m 406 957 q 363 985 394 957 q 321 1025 331 1014 l 240 1107 l 289 1160 l 425 1064 l 567 1164 l 601 1118 l 511 1033 q 437 970 458 983 q 406 957 415 957 z "},"Ţ":{"ha":656,"x_min":47,"x_max":715,"o":"m 151 -179 q 183 -195 167 -189 q 235 -201 200 -201 q 296 -169 296 -201 q 264 -133 296 -151 l 192 -96 l 192 -68 l 242 0 l 125 0 l 131 51 l 229 71 l 336 829 l 161 829 l 110 672 l 47 672 l 74 900 l 715 900 l 676 672 l 604 672 l 614 829 l 446 829 l 339 71 l 433 51 l 429 0 l 299 0 l 299 -40 l 346 -69 q 377 -97 364 -81 q 390 -136 390 -114 q 340 -237 390 -214 q 240 -260 289 -260 q 171 -247 200 -260 q 124 -219 142 -233 l 151 -179 z "},"Ț":{"ha":656,"x_min":47,"x_max":715,"o":"m 131 51 l 229 71 l 336 829 l 161 829 l 110 672 l 47 672 l 74 900 l 715 900 l 676 672 l 604 672 l 614 829 l 446 829 l 339 71 l 433 51 l 429 0 l 125 0 l 131 51 m 176 -256 q 202 -226 176 -256 q 228 -157 228 -197 q 217 -106 228 -125 q 194 -78 206 -87 q 214 -58 200 -69 q 256 -46 228 -46 q 305 -65 283 -46 q 326 -126 326 -83 q 299 -201 326 -168 q 242 -254 272 -233 q 200 -279 211 -275 l 176 -256 z "},"Ṭ":{"ha":656,"x_min":47,"x_max":715,"o":"m 131 51 l 229 71 l 336 829 l 161 829 l 110 672 l 47 672 l 74 900 l 715 900 l 676 672 l 604 672 l 614 829 l 446 829 l 339 71 l 433 51 l 429 0 l 125 0 l 131 51 m 251 -231 q 200 -210 219 -231 q 181 -158 181 -189 q 201 -97 181 -126 q 264 -67 221 -67 q 316 -87 296 -67 q 336 -142 336 -107 q 315 -202 336 -174 q 251 -231 294 -231 z "},"U":{"ha":858,"x_min":82,"x_max":900,"o":"m 175 829 l 82 849 l 88 900 l 392 900 l 386 849 l 285 829 l 222 386 q 213 253 213 313 q 251 110 213 156 q 408 64 289 64 q 575 149 524 64 q 647 386 626 233 l 708 828 l 615 849 l 621 900 l 900 900 l 894 849 l 793 828 l 733 388 q 625 87 706 189 q 351 -15 544 -15 q 163 51 225 -15 q 100 231 100 118 q 113 388 100 303 l 175 829 z "},"Ú":{"ha":847,"x_min":82,"x_max":900,"o":"m 351 -15 q 163 51 225 -15 q 100 231 100 118 q 113 388 100 303 l 175 829 l 82 849 l 88 900 l 392 900 l 386 849 l 285 829 l 222 386 q 213 253 213 313 q 251 110 213 156 q 408 64 289 64 q 575 149 524 64 q 647 386 626 233 l 708 828 l 615 849 l 621 900 l 900 900 l 894 849 l 793 828 l 733 388 q 625 87 706 189 q 351 -15 544 -15 m 428 960 l 397 1008 l 631 1175 q 665 1144 653 1164 q 678 1106 678 1125 q 660 1064 678 1079 q 608 1035 642 1049 l 428 960 z "},"Ŭ":{"ha":858,"x_min":82,"x_max":900,"o":"m 175 829 l 82 849 l 88 900 l 392 900 l 386 849 l 285 829 l 222 386 q 213 253 213 313 q 251 110 213 156 q 408 64 289 64 q 575 149 524 64 q 647 386 626 233 l 708 828 l 615 849 l 621 900 l 900 900 l 894 849 l 793 828 l 733 388 q 625 87 706 189 q 351 -15 544 -15 q 163 51 225 -15 q 100 231 100 118 q 113 388 100 303 l 175 829 z "},"Ǔ":{"ha":858,"x_min":82,"x_max":900,"o":"m 175 829 l 82 849 l 88 900 l 392 900 l 386 849 l 285 829 l 222 386 q 213 253 213 313 q 251 110 213 156 q 408 64 289 64 q 575 149 524 64 q 647 386 626 233 l 708 828 l 615 849 l 621 900 l 900 900 l 894 849 l 793 828 l 733 388 q 625 87 706 189 q 351 -15 544 -15 q 163 51 225 -15 q 100 231 100 118 q 113 388 100 303 l 175 829 z "},"Û":{"ha":847,"x_min":82,"x_max":900,"o":"m 175 829 l 82 849 l 88 900 l 392 900 l 386 849 l 285 829 l 222 386 q 213 253 213 313 q 251 110 213 156 q 408 64 289 64 q 575 149 524 64 q 647 386 626 233 l 708 828 l 615 849 l 621 900 l 900 900 l 894 849 l 793 828 l 733 388 q 625 87 706 189 q 351 -15 544 -15 q 163 51 225 -15 q 100 231 100 118 q 113 388 100 303 l 175 829 m 318 1025 l 417 1099 q 494 1157 475 1142 q 522 1172 513 1172 q 567 1142 533 1171 q 613 1104 601 1114 l 696 1028 l 650 971 l 503 1064 l 353 979 l 318 1025 z "},"Ȕ":{"ha":858,"x_min":82,"x_max":900,"o":"m 175 829 l 82 849 l 88 900 l 392 900 l 386 849 l 285 829 l 222 386 q 213 253 213 313 q 251 110 213 156 q 408 64 289 64 q 575 149 524 64 q 647 386 626 233 l 708 828 l 615 849 l 621 900 l 900 900 l 894 849 l 793 828 l 733 388 q 625 87 706 189 q 351 -15 544 -15 q 163 51 225 -15 q 100 231 100 118 q 113 388 100 303 l 175 829 m 611 940 l 540 1013 q 511 1051 526 1028 q 496 1093 496 1074 q 523 1137 496 1118 q 582 1161 550 1156 l 660 974 l 611 940 m 399 940 l 328 1013 q 299 1051 314 1028 q 283 1093 283 1074 q 310 1137 283 1118 q 369 1161 338 1156 l 447 974 l 399 940 z "},"Ü":{"ha":847,"x_min":82,"x_max":900,"o":"m 175 829 l 82 849 l 88 900 l 392 900 l 386 849 l 285 829 l 222 386 q 213 253 213 313 q 251 110 213 156 q 408 64 289 64 q 575 149 524 64 q 647 386 626 233 l 708 828 l 615 849 l 621 900 l 900 900 l 894 849 l 793 828 l 733 388 q 625 87 706 189 q 351 -15 544 -15 q 163 51 225 -15 q 100 231 100 118 q 113 388 100 303 l 175 829 m 369 976 q 318 998 338 976 q 299 1054 299 1019 q 319 1113 299 1088 q 375 1138 340 1138 q 426 1117 407 1138 q 446 1063 446 1097 q 426 1002 446 1028 q 369 976 406 976 m 663 976 q 611 998 631 976 q 592 1054 592 1019 q 613 1113 592 1088 q 668 1138 633 1138 q 719 1117 700 1138 q 739 1063 739 1097 q 719 1002 739 1028 q 663 976 699 976 z "},"Ǘ":{"ha":858,"x_min":82,"x_max":900,"o":"m 175 829 l 82 849 l 88 900 l 392 900 l 386 849 l 285 829 l 222 386 q 213 253 213 313 q 251 110 213 156 q 408 64 289 64 q 575 149 524 64 q 647 386 626 233 l 708 828 l 615 849 l 621 900 l 900 900 l 894 849 l 793 828 l 733 388 q 625 87 706 189 q 351 -15 544 -15 q 163 51 225 -15 q 100 231 100 118 q 113 388 100 303 l 175 829 z "},"Ǚ":{"ha":858,"x_min":82,"x_max":900,"o":"m 175 829 l 82 849 l 88 900 l 392 900 l 386 849 l 285 829 l 222 386 q 213 253 213 313 q 251 110 213 156 q 408 64 289 64 q 575 149 524 64 q 647 386 626 233 l 708 828 l 615 849 l 621 900 l 900 900 l 894 849 l 793 828 l 733 388 q 625 87 706 189 q 351 -15 544 -15 q 163 51 225 -15 q 100 231 100 118 q 113 388 100 303 l 175 829 z "},"Ǜ":{"ha":858,"x_min":82,"x_max":900,"o":"m 175 829 l 82 849 l 88 900 l 392 900 l 386 849 l 285 829 l 222 386 q 213 253 213 313 q 251 110 213 156 q 408 64 289 64 q 575 149 524 64 q 647 386 626 233 l 708 828 l 615 849 l 621 900 l 900 900 l 894 849 l 793 828 l 733 388 q 625 87 706 189 q 351 -15 544 -15 q 163 51 225 -15 q 100 231 100 118 q 113 388 100 303 l 175 829 z "},"Ǖ":{"ha":858,"x_min":82,"x_max":900,"o":"m 175 829 l 82 849 l 88 900 l 392 900 l 386 849 l 285 829 l 222 386 q 213 253 213 313 q 251 110 213 156 q 408 64 289 64 q 575 149 524 64 q 647 386 626 233 l 708 828 l 615 849 l 621 900 l 900 900 l 894 849 l 793 828 l 733 388 q 625 87 706 189 q 351 -15 544 -15 q 163 51 225 -15 q 100 231 100 118 q 113 388 100 303 l 175 829 z "},"Ụ":{"ha":858,"x_min":82,"x_max":900,"o":"m 175 829 l 82 849 l 88 900 l 392 900 l 386 849 l 285 829 l 222 386 q 213 253 213 313 q 251 110 213 156 q 408 64 289 64 q 575 149 524 64 q 647 386 626 233 l 708 828 l 615 849 l 621 900 l 900 900 l 894 849 l 793 828 l 733 388 q 625 87 706 189 q 351 -15 544 -15 q 163 51 225 -15 q 100 231 100 118 q 113 388 100 303 l 175 829 m 353 -231 q 301 -210 321 -231 q 282 -158 282 -189 q 302 -97 282 -126 q 365 -67 322 -67 q 417 -87 397 -67 q 438 -142 438 -107 q 417 -202 438 -174 q 353 -231 396 -231 z "},"Ù":{"ha":847,"x_min":82,"x_max":900,"o":"m 175 829 l 82 849 l 88 900 l 392 900 l 386 849 l 285 829 l 222 386 q 213 253 213 313 q 251 110 213 156 q 408 64 289 64 q 575 149 524 64 q 647 386 626 233 l 708 828 l 615 849 l 621 900 l 900 900 l 894 849 l 793 828 l 733 388 q 625 87 706 189 q 351 -15 544 -15 q 163 51 225 -15 q 100 231 100 118 q 113 388 100 303 l 175 829 m 390 1035 q 339 1064 357 1049 q 321 1106 321 1079 q 333 1144 321 1125 q 368 1175 346 1164 l 601 1008 l 571 960 l 390 1035 z "},"Ủ":{"ha":858,"x_min":82,"x_max":900,"o":"m 175 829 l 82 849 l 88 900 l 392 900 l 386 849 l 285 829 l 222 386 q 213 253 213 313 q 251 110 213 156 q 408 64 289 64 q 575 149 524 64 q 647 386 626 233 l 708 828 l 615 849 l 621 900 l 900 900 l 894 849 l 793 828 l 733 388 q 625 87 706 189 q 351 -15 544 -15 q 163 51 225 -15 q 100 231 100 118 q 113 388 100 303 l 175 829 m 479 940 q 475 961 475 950 q 489 991 475 978 q 535 1015 503 1004 q 590 1065 590 1036 q 526 1090 590 1090 q 438 1079 485 1090 q 431 1101 432 1090 q 429 1118 429 1111 q 447 1149 429 1133 q 519 1165 464 1165 q 642 1144 597 1165 q 688 1079 688 1122 q 662 1017 688 1043 q 592 976 636 990 q 558 959 564 968 q 550 940 551 950 l 479 940 z "},"Ư":{"ha":858,"x_min":82,"x_max":978,"o":"m 978 992 q 942 906 978 961 q 792 815 906 851 l 733 388 q 625 87 706 189 q 351 -15 544 -15 q 163 51 225 -15 q 100 231 100 118 q 113 388 100 303 l 175 829 l 82 849 l 88 900 l 392 900 l 386 849 l 285 829 l 222 386 q 213 253 213 313 q 251 110 213 156 q 408 64 289 64 q 575 149 524 64 q 647 386 626 233 l 708 828 l 615 849 l 621 900 l 799 900 q 886 956 886 900 q 857 1003 886 982 l 857 1024 l 933 1078 q 963 1051 947 1067 q 978 992 978 1035 z "},"Ứ":{"ha":858,"x_min":82,"x_max":978,"o":"m 978 992 q 942 906 978 961 q 792 815 906 851 l 733 388 q 625 87 706 189 q 351 -15 544 -15 q 163 51 225 -15 q 100 231 100 118 q 113 388 100 303 l 175 829 l 82 849 l 88 900 l 392 900 l 386 849 l 285 829 l 222 386 q 213 253 213 313 q 251 110 213 156 q 408 64 289 64 q 575 149 524 64 q 647 386 626 233 l 708 828 l 615 849 l 621 900 l 799 900 q 886 956 886 900 q 857 1003 886 982 l 857 1024 l 933 1078 q 963 1051 947 1067 q 978 992 978 1035 z "},"Ự":{"ha":858,"x_min":82,"x_max":978,"o":"m 978 992 q 942 906 978 961 q 792 815 906 851 l 733 388 q 625 87 706 189 q 351 -15 544 -15 q 163 51 225 -15 q 100 231 100 118 q 113 388 100 303 l 175 829 l 82 849 l 88 900 l 392 900 l 386 849 l 285 829 l 222 386 q 213 253 213 313 q 251 110 213 156 q 408 64 289 64 q 575 149 524 64 q 647 386 626 233 l 708 828 l 615 849 l 621 900 l 799 900 q 886 956 886 900 q 857 1003 886 982 l 857 1024 l 933 1078 q 963 1051 947 1067 q 978 992 978 1035 m 353 -231 q 301 -210 321 -231 q 282 -158 282 -189 q 302 -97 282 -126 q 365 -67 322 -67 q 417 -87 397 -67 q 438 -142 438 -107 q 417 -202 438 -174 q 353 -231 396 -231 z "},"Ừ":{"ha":858,"x_min":82,"x_max":978,"o":"m 978 992 q 942 906 978 961 q 792 815 906 851 l 733 388 q 625 87 706 189 q 351 -15 544 -15 q 163 51 225 -15 q 100 231 100 118 q 113 388 100 303 l 175 829 l 82 849 l 88 900 l 392 900 l 386 849 l 285 829 l 222 386 q 213 253 213 313 q 251 110 213 156 q 408 64 289 64 q 575 149 524 64 q 647 386 626 233 l 708 828 l 615 849 l 621 900 l 799 900 q 886 956 886 900 q 857 1003 886 982 l 857 1024 l 933 1078 q 963 1051 947 1067 q 978 992 978 1035 z "},"Ử":{"ha":858,"x_min":82,"x_max":978,"o":"m 978 992 q 942 906 978 961 q 792 815 906 851 l 733 388 q 625 87 706 189 q 351 -15 544 -15 q 163 51 225 -15 q 100 231 100 118 q 113 388 100 303 l 175 829 l 82 849 l 88 900 l 392 900 l 386 849 l 285 829 l 222 386 q 213 253 213 313 q 251 110 213 156 q 408 64 289 64 q 575 149 524 64 q 647 386 626 233 l 708 828 l 615 849 l 621 900 l 799 900 q 886 956 886 900 q 857 1003 886 982 l 857 1024 l 933 1078 q 963 1051 947 1067 q 978 992 978 1035 m 479 940 q 475 961 475 950 q 489 991 475 978 q 535 1015 503 1004 q 590 1065 590 1036 q 526 1090 590 1090 q 438 1079 485 1090 q 431 1101 432 1090 q 429 1118 429 1111 q 447 1149 429 1133 q 519 1165 464 1165 q 642 1144 597 1165 q 688 1079 688 1122 q 662 1017 688 1043 q 592 976 636 990 q 558 959 564 968 q 550 940 551 950 l 479 940 z "},"Ữ":{"ha":858,"x_min":82,"x_max":978,"o":"m 978 992 q 942 906 978 961 q 792 815 906 851 l 733 388 q 625 87 706 189 q 351 -15 544 -15 q 163 51 225 -15 q 100 231 100 118 q 113 388 100 303 l 175 829 l 82 849 l 88 900 l 392 900 l 386 849 l 285 829 l 222 386 q 213 253 213 313 q 251 110 213 156 q 408 64 289 64 q 575 149 524 64 q 647 386 626 233 l 708 828 l 615 849 l 621 900 l 799 900 q 886 956 886 900 q 857 1003 886 982 l 857 1024 l 933 1078 q 963 1051 947 1067 q 978 992 978 1035 z "},"Ű":{"ha":847,"x_min":82,"x_max":900,"o":"m 351 -15 q 163 51 225 -15 q 100 231 100 118 q 113 388 100 303 l 175 829 l 82 849 l 88 900 l 392 900 l 386 849 l 285 829 l 222 386 q 213 253 213 313 q 251 110 213 156 q 408 64 289 64 q 575 149 524 64 q 647 386 626 233 l 708 828 l 615 849 l 621 900 l 900 900 l 894 849 l 793 828 l 733 388 q 625 87 706 189 q 351 -15 544 -15 m 369 940 l 331 974 l 460 1161 q 514 1136 500 1154 q 528 1100 528 1118 q 501 1053 526 1079 q 460 1013 476 1026 l 369 940 m 582 940 l 543 974 l 672 1161 q 726 1136 711 1154 q 740 1100 740 1118 q 714 1053 739 1079 q 672 1013 689 1026 l 582 940 z "},"Ȗ":{"ha":858,"x_min":82,"x_max":900,"o":"m 175 829 l 82 849 l 88 900 l 392 900 l 386 849 l 285 829 l 222 386 q 213 253 213 313 q 251 110 213 156 q 408 64 289 64 q 575 149 524 64 q 647 386 626 233 l 708 828 l 615 849 l 621 900 l 900 900 l 894 849 l 793 828 l 733 388 q 625 87 706 189 q 351 -15 544 -15 q 163 51 225 -15 q 100 231 100 118 q 113 388 100 303 l 175 829 m 324 992 q 353 1032 324 992 q 438 1112 382 1072 q 572 1151 493 1151 q 695 1107 654 1151 q 736 1026 736 1063 q 715 994 736 1010 q 671 969 693 979 q 660 993 671 969 q 624 1040 649 1017 q 554 1064 599 1064 q 450 1039 496 1064 q 378 990 404 1014 q 353 965 353 965 l 324 992 z "},"Ū":{"ha":847,"x_min":82,"x_max":900,"o":"m 175 829 l 82 849 l 88 900 l 392 900 l 386 849 l 285 829 l 222 386 q 213 253 213 313 q 251 110 213 156 q 408 64 289 64 q 575 149 524 64 q 647 386 626 233 l 708 828 l 615 849 l 621 900 l 900 900 l 894 849 l 793 828 l 733 388 q 625 87 706 189 q 351 -15 544 -15 q 163 51 225 -15 q 100 231 100 118 q 113 388 100 303 l 175 829 m 329 1086 l 721 1086 l 708 999 l 318 999 l 329 1086 z "},"Ų":{"ha":847,"x_min":82,"x_max":900,"o":"m 432 -246 q 358 -228 389 -246 q 328 -158 328 -210 q 349 -81 328 -117 q 407 -17 369 -44 l 406 -12 q 378 -15 392 -14 q 351 -15 365 -15 q 163 51 225 -15 q 100 231 100 118 q 113 388 100 303 l 175 829 l 82 849 l 88 900 l 392 900 l 386 849 l 285 829 l 222 386 q 213 253 213 313 q 251 110 213 156 q 408 64 289 64 q 575 149 524 64 q 647 386 626 233 l 708 828 l 615 849 l 621 900 l 900 900 l 894 849 l 793 828 l 733 388 q 660 136 713 233 q 499 4 608 39 q 447 -42 475 -11 q 419 -119 419 -74 q 476 -175 419 -175 q 530 -161 504 -175 q 556 -147 556 -147 l 578 -181 q 537 -213 578 -181 q 432 -246 496 -246 z "},"Ů":{"ha":847,"x_min":82,"x_max":900,"o":"m 351 -15 q 163 51 225 -15 q 100 231 100 118 q 113 388 100 303 l 175 829 l 82 849 l 88 900 l 392 900 l 386 849 l 285 829 l 222 386 q 213 253 213 313 q 251 110 213 156 q 408 64 289 64 q 575 149 524 64 q 647 386 626 233 l 708 828 l 615 849 l 621 900 l 900 900 l 894 849 l 793 828 l 733 388 q 625 87 706 189 q 351 -15 544 -15 m 513 919 q 428 944 457 919 q 399 1013 399 969 q 434 1111 399 1068 q 533 1154 469 1154 q 618 1130 589 1154 q 647 1063 647 1106 q 613 963 647 1007 q 513 919 578 919 m 525 981 q 564 999 553 981 q 575 1051 575 1018 q 521 1093 575 1093 q 481 1076 492 1093 q 469 1025 469 1058 q 525 981 469 981 z "},"Ũ":{"ha":858,"x_min":82,"x_max":900,"o":"m 175 829 l 82 849 l 88 900 l 392 900 l 386 849 l 285 829 l 222 386 q 213 253 213 313 q 251 110 213 156 q 408 64 289 64 q 575 149 524 64 q 647 386 626 233 l 708 828 l 615 849 l 621 900 l 900 900 l 894 849 l 793 828 l 733 388 q 625 87 706 189 q 351 -15 544 -15 q 163 51 225 -15 q 100 231 100 118 q 113 388 100 303 l 175 829 z "},"V":{"ha":694,"x_min":33,"x_max":779,"o":"m 264 -12 l 107 832 l 33 849 l 39 900 l 331 900 l 325 849 l 224 828 l 224 796 l 328 217 l 336 171 l 338 175 l 354 213 l 614 804 l 614 828 l 513 849 l 519 900 l 779 900 l 772 849 l 701 828 l 322 -12 l 264 -12 z "},"W":{"ha":1028,"x_min":15,"x_max":1126,"o":"m 201 -11 l 90 832 l 15 849 l 21 900 l 314 900 l 308 849 l 207 828 l 207 796 l 269 200 l 275 154 l 278 160 l 296 200 l 522 715 l 501 832 l 426 849 l 432 900 l 725 900 l 719 849 l 618 828 l 618 796 l 704 214 l 713 154 l 715 161 l 735 211 l 961 804 l 961 828 l 860 849 l 867 900 l 1126 900 l 1119 849 l 1049 828 l 701 -11 l 640 -11 l 544 597 l 263 -11 l 201 -11 z "},"Ẃ":{"ha":1028,"x_min":15,"x_max":1126,"o":"m 201 -11 l 90 832 l 15 849 l 21 900 l 314 900 l 308 849 l 207 828 l 207 796 l 269 200 l 275 154 l 278 160 l 296 200 l 522 715 l 501 832 l 426 849 l 432 900 l 725 900 l 719 849 l 618 828 l 618 796 l 704 214 l 713 154 l 715 161 l 735 211 l 961 804 l 961 828 l 860 849 l 867 900 l 1126 900 l 1119 849 l 1049 828 l 701 -11 l 640 -11 l 544 597 l 263 -11 l 201 -11 z "},"Ŵ":{"ha":1028,"x_min":15,"x_max":1126,"o":"m 201 -11 l 90 832 l 15 849 l 21 900 l 314 900 l 308 849 l 207 828 l 207 796 l 269 200 l 275 154 l 278 160 l 296 200 l 522 715 l 501 832 l 426 849 l 432 900 l 725 900 l 719 849 l 618 828 l 618 796 l 704 214 l 713 154 l 715 161 l 735 211 l 961 804 l 961 828 l 860 849 l 867 900 l 1126 900 l 1119 849 l 1049 828 l 701 -11 l 640 -11 l 544 597 l 263 -11 l 201 -11 z "},"Ẅ":{"ha":1028,"x_min":15,"x_max":1126,"o":"m 201 -11 l 90 832 l 15 849 l 21 900 l 314 900 l 308 849 l 207 828 l 207 796 l 269 200 l 275 154 l 278 160 l 296 200 l 522 715 l 501 832 l 426 849 l 432 900 l 725 900 l 719 849 l 618 828 l 618 796 l 704 214 l 713 154 l 715 161 l 735 211 l 961 804 l 961 828 l 860 849 l 867 900 l 1126 900 l 1119 849 l 1049 828 l 701 -11 l 640 -11 l 544 597 l 263 -11 l 201 -11 z "},"Ẁ":{"ha":1028,"x_min":15,"x_max":1126,"o":"m 201 -11 l 90 832 l 15 849 l 21 900 l 314 900 l 308 849 l 207 828 l 207 796 l 269 200 l 275 154 l 278 160 l 296 200 l 522 715 l 501 832 l 426 849 l 432 900 l 725 900 l 719 849 l 618 828 l 618 796 l 704 214 l 713 154 l 715 161 l 735 211 l 961 804 l 961 828 l 860 849 l 867 900 l 1126 900 l 1119 849 l 1049 828 l 701 -11 l 640 -11 l 544 597 l 263 -11 l 201 -11 z "},"X":{"ha":722,"x_min":-71,"x_max":767,"o":"m -64 51 l 14 71 l 308 451 l 138 831 l 63 849 l 68 900 l 382 900 l 376 849 l 275 828 l 275 806 l 389 549 l 593 813 l 593 829 l 500 849 l 507 900 l 767 900 l 760 849 l 693 829 l 419 479 l 603 68 l 683 51 l 679 0 l 374 0 l 378 51 l 467 72 l 467 104 l 340 381 l 114 88 l 113 71 l 206 51 l 200 0 l -71 0 l -64 51 z "},"Y":{"ha":667,"x_min":35,"x_max":743,"o":"m 150 51 l 251 71 l 288 329 l 110 832 l 35 849 l 40 900 l 336 900 l 331 849 l 229 828 l 229 796 l 364 407 l 379 407 l 578 804 l 578 828 l 476 849 l 483 900 l 743 900 l 736 849 l 665 828 l 394 322 l 360 71 l 454 51 l 450 0 l 146 0 l 150 51 z "},"Ý":{"ha":667,"x_min":28,"x_max":736,"o":"m 139 0 l 143 51 l 244 71 l 281 329 l 103 832 l 28 849 l 33 900 l 326 900 l 321 849 l 219 828 l 219 796 l 350 407 l 365 407 l 571 804 l 571 828 l 469 849 l 476 900 l 736 900 l 729 849 l 658 828 l 390 336 l 353 71 l 447 51 l 443 0 l 139 0 m 333 960 l 303 1008 l 536 1175 q 571 1144 558 1164 q 583 1106 583 1125 q 565 1064 583 1079 q 514 1035 547 1049 l 333 960 z "},"Ŷ":{"ha":667,"x_min":35,"x_max":743,"o":"m 150 51 l 251 71 l 288 329 l 110 832 l 35 849 l 40 900 l 336 900 l 331 849 l 229 828 l 229 796 l 364 407 l 379 407 l 578 804 l 578 828 l 476 849 l 483 900 l 743 900 l 736 849 l 665 828 l 394 322 l 360 71 l 454 51 l 450 0 l 146 0 l 150 51 z "},"Ÿ":{"ha":667,"x_min":28,"x_max":736,"o":"m 143 51 l 244 71 l 281 329 l 103 832 l 28 849 l 33 900 l 326 900 l 321 849 l 219 828 l 219 796 l 350 407 l 365 407 l 571 804 l 571 828 l 469 849 l 476 900 l 736 900 l 729 849 l 658 828 l 390 336 l 353 71 l 447 51 l 443 0 l 139 0 l 143 51 m 275 976 q 224 998 243 976 q 204 1054 204 1019 q 225 1113 204 1088 q 281 1138 246 1138 q 332 1117 313 1138 q 351 1063 351 1097 q 331 1002 351 1028 q 275 976 311 976 m 568 976 q 517 998 536 976 q 497 1054 497 1019 q 518 1113 497 1088 q 574 1138 539 1138 q 625 1117 606 1138 q 644 1063 644 1097 q 624 1002 644 1028 q 568 976 604 976 z "},"Ỵ":{"ha":667,"x_min":35,"x_max":743,"o":"m 150 51 l 251 71 l 288 329 l 110 832 l 35 849 l 40 900 l 336 900 l 331 849 l 229 828 l 229 796 l 364 407 l 379 407 l 578 804 l 578 828 l 476 849 l 483 900 l 743 900 l 736 849 l 665 828 l 394 322 l 360 71 l 454 51 l 450 0 l 146 0 l 150 51 m 268 -231 q 217 -210 236 -231 q 197 -158 197 -189 q 217 -97 197 -126 q 281 -67 238 -67 q 333 -87 313 -67 q 353 -142 353 -107 q 332 -202 353 -174 q 268 -231 311 -231 z "},"Ỳ":{"ha":667,"x_min":35,"x_max":743,"o":"m 150 51 l 251 71 l 288 329 l 110 832 l 35 849 l 40 900 l 336 900 l 331 849 l 229 828 l 229 796 l 364 407 l 379 407 l 578 804 l 578 828 l 476 849 l 483 900 l 743 900 l 736 849 l 665 828 l 394 322 l 360 71 l 454 51 l 450 0 l 146 0 l 150 51 z "},"Ỷ":{"ha":667,"x_min":35,"x_max":743,"o":"m 150 51 l 251 71 l 288 329 l 110 832 l 35 849 l 40 900 l 336 900 l 331 849 l 229 828 l 229 796 l 364 407 l 379 407 l 578 804 l 578 828 l 476 849 l 483 900 l 743 900 l 736 849 l 665 828 l 394 322 l 360 71 l 454 51 l 450 0 l 146 0 l 150 51 m 382 940 q 378 961 378 950 q 392 991 378 978 q 438 1015 406 1004 q 493 1065 493 1036 q 429 1090 493 1090 q 340 1079 388 1090 q 333 1101 335 1090 q 332 1118 332 1111 q 349 1149 332 1133 q 422 1165 367 1165 q 545 1144 500 1165 q 590 1079 590 1122 q 565 1017 590 1043 q 494 976 539 990 q 460 959 467 968 q 453 940 454 950 l 382 940 z "},"Ȳ":{"ha":667,"x_min":35,"x_max":743,"o":"m 150 51 l 251 71 l 288 329 l 110 832 l 35 849 l 40 900 l 336 900 l 331 849 l 229 828 l 229 796 l 364 407 l 379 407 l 578 804 l 578 828 l 476 849 l 483 900 l 743 900 l 736 849 l 665 828 l 394 322 l 360 71 l 454 51 l 450 0 l 146 0 l 150 51 z "},"Ỹ":{"ha":667,"x_min":35,"x_max":743,"o":"m 150 51 l 251 71 l 288 329 l 110 832 l 35 849 l 40 900 l 336 900 l 331 849 l 229 828 l 229 796 l 364 407 l 379 407 l 578 804 l 578 828 l 476 849 l 483 900 l 743 900 l 736 849 l 665 828 l 394 322 l 360 71 l 454 51 l 450 0 l 146 0 l 150 51 z "},"Z":{"ha":681,"x_min":-12,"x_max":692,"o":"m -12 61 l 538 803 l 521 833 l 204 833 l 147 689 l 86 689 l 117 900 l 656 900 l 692 839 l 132 79 l 139 63 l 497 63 l 554 207 l 615 207 l 588 0 l 11 0 l -12 61 z "},"Ź":{"ha":681,"x_min":-18,"x_max":686,"o":"m 6 0 l -18 61 l 532 803 l 515 833 l 199 833 l 142 689 l 81 689 l 111 900 l 650 900 l 686 839 l 126 79 l 133 63 l 492 63 l 549 207 l 610 207 l 582 0 l 6 0 m 328 946 l 297 994 l 531 1161 q 565 1131 553 1150 q 578 1092 578 1111 q 560 1050 578 1065 q 508 1021 542 1035 l 328 946 z "},"Ž":{"ha":681,"x_min":-18,"x_max":686,"o":"m 6 0 l -18 61 l 532 803 l 515 833 l 199 833 l 142 689 l 81 689 l 111 900 l 650 900 l 686 839 l 126 79 l 133 63 l 492 63 l 549 207 l 610 207 l 582 0 l 6 0 m 418 957 q 376 985 407 957 q 333 1025 344 1014 l 253 1107 l 301 1160 l 438 1064 l 579 1164 l 614 1118 l 524 1033 q 449 970 471 983 q 418 957 428 957 z "},"Ż":{"ha":681,"x_min":-18,"x_max":686,"o":"m -18 61 l 532 803 l 515 833 l 199 833 l 142 689 l 81 689 l 111 900 l 650 900 l 686 839 l 126 79 l 133 63 l 492 63 l 549 207 l 610 207 l 582 0 l 6 0 l -18 61 m 392 971 q 340 992 360 971 q 321 1043 321 1013 q 341 1105 321 1075 q 404 1135 361 1135 q 456 1115 436 1135 q 476 1060 476 1094 q 456 999 476 1028 q 392 971 435 971 z "},"Ẓ":{"ha":681,"x_min":-12,"x_max":692,"o":"m -12 61 l 538 803 l 521 833 l 204 833 l 147 689 l 86 689 l 117 900 l 656 900 l 692 839 l 132 79 l 139 63 l 497 63 l 554 207 l 615 207 l 588 0 l 11 0 l -12 61 m 264 -231 q 213 -210 232 -231 q 193 -158 193 -189 q 213 -97 193 -126 q 276 -67 233 -67 q 328 -87 308 -67 q 349 -142 349 -107 q 328 -202 349 -174 q 264 -231 307 -231 z "},"a":{"ha":686,"x_min":56,"x_max":617,"o":"m 426 147 q 339 39 394 90 q 219 -12 283 -12 q 93 47 131 -12 q 56 208 56 107 q 73 342 56 258 q 128 511 90 426 q 224 654 165 596 q 368 713 283 713 q 468 694 419 713 q 526 669 517 675 l 561 718 l 614 718 l 515 92 l 617 92 l 617 38 q 574 16 617 38 q 483 -6 532 -6 q 419 15 433 -6 q 406 64 406 36 q 431 144 406 92 l 426 147 m 490 569 q 410 611 456 593 q 315 629 365 629 q 269 613 282 629 q 199 451 226 553 q 171 238 171 349 q 186 113 171 157 q 253 69 201 69 q 351 120 301 69 q 429 214 400 171 l 490 569 z "},"á":{"ha":690,"x_min":56,"x_max":617,"o":"m 219 -12 q 93 47 131 -12 q 56 208 56 107 q 73 342 56 258 q 128 511 90 426 q 224 654 165 596 q 368 713 283 713 q 467 694 419 713 q 526 669 515 675 l 561 718 l 614 718 l 515 92 l 617 92 l 617 38 q 574 16 617 38 q 483 -6 532 -6 q 419 15 433 -6 q 406 64 406 36 q 431 144 406 92 l 426 147 q 339 39 394 90 q 219 -12 283 -12 m 253 69 q 351 120 301 69 q 429 214 400 171 l 490 569 q 410 611 456 593 q 315 629 365 629 q 269 613 282 629 q 199 451 226 553 q 171 238 171 349 q 186 113 171 157 q 253 69 201 69 m 365 776 l 329 821 l 522 1018 q 569 985 558 1006 q 581 946 581 964 q 554 902 581 924 q 506 867 528 881 l 365 776 z "},"ă":{"ha":690,"x_min":56,"x_max":621,"o":"m 219 -12 q 93 47 131 -12 q 56 208 56 107 q 73 342 56 258 q 128 511 90 426 q 224 654 165 596 q 368 713 283 713 q 467 694 419 713 q 526 669 515 675 l 561 718 l 614 718 l 515 92 l 617 92 l 617 38 q 574 16 617 38 q 483 -6 532 -6 q 419 15 433 -6 q 406 64 406 36 q 431 144 406 92 l 426 147 q 339 39 394 90 q 219 -12 283 -12 m 253 69 q 351 120 301 69 q 429 214 400 171 l 490 569 q 410 611 456 593 q 315 629 365 629 q 269 613 282 629 q 199 451 226 553 q 171 238 171 349 q 186 113 171 157 q 253 69 201 69 m 399 789 q 270 840 310 789 q 231 932 231 890 q 244 965 231 951 q 280 986 258 981 q 318 992 301 992 q 338 913 321 954 q 424 872 356 872 q 513 903 475 872 q 571 963 550 933 q 592 993 592 993 l 621 968 q 601 923 621 968 q 533 833 582 878 q 399 789 485 789 z "},"ắ":{"ha":686,"x_min":56,"x_max":642,"o":"m 426 147 q 339 39 394 90 q 219 -12 283 -12 q 93 47 131 -12 q 56 208 56 107 q 73 342 56 258 q 128 511 90 426 q 224 654 165 596 q 368 713 283 713 q 468 694 419 713 q 526 669 517 675 l 561 718 l 614 718 l 515 92 l 617 92 l 617 38 q 574 16 617 38 q 483 -6 532 -6 q 419 15 433 -6 q 406 64 406 36 q 431 144 406 92 l 426 147 m 490 569 q 410 611 456 593 q 315 629 365 629 q 269 613 282 629 q 199 451 226 553 q 171 238 171 349 q 186 113 171 157 q 253 69 201 69 q 351 120 301 69 q 429 214 400 171 l 490 569 z "},"ặ":{"ha":686,"x_min":56,"x_max":617,"o":"m 426 147 q 339 39 394 90 q 219 -12 283 -12 q 93 47 131 -12 q 56 208 56 107 q 73 342 56 258 q 128 511 90 426 q 224 654 165 596 q 368 713 283 713 q 468 694 419 713 q 526 669 517 675 l 561 718 l 614 718 l 515 92 l 617 92 l 617 38 q 574 16 617 38 q 483 -6 532 -6 q 419 15 433 -6 q 406 64 406 36 q 431 144 406 92 l 426 147 m 490 569 q 410 611 456 593 q 315 629 365 629 q 269 613 282 629 q 199 451 226 553 q 171 238 171 349 q 186 113 171 157 q 253 69 201 69 q 351 120 301 69 q 429 214 400 171 l 490 569 m 267 -231 q 215 -210 235 -231 q 196 -158 196 -189 q 216 -97 196 -126 q 279 -67 236 -67 q 331 -87 311 -67 q 351 -142 351 -107 q 331 -202 351 -174 q 267 -231 310 -231 z "},"ằ":{"ha":686,"x_min":56,"x_max":632,"o":"m 426 147 q 339 39 394 90 q 219 -12 283 -12 q 93 47 131 -12 q 56 208 56 107 q 73 342 56 258 q 128 511 90 426 q 224 654 165 596 q 368 713 283 713 q 468 694 419 713 q 526 669 517 675 l 561 718 l 614 718 l 515 92 l 617 92 l 617 38 q 574 16 617 38 q 483 -6 532 -6 q 419 15 433 -6 q 406 64 406 36 q 431 144 406 92 l 426 147 m 490 569 q 410 611 456 593 q 315 629 365 629 q 269 613 282 629 q 199 451 226 553 q 171 238 171 349 q 186 113 171 157 q 253 69 201 69 q 351 120 301 69 q 429 214 400 171 l 490 569 z "},"ẳ":{"ha":686,"x_min":56,"x_max":631,"o":"m 426 147 q 339 39 394 90 q 219 -12 283 -12 q 93 47 131 -12 q 56 208 56 107 q 73 342 56 258 q 128 511 90 426 q 224 654 165 596 q 368 713 283 713 q 468 694 419 713 q 526 669 517 675 l 561 718 l 614 718 l 515 92 l 617 92 l 617 38 q 574 16 617 38 q 483 -6 532 -6 q 419 15 433 -6 q 406 64 406 36 q 431 144 406 92 l 426 147 m 490 569 q 410 611 456 593 q 315 629 365 629 q 269 613 282 629 q 199 451 226 553 q 171 238 171 349 q 186 113 171 157 q 253 69 201 69 q 351 120 301 69 q 429 214 400 171 l 490 569 z "},"ẵ":{"ha":686,"x_min":56,"x_max":656,"o":"m 426 147 q 339 39 394 90 q 219 -12 283 -12 q 93 47 131 -12 q 56 208 56 107 q 73 342 56 258 q 128 511 90 426 q 224 654 165 596 q 368 713 283 713 q 468 694 419 713 q 526 669 517 675 l 561 718 l 614 718 l 515 92 l 617 92 l 617 38 q 574 16 617 38 q 483 -6 532 -6 q 419 15 433 -6 q 406 64 406 36 q 431 144 406 92 l 426 147 m 490 569 q 410 611 456 593 q 315 629 365 629 q 269 613 282 629 q 199 451 226 553 q 171 238 171 349 q 186 113 171 157 q 253 69 201 69 q 351 120 301 69 q 429 214 400 171 l 490 569 z "},"ǎ":{"ha":686,"x_min":56,"x_max":617,"o":"m 426 147 q 339 39 394 90 q 219 -12 283 -12 q 93 47 131 -12 q 56 208 56 107 q 73 342 56 258 q 128 511 90 426 q 224 654 165 596 q 368 713 283 713 q 468 694 419 713 q 526 669 517 675 l 561 718 l 614 718 l 515 92 l 617 92 l 617 38 q 574 16 617 38 q 483 -6 532 -6 q 419 15 433 -6 q 406 64 406 36 q 431 144 406 92 l 426 147 m 490 569 q 410 611 456 593 q 315 629 365 629 q 269 613 282 629 q 199 451 226 553 q 171 238 171 349 q 186 113 171 157 q 253 69 201 69 q 351 120 301 69 q 429 214 400 171 l 490 569 z "},"â":{"ha":690,"x_min":56,"x_max":617,"o":"m 219 -12 q 93 47 131 -12 q 56 208 56 107 q 73 342 56 258 q 128 511 90 426 q 224 654 165 596 q 368 713 283 713 q 467 694 419 713 q 526 669 515 675 l 561 718 l 614 718 l 515 92 l 617 92 l 617 38 q 574 16 617 38 q 483 -6 532 -6 q 419 15 433 -6 q 406 64 406 36 q 431 144 406 92 l 426 147 q 339 39 394 90 q 219 -12 283 -12 m 253 69 q 351 120 301 69 q 429 214 400 171 l 490 569 q 410 611 456 593 q 315 629 365 629 q 269 613 282 629 q 199 451 226 553 q 171 238 171 349 q 186 113 171 157 q 253 69 201 69 m 558 781 l 421 890 l 267 785 l 226 824 l 369 958 q 406 994 385 972 q 439 1015 428 1015 q 460 1002 450 1015 q 489 969 471 989 l 600 829 l 558 781 z "},"ấ":{"ha":686,"x_min":56,"x_max":731,"o":"m 426 147 q 339 39 394 90 q 219 -12 283 -12 q 93 47 131 -12 q 56 208 56 107 q 73 342 56 258 q 128 511 90 426 q 224 654 165 596 q 368 713 283 713 q 468 694 419 713 q 526 669 517 675 l 561 718 l 614 718 l 515 92 l 617 92 l 617 38 q 574 16 617 38 q 483 -6 532 -6 q 419 15 433 -6 q 406 64 406 36 q 431 144 406 92 l 426 147 m 490 569 q 410 611 456 593 q 315 629 365 629 q 269 613 282 629 q 199 451 226 553 q 171 238 171 349 q 186 113 171 157 q 253 69 201 69 q 351 120 301 69 q 429 214 400 171 l 490 569 z "},"ậ":{"ha":686,"x_min":56,"x_max":617,"o":"m 426 147 q 339 39 394 90 q 219 -12 283 -12 q 93 47 131 -12 q 56 208 56 107 q 73 342 56 258 q 128 511 90 426 q 224 654 165 596 q 368 713 283 713 q 468 694 419 713 q 526 669 517 675 l 561 718 l 614 718 l 515 92 l 617 92 l 617 38 q 574 16 617 38 q 483 -6 532 -6 q 419 15 433 -6 q 406 64 406 36 q 431 144 406 92 l 426 147 m 490 569 q 410 611 456 593 q 315 629 365 629 q 269 613 282 629 q 199 451 226 553 q 171 238 171 349 q 186 113 171 157 q 253 69 201 69 q 351 120 301 69 q 429 214 400 171 l 490 569 m 267 -231 q 215 -210 235 -231 q 196 -158 196 -189 q 216 -97 196 -126 q 279 -67 236 -67 q 331 -87 311 -67 q 351 -142 351 -107 q 331 -202 351 -174 q 267 -231 310 -231 z "},"ầ":{"ha":686,"x_min":56,"x_max":656,"o":"m 426 147 q 339 39 394 90 q 219 -12 283 -12 q 93 47 131 -12 q 56 208 56 107 q 73 342 56 258 q 128 511 90 426 q 224 654 165 596 q 368 713 283 713 q 468 694 419 713 q 526 669 517 675 l 561 718 l 614 718 l 515 92 l 617 92 l 617 38 q 574 16 617 38 q 483 -6 532 -6 q 419 15 433 -6 q 406 64 406 36 q 431 144 406 92 l 426 147 m 490 569 q 410 611 456 593 q 315 629 365 629 q 269 613 282 629 q 199 451 226 553 q 171 238 171 349 q 186 113 171 157 q 253 69 201 69 q 351 120 301 69 q 429 214 400 171 l 490 569 z "},"ẩ":{"ha":686,"x_min":56,"x_max":736,"o":"m 426 147 q 339 39 394 90 q 219 -12 283 -12 q 93 47 131 -12 q 56 208 56 107 q 73 342 56 258 q 128 511 90 426 q 224 654 165 596 q 368 713 283 713 q 468 694 419 713 q 526 669 517 675 l 561 718 l 614 718 l 515 92 l 617 92 l 617 38 q 574 16 617 38 q 483 -6 532 -6 q 419 15 433 -6 q 406 64 406 36 q 431 144 406 92 l 426 147 m 490 569 q 410 611 456 593 q 315 629 365 629 q 269 613 282 629 q 199 451 226 553 q 171 238 171 349 q 186 113 171 157 q 253 69 201 69 q 351 120 301 69 q 429 214 400 171 l 490 569 z "},"ẫ":{"ha":686,"x_min":56,"x_max":660,"o":"m 426 147 q 339 39 394 90 q 219 -12 283 -12 q 93 47 131 -12 q 56 208 56 107 q 73 342 56 258 q 128 511 90 426 q 224 654 165 596 q 368 713 283 713 q 468 694 419 713 q 526 669 517 675 l 561 718 l 614 718 l 515 92 l 617 92 l 617 38 q 574 16 617 38 q 483 -6 532 -6 q 419 15 433 -6 q 406 64 406 36 q 431 144 406 92 l 426 147 m 490 569 q 410 611 456 593 q 315 629 365 629 q 269 613 282 629 q 199 451 226 553 q 171 238 171 349 q 186 113 171 157 q 253 69 201 69 q 351 120 301 69 q 429 214 400 171 l 490 569 z "},"ȁ":{"ha":686,"x_min":56,"x_max":617,"o":"m 426 147 q 339 39 394 90 q 219 -12 283 -12 q 93 47 131 -12 q 56 208 56 107 q 73 342 56 258 q 128 511 90 426 q 224 654 165 596 q 368 713 283 713 q 468 694 419 713 q 526 669 517 675 l 561 718 l 614 718 l 515 92 l 617 92 l 617 38 q 574 16 617 38 q 483 -6 532 -6 q 419 15 433 -6 q 406 64 406 36 q 431 144 406 92 l 426 147 m 490 569 q 410 611 456 593 q 315 629 365 629 q 269 613 282 629 q 199 451 226 553 q 171 238 171 349 q 186 113 171 157 q 253 69 201 69 q 351 120 301 69 q 429 214 400 171 l 490 569 m 518 779 l 442 882 q 406 960 406 932 q 422 999 406 978 q 500 1035 439 1019 l 568 810 l 518 779 m 307 779 l 231 882 q 194 960 194 932 q 211 999 194 978 q 289 1035 228 1019 l 357 810 l 307 779 z "},"ä":{"ha":690,"x_min":56,"x_max":617,"o":"m 219 -12 q 93 47 131 -12 q 56 208 56 107 q 73 342 56 258 q 128 511 90 426 q 224 654 165 596 q 368 713 283 713 q 467 694 419 713 q 526 669 515 675 l 561 718 l 614 718 l 515 92 l 617 92 l 617 38 q 574 16 617 38 q 483 -6 532 -6 q 419 15 433 -6 q 406 64 406 36 q 431 144 406 92 l 426 147 q 339 39 394 90 q 219 -12 283 -12 m 253 69 q 351 120 301 69 q 429 214 400 171 l 490 569 q 410 611 456 593 q 315 629 365 629 q 269 613 282 629 q 199 451 226 553 q 171 238 171 349 q 186 113 171 157 q 253 69 201 69 m 267 825 q 222 842 239 825 q 206 885 206 860 q 226 949 206 917 q 292 981 247 981 q 338 963 319 981 q 356 915 356 946 q 332 854 356 883 q 267 825 308 825 m 526 825 q 481 842 499 825 q 464 885 464 860 q 486 949 464 917 q 551 981 508 981 q 597 963 579 981 q 614 915 614 946 q 591 854 614 883 q 526 825 568 825 z "},"ạ":{"ha":686,"x_min":56,"x_max":617,"o":"m 426 147 q 339 39 394 90 q 219 -12 283 -12 q 93 47 131 -12 q 56 208 56 107 q 73 342 56 258 q 128 511 90 426 q 224 654 165 596 q 368 713 283 713 q 468 694 419 713 q 526 669 517 675 l 561 718 l 614 718 l 515 92 l 617 92 l 617 38 q 574 16 617 38 q 483 -6 532 -6 q 419 15 433 -6 q 406 64 406 36 q 431 144 406 92 l 426 147 m 490 569 q 410 611 456 593 q 315 629 365 629 q 269 613 282 629 q 199 451 226 553 q 171 238 171 349 q 186 113 171 157 q 253 69 201 69 q 351 120 301 69 q 429 214 400 171 l 490 569 m 267 -231 q 215 -210 235 -231 q 196 -158 196 -189 q 216 -97 196 -126 q 279 -67 236 -67 q 331 -87 311 -67 q 351 -142 351 -107 q 331 -202 351 -174 q 267 -231 310 -231 z "},"à":{"ha":690,"x_min":56,"x_max":617,"o":"m 426 147 q 339 39 394 90 q 219 -12 283 -12 q 93 47 131 -12 q 56 208 56 107 q 73 342 56 258 q 128 511 90 426 q 224 654 165 596 q 368 713 283 713 q 467 694 419 713 q 526 669 515 675 l 561 718 l 614 718 l 515 92 l 617 92 l 617 38 q 574 16 617 38 q 483 -6 532 -6 q 419 15 433 -6 q 406 64 406 36 q 431 144 406 92 l 426 147 m 490 569 q 410 611 456 593 q 315 629 365 629 q 269 613 282 629 q 199 451 226 553 q 171 238 171 349 q 186 113 171 157 q 253 69 201 69 q 351 120 301 69 q 429 214 400 171 l 490 569 m 351 867 q 303 902 329 881 q 276 946 276 924 q 288 985 276 964 q 335 1018 299 1006 l 528 821 l 492 776 l 351 867 z "},"ả":{"ha":686,"x_min":56,"x_max":617,"o":"m 426 147 q 339 39 394 90 q 219 -12 283 -12 q 93 47 131 -12 q 56 208 56 107 q 73 342 56 258 q 128 511 90 426 q 224 654 165 596 q 368 713 283 713 q 468 694 419 713 q 526 669 517 675 l 561 718 l 614 718 l 515 92 l 617 92 l 617 38 q 574 16 617 38 q 483 -6 532 -6 q 419 15 433 -6 q 406 64 406 36 q 431 144 406 92 l 426 147 m 490 569 q 410 611 456 593 q 315 629 365 629 q 269 613 282 629 q 199 451 226 553 q 171 238 171 349 q 186 113 171 157 q 253 69 201 69 q 351 120 301 69 q 429 214 400 171 l 490 569 m 364 744 q 357 782 357 769 q 418 844 357 819 q 461 869 449 858 q 474 899 474 881 q 411 931 474 931 q 321 919 369 931 q 315 937 317 929 q 314 951 314 944 q 333 994 314 982 q 404 1006 353 1006 q 569 906 569 1006 q 544 845 569 868 q 475 803 519 822 q 438 780 444 790 q 431 751 431 769 l 364 744 z "},"ȃ":{"ha":686,"x_min":56,"x_max":617,"o":"m 426 147 q 339 39 394 90 q 219 -12 283 -12 q 93 47 131 -12 q 56 208 56 107 q 73 342 56 258 q 128 511 90 426 q 224 654 165 596 q 368 713 283 713 q 468 694 419 713 q 526 669 517 675 l 561 718 l 614 718 l 515 92 l 617 92 l 617 38 q 574 16 617 38 q 483 -6 532 -6 q 419 15 433 -6 q 406 64 406 36 q 431 144 406 92 l 426 147 m 490 569 q 410 611 456 593 q 315 629 365 629 q 269 613 282 629 q 199 451 226 553 q 171 238 171 349 q 186 113 171 157 q 253 69 201 69 q 351 120 301 69 q 429 214 400 171 l 490 569 m 254 789 l 225 814 q 244 858 225 814 q 313 948 264 903 q 447 993 361 993 q 576 942 536 993 q 615 850 615 892 q 607 822 615 835 q 570 797 594 804 q 528 790 546 790 q 508 869 525 828 q 422 910 490 910 q 333 880 371 910 q 275 819 296 850 q 254 789 254 789 z "},"ā":{"ha":690,"x_min":56,"x_max":626,"o":"m 426 147 q 339 39 394 90 q 219 -12 283 -12 q 93 47 131 -12 q 56 208 56 107 q 73 342 56 258 q 128 511 90 426 q 224 654 165 596 q 368 713 283 713 q 467 694 419 713 q 526 669 515 675 l 561 718 l 614 718 l 515 92 l 617 92 l 617 38 q 574 16 617 38 q 483 -6 532 -6 q 419 15 433 -6 q 406 64 406 36 q 431 144 406 92 l 426 147 m 490 569 q 410 611 456 593 q 315 629 365 629 q 269 613 282 629 q 199 451 226 553 q 171 238 171 349 q 186 113 171 157 q 253 69 201 69 q 351 120 301 69 q 429 214 400 171 l 490 569 m 235 940 l 626 940 l 615 853 l 224 853 l 235 940 z "},"ą":{"ha":690,"x_min":56,"x_max":636,"o":"m 490 -246 q 417 -228 447 -246 q 386 -158 386 -210 q 421 -62 386 -106 q 511 11 456 -18 l 517 0 q 499 -4 507 -3 q 486 -6 492 -6 q 419 15 433 -6 q 406 64 406 35 q 431 144 406 92 l 426 147 q 339 39 394 90 q 219 -12 283 -12 q 93 47 131 -12 q 56 208 56 107 q 73 342 56 258 q 128 511 90 426 q 224 654 165 596 q 368 713 283 713 q 467 694 419 713 q 526 669 515 675 l 561 718 l 614 718 l 515 92 l 617 92 l 617 38 q 603 30 617 36 q 572 14 590 24 q 517 -30 556 6 q 478 -119 478 -65 q 535 -175 478 -175 q 588 -161 563 -175 q 614 -147 614 -147 l 636 -181 q 595 -213 636 -181 q 490 -246 554 -246 m 253 69 q 351 120 301 69 q 429 214 400 171 l 490 569 q 410 611 456 593 q 315 629 365 629 q 269 613 282 629 q 199 451 226 553 q 171 238 171 349 q 186 113 171 157 q 253 69 201 69 z "},"å":{"ha":690,"x_min":56,"x_max":617,"o":"m 219 -12 q 93 47 131 -12 q 56 208 56 107 q 73 342 56 258 q 128 511 90 426 q 224 654 165 596 q 368 713 283 713 q 467 694 419 713 q 526 669 515 675 l 561 718 l 614 718 l 515 92 l 617 92 l 617 38 q 574 16 617 38 q 483 -6 532 -6 q 419 15 433 -6 q 406 64 406 36 q 431 144 406 92 l 426 147 q 339 39 394 90 q 219 -12 283 -12 m 253 69 q 351 120 301 69 q 429 214 400 171 l 490 569 q 410 611 456 593 q 315 629 365 629 q 269 613 282 629 q 199 451 226 553 q 171 238 171 349 q 186 113 171 157 q 253 69 201 69 m 435 783 q 349 810 378 783 q 319 882 319 836 q 356 989 319 942 q 457 1036 392 1036 q 543 1010 514 1036 q 572 938 572 983 q 536 831 572 878 q 435 783 500 783 m 447 844 q 488 867 476 844 q 499 925 499 889 q 443 972 499 972 q 403 952 414 972 q 392 896 392 932 q 447 844 392 844 z "},"ǻ":{"ha":686,"x_min":56,"x_max":638,"o":"m 426 147 q 339 39 394 90 q 219 -12 283 -12 q 93 47 131 -12 q 56 208 56 107 q 73 342 56 258 q 128 511 90 426 q 224 654 165 596 q 368 713 283 713 q 468 694 419 713 q 526 669 517 675 l 561 718 l 614 718 l 515 92 l 617 92 l 617 38 q 574 16 617 38 q 483 -6 532 -6 q 419 15 433 -6 q 406 64 406 36 q 431 144 406 92 l 426 147 m 490 569 q 410 611 456 593 q 315 629 365 629 q 269 613 282 629 q 199 451 226 553 q 171 238 171 349 q 186 113 171 157 q 253 69 201 69 q 351 120 301 69 q 429 214 400 171 l 490 569 z "},"ã":{"ha":690,"x_min":56,"x_max":660,"o":"m 219 -12 q 93 47 131 -12 q 56 208 56 107 q 73 342 56 258 q 128 511 90 426 q 224 654 165 596 q 368 713 283 713 q 467 694 419 713 q 526 669 515 675 l 561 718 l 614 718 l 515 92 l 617 92 l 617 38 q 574 16 617 38 q 483 -6 532 -6 q 419 15 433 -6 q 406 64 406 36 q 431 144 406 92 l 426 147 q 339 39 394 90 q 219 -12 283 -12 m 253 69 q 351 120 301 69 q 429 214 400 171 l 490 569 q 410 611 456 593 q 315 629 365 629 q 269 613 282 629 q 199 451 226 553 q 171 238 171 349 q 186 113 171 157 q 253 69 201 69 m 536 826 q 494 833 517 826 q 449 849 471 840 l 356 881 l 257 832 l 231 858 l 279 921 q 353 972 319 972 q 395 965 371 972 q 442 950 419 957 l 535 918 l 633 967 l 660 940 l 611 882 q 574 842 592 858 q 536 826 557 826 z "},"æ":{"ha":893,"x_min":53,"x_max":876,"o":"m 217 -12 q 53 208 53 -12 q 99 449 53 333 q 217 638 144 564 q 365 713 289 713 q 458 693 401 713 q 565 643 514 674 q 729 713 638 713 q 835 674 793 713 q 876 578 876 636 q 765 377 876 460 q 499 297 654 294 l 521 335 l 521 300 q 548 119 521 168 q 647 71 575 71 q 801 131 717 71 l 828 90 q 723 17 786 46 q 604 -12 660 -12 q 468 19 513 -12 q 413 124 424 50 q 217 -12 339 -12 m 250 69 q 351 124 300 69 q 408 240 401 179 q 497 557 417 421 q 313 629 393 629 q 267 613 279 629 q 195 449 222 551 q 168 238 168 346 q 187 107 168 144 q 250 69 206 69 m 524 354 q 706 419 640 368 q 771 549 771 471 q 685 629 771 629 q 606 610 618 629 q 554 500 575 561 q 524 354 533 439 z "},"ǽ":{"ha":893,"x_min":53,"x_max":876,"o":"m 217 -12 q 53 208 53 -12 q 99 449 53 333 q 217 638 144 564 q 365 713 289 713 q 458 693 401 713 q 565 643 514 674 q 729 713 638 713 q 835 674 793 713 q 876 578 876 636 q 765 377 876 460 q 499 297 654 294 l 521 335 l 521 300 q 548 119 521 168 q 647 71 575 71 q 801 131 717 71 l 828 90 q 723 17 786 46 q 604 -12 660 -12 q 468 19 513 -12 q 413 124 424 50 q 217 -12 339 -12 m 250 69 q 351 124 300 69 q 408 240 401 179 q 497 557 417 421 q 313 629 393 629 q 267 613 279 629 q 195 449 222 551 q 168 238 168 346 q 187 107 168 144 q 250 69 206 69 m 524 354 q 706 419 640 368 q 771 549 771 471 q 685 629 771 629 q 606 610 618 629 q 554 500 575 561 q 524 354 533 439 z "},"b":{"ha":653,"x_min":53,"x_max":611,"o":"m 199 871 l 89 893 l 89 944 l 297 971 l 297 871 l 258 625 q 249 604 257 615 q 236 585 242 593 l 239 581 q 315 660 258 608 q 444 713 372 713 q 573 655 535 713 q 611 496 611 597 q 596 361 611 446 q 544 191 581 276 q 446 47 507 106 q 293 -12 385 -12 q 200 -2 240 -12 q 160 8 160 8 l 53 46 l 199 871 m 175 108 q 237 83 194 97 q 339 69 279 69 q 382 72 372 69 q 396 82 392 75 q 466 248 435 140 q 497 467 497 356 q 476 582 497 547 q 404 617 456 617 q 310 585 356 617 q 242 535 264 554 l 175 108 z "},"c":{"ha":521,"x_min":42,"x_max":521,"o":"m 454 89 q 428 64 454 89 q 353 13 403 39 q 232 -12 304 -12 q 88 41 133 -12 q 42 210 42 94 q 78 444 42 328 q 186 636 114 560 q 367 713 258 713 q 481 685 442 713 q 521 593 521 657 q 490 509 521 536 q 458 482 458 482 l 424 482 l 413 618 q 390 624 413 618 q 322 629 368 629 q 281 626 301 629 q 246 611 260 622 q 219 563 242 608 q 176 444 197 517 q 156 285 156 372 q 187 116 156 157 q 288 75 218 75 q 380 105 335 75 q 425 135 425 135 l 454 89 z "},"ć":{"ha":521,"x_min":42,"x_max":521,"o":"m 232 -12 q 88 41 133 -12 q 42 210 42 94 q 78 444 42 328 q 186 636 114 560 q 367 713 258 713 q 481 685 442 713 q 521 593 521 657 q 490 509 521 536 q 458 482 458 482 l 424 482 l 413 618 q 390 624 413 618 q 322 629 368 629 q 281 626 301 629 q 246 611 260 622 q 219 563 242 608 q 176 444 197 517 q 156 285 156 372 q 187 116 156 157 q 288 75 218 75 q 380 105 335 75 q 425 135 425 135 l 454 89 q 428 64 454 89 q 353 13 403 39 q 232 -12 304 -12 m 293 776 l 257 821 l 450 1018 q 497 985 486 1006 q 508 946 508 964 q 482 902 508 924 q 433 867 456 881 l 293 776 z "},"č":{"ha":521,"x_min":42,"x_max":550,"o":"m 454 89 q 428 64 454 89 q 353 13 403 39 q 232 -12 304 -12 q 88 41 133 -12 q 42 210 42 94 q 78 444 42 328 q 186 636 114 560 q 367 713 258 713 q 481 685 442 713 q 521 593 521 657 q 490 509 521 536 q 458 482 458 482 l 424 482 l 413 618 q 390 624 413 618 q 322 629 368 629 q 281 626 301 629 q 246 611 260 622 q 219 563 242 608 q 176 444 197 517 q 156 285 156 372 q 187 116 156 157 q 288 75 218 75 q 380 105 335 75 q 425 135 425 135 l 454 89 m 179 967 l 225 1015 l 358 901 l 514 1013 l 550 971 l 408 838 q 371 801 392 822 q 339 781 350 781 q 317 794 328 781 q 289 826 307 807 l 179 967 z "},"ç":{"ha":521,"x_min":42,"x_max":521,"o":"m 106 -179 q 137 -195 119 -189 q 189 -201 154 -201 q 250 -169 250 -201 q 218 -133 250 -151 l 146 -96 l 146 -68 l 189 -10 q 42 210 42 11 q 78 444 42 328 q 186 636 114 560 q 367 713 258 713 q 481 685 442 713 q 521 593 521 657 q 490 509 521 536 q 458 482 458 482 l 424 482 l 413 618 q 390 624 413 618 q 322 629 368 629 q 281 626 301 629 q 246 611 260 622 q 219 563 242 608 q 176 444 197 517 q 156 285 156 372 q 187 116 156 157 q 288 75 218 75 q 380 105 335 75 q 425 135 425 135 l 454 89 q 402 42 454 89 q 253 -11 350 -6 l 253 -40 l 300 -69 q 332 -97 319 -81 q 344 -136 344 -114 q 294 -237 344 -214 q 194 -260 243 -260 q 125 -247 154 -260 q 78 -219 96 -233 l 106 -179 z "},"ĉ":{"ha":521,"x_min":42,"x_max":557,"o":"m 454 89 q 428 64 454 89 q 353 13 403 39 q 232 -12 304 -12 q 88 41 133 -12 q 42 210 42 94 q 78 444 42 328 q 186 636 114 560 q 367 713 258 713 q 481 685 442 713 q 521 593 521 657 q 490 509 521 536 q 458 482 458 482 l 424 482 l 413 618 q 390 624 413 618 q 322 629 368 629 q 281 626 301 629 q 246 611 260 622 q 219 563 242 608 q 176 444 197 517 q 156 285 156 372 q 187 116 156 157 q 288 75 218 75 q 380 105 335 75 q 425 135 425 135 l 454 89 z "},"ċ":{"ha":521,"x_min":42,"x_max":521,"o":"m 454 89 q 428 64 454 89 q 353 13 403 39 q 232 -12 304 -12 q 88 41 133 -12 q 42 210 42 94 q 78 444 42 328 q 186 636 114 560 q 367 713 258 713 q 481 685 442 713 q 521 593 521 657 q 490 509 521 536 q 458 482 458 482 l 424 482 l 413 618 q 390 624 413 618 q 322 629 368 629 q 281 626 301 629 q 246 611 260 622 q 219 563 242 608 q 176 444 197 517 q 156 285 156 372 q 187 116 156 157 q 288 75 218 75 q 380 105 335 75 q 425 135 425 135 l 454 89 z "},"d":{"ha":696,"x_min":56,"x_max":650,"o":"m 436 146 q 344 34 400 81 q 221 -12 289 -12 q 95 47 135 -12 q 56 208 56 107 q 76 360 56 274 q 138 526 97 446 q 237 660 178 607 q 374 713 296 713 q 460 701 421 713 q 519 678 499 689 l 554 871 l 444 893 l 444 944 l 650 971 l 650 871 l 525 92 l 626 92 l 626 38 q 585 16 626 38 q 496 -6 544 -6 q 435 8 456 -6 q 414 57 414 22 q 420 97 414 78 q 440 143 426 115 l 436 146 m 500 571 q 417 613 464 596 q 318 629 371 629 q 286 622 299 629 q 269 608 274 614 q 200 449 231 550 q 169 238 169 349 q 187 119 169 168 q 256 69 204 69 q 355 116 307 69 q 433 206 403 163 l 500 571 z "},"ð":{"ha":640,"x_min":56,"x_max":585,"o":"m 246 -12 q 56 224 56 -12 q 98 476 56 367 q 215 649 140 586 q 385 713 289 713 q 413 710 396 713 q 444 701 431 707 q 343 835 401 799 l 192 738 l 154 792 l 271 867 q 183 885 228 881 q 81 890 138 890 l 81 946 q 189 956 114 956 q 360 925 286 956 l 479 1003 l 515 946 l 426 889 q 585 529 585 781 q 495 130 585 272 q 246 -12 406 -12 m 299 69 q 389 89 367 69 q 427 165 408 107 q 458 298 446 224 q 469 439 469 372 q 460 601 469 558 q 318 628 406 628 q 278 620 301 628 q 247 604 254 613 q 209 522 226 581 q 181 389 192 464 q 169 240 169 314 q 197 106 169 142 q 299 69 224 69 z "},"ď":{"ha":696,"x_min":56,"x_max":815,"o":"m 436 146 q 344 34 400 81 q 221 -12 289 -12 q 95 47 135 -12 q 56 208 56 107 q 76 360 56 274 q 138 526 97 446 q 237 660 178 607 q 374 713 296 713 q 460 701 421 713 q 519 678 499 689 l 554 871 l 444 893 l 444 944 l 650 971 l 650 871 l 525 92 l 626 92 l 626 38 q 585 16 626 38 q 496 -6 544 -6 q 435 8 456 -6 q 414 57 414 22 q 420 97 414 78 q 440 143 426 115 l 436 146 m 500 571 q 417 613 464 596 q 318 629 371 629 q 286 622 299 629 q 269 608 274 614 q 200 449 231 550 q 169 238 169 349 q 187 119 169 168 q 256 69 204 69 q 355 116 307 69 q 433 206 403 163 l 500 571 m 676 790 q 697 828 676 790 q 717 918 717 865 q 713 950 717 936 q 697 979 708 964 q 717 999 703 988 q 757 1011 731 1011 q 800 994 785 1011 q 815 949 815 976 q 792 859 815 897 q 741 798 768 821 q 703 769 714 775 l 676 790 z "},"đ":{"ha":696,"x_min":56,"x_max":728,"o":"m 221 -12 q 95 47 135 -12 q 56 208 56 107 q 76 360 56 274 q 138 526 97 446 q 237 660 178 607 q 374 713 296 713 q 460 701 421 713 q 519 678 499 689 l 539 785 l 317 785 l 317 851 l 550 851 l 554 871 l 481 915 l 481 949 l 650 971 l 650 871 l 647 851 l 728 851 l 728 785 l 636 785 l 525 92 l 626 92 l 626 38 q 585 16 626 38 q 496 -6 544 -6 q 435 8 456 -6 q 414 57 414 22 q 420 97 414 78 q 440 143 426 115 l 436 146 q 344 34 400 81 q 221 -12 289 -12 m 256 69 q 355 116 307 69 q 433 206 403 163 l 500 571 q 417 613 464 596 q 318 629 371 629 q 286 622 299 629 q 269 608 274 614 q 200 449 231 550 q 169 238 169 349 q 187 119 169 168 q 256 69 204 69 z "},"ḍ":{"ha":696,"x_min":56,"x_max":650,"o":"m 436 146 q 344 34 400 81 q 221 -12 289 -12 q 95 47 135 -12 q 56 208 56 107 q 76 360 56 274 q 138 526 97 446 q 237 660 178 607 q 374 713 296 713 q 460 701 421 713 q 519 678 499 689 l 554 871 l 444 893 l 444 944 l 650 971 l 650 871 l 525 92 l 626 92 l 626 38 q 585 16 626 38 q 496 -6 544 -6 q 435 8 456 -6 q 414 57 414 22 q 420 97 414 78 q 440 143 426 115 l 436 146 m 500 571 q 417 613 464 596 q 318 629 371 629 q 286 622 299 629 q 269 608 274 614 q 200 449 231 550 q 169 238 169 349 q 187 119 169 168 q 256 69 204 69 q 355 116 307 69 q 433 206 403 163 l 500 571 m 272 -231 q 221 -210 240 -231 q 201 -158 201 -189 q 222 -97 201 -126 q 285 -67 242 -67 q 337 -87 317 -67 q 357 -142 357 -107 q 336 -202 357 -174 q 272 -231 315 -231 z "},"ǳ":{"ha":1244,"x_min":56,"x_max":1276,"o":"m 436 146 q 344 34 400 81 q 221 -12 289 -12 q 95 47 135 -12 q 56 208 56 107 q 76 360 56 274 q 138 526 97 446 q 237 660 178 607 q 374 713 296 713 q 460 701 421 713 q 519 678 499 689 l 554 871 l 444 893 l 444 944 l 650 971 l 650 871 l 525 92 l 626 92 l 626 38 q 585 16 626 38 q 496 -6 544 -6 q 435 8 456 -6 q 414 57 414 22 q 420 97 414 78 q 440 143 426 115 l 436 146 m 500 571 q 417 613 464 596 q 318 629 371 629 q 286 622 299 629 q 269 608 274 614 q 200 449 231 550 q 169 238 169 349 q 187 119 169 168 q 256 69 204 69 q 355 116 307 69 q 433 206 403 163 l 500 571 m 1082 553 l 1082 565 l 872 642 l 835 510 l 789 510 q 774 539 789 510 q 758 617 758 568 q 790 691 758 669 q 868 713 822 713 q 938 706 904 713 q 1015 689 972 700 l 1163 654 l 1240 710 l 1276 682 l 861 140 l 861 125 l 1088 58 l 1125 190 l 1171 190 q 1186 161 1171 190 q 1201 83 1201 132 q 1166 9 1201 31 q 1085 -12 1131 -12 q 1017 -6 1049 -12 q 943 8 986 0 l 779 39 l 710 -10 l 671 25 l 1082 553 z "},"ǆ":{"ha":1244,"x_min":56,"x_max":1276,"o":"m 436 146 q 344 34 400 81 q 221 -12 289 -12 q 95 47 135 -12 q 56 208 56 107 q 76 360 56 274 q 138 526 97 446 q 237 660 178 607 q 374 713 296 713 q 460 701 421 713 q 519 678 499 689 l 554 871 l 444 893 l 444 944 l 650 971 l 650 871 l 525 92 l 626 92 l 626 38 q 585 16 626 38 q 496 -6 544 -6 q 435 8 456 -6 q 414 57 414 22 q 420 97 414 78 q 440 143 426 115 l 436 146 m 500 571 q 417 613 464 596 q 318 629 371 629 q 286 622 299 629 q 269 608 274 614 q 200 449 231 550 q 169 238 169 349 q 187 119 169 168 q 256 69 204 69 q 355 116 307 69 q 433 206 403 163 l 500 571 m 1082 553 l 1082 565 l 872 642 l 835 510 l 789 510 q 774 539 789 510 q 758 617 758 568 q 790 691 758 669 q 868 713 822 713 q 938 706 904 713 q 1015 689 972 700 l 1163 654 l 1240 710 l 1276 682 l 861 140 l 861 125 l 1088 58 l 1125 190 l 1171 190 q 1186 161 1171 190 q 1201 83 1201 132 q 1166 9 1201 31 q 1085 -12 1131 -12 q 1017 -6 1049 -12 q 943 8 986 0 l 779 39 l 710 -10 l 671 25 l 1082 553 z "},"e":{"ha":539,"x_min":56,"x_max":525,"o":"m 260 -12 q 105 33 154 -12 q 56 203 56 78 q 90 424 56 306 q 197 628 125 543 q 378 713 268 713 q 490 667 456 713 q 525 578 525 622 q 476 408 525 464 q 347 328 428 353 q 169 283 267 303 l 168 264 q 197 110 168 150 q 303 71 225 71 q 450 135 374 71 l 476 94 q 381 17 442 47 q 260 -12 319 -12 m 175 342 q 340 397 288 367 q 406 465 392 428 q 419 549 419 501 q 404 601 419 574 q 333 629 389 629 q 254 610 267 629 q 203 483 222 561 q 175 342 183 406 z "},"é":{"ha":540,"x_min":56,"x_max":525,"o":"m 296 776 l 260 821 l 453 1018 q 500 985 489 1006 q 511 946 511 964 q 485 902 511 924 q 436 867 458 881 l 296 776 m 260 -12 q 105 33 154 -12 q 56 203 56 78 q 90 424 56 306 q 197 628 125 543 q 378 713 268 713 q 490 667 456 713 q 525 578 525 622 q 476 408 525 464 q 347 328 428 353 q 169 283 267 303 l 168 264 q 197 110 168 150 q 303 71 225 71 q 450 135 374 71 l 476 94 q 381 17 442 47 q 260 -12 319 -12 m 175 342 q 340 397 288 367 q 406 465 392 428 q 419 549 419 501 q 404 601 419 574 q 333 629 389 629 q 254 610 267 629 q 203 483 222 561 q 175 342 183 406 z "},"ĕ":{"ha":539,"x_min":56,"x_max":572,"o":"m 260 -12 q 105 33 154 -12 q 56 203 56 78 q 90 424 56 306 q 197 628 125 543 q 378 713 268 713 q 490 667 456 713 q 525 578 525 622 q 476 408 525 464 q 347 328 428 353 q 169 283 267 303 l 168 264 q 197 110 168 150 q 303 71 225 71 q 450 135 374 71 l 476 94 q 381 17 442 47 q 260 -12 319 -12 m 175 342 q 340 397 288 367 q 406 465 392 428 q 419 549 419 501 q 404 601 419 574 q 333 629 389 629 q 254 610 267 629 q 203 483 222 561 q 175 342 183 406 z "},"ě":{"ha":540,"x_min":56,"x_max":571,"o":"m 260 -12 q 105 33 154 -12 q 56 203 56 78 q 90 424 56 306 q 197 628 125 543 q 378 713 268 713 q 490 667 456 713 q 525 578 525 622 q 476 408 525 464 q 347 328 428 353 q 169 283 267 303 q 169 273 169 278 q 168 264 168 268 q 197 110 168 150 q 303 71 225 71 q 403 103 356 71 q 450 135 450 135 l 476 94 q 451 68 476 94 q 376 15 425 42 q 260 -12 328 -12 m 175 342 q 340 397 288 367 q 406 465 392 428 q 419 549 419 501 q 404 601 419 574 q 333 629 389 629 q 254 610 267 629 q 203 483 222 561 q 175 342 183 406 m 360 781 q 339 794 350 781 q 310 826 328 807 l 200 967 l 246 1015 l 379 901 l 535 1013 l 571 971 l 429 838 q 392 801 413 822 q 360 781 371 781 z "},"ê":{"ha":540,"x_min":56,"x_max":542,"o":"m 500 781 l 363 890 l 208 785 l 168 824 l 311 958 q 348 994 326 972 q 381 1015 369 1015 q 402 1002 392 1015 q 431 969 413 989 l 542 829 l 500 781 m 260 -12 q 105 33 154 -12 q 56 203 56 78 q 90 424 56 306 q 197 628 125 543 q 378 713 268 713 q 490 667 456 713 q 525 578 525 622 q 476 408 525 464 q 347 328 428 353 q 169 283 267 303 l 168 264 q 197 110 168 150 q 303 71 225 71 q 450 135 374 71 l 476 94 q 381 17 442 47 q 260 -12 319 -12 m 175 342 q 340 397 288 367 q 406 465 392 428 q 419 549 419 501 q 404 601 419 574 q 333 629 389 629 q 254 610 267 629 q 203 483 222 561 q 175 342 183 406 z "},"ế":{"ha":539,"x_min":56,"x_max":688,"o":"m 260 -12 q 105 33 154 -12 q 56 203 56 78 q 90 424 56 306 q 197 628 125 543 q 378 713 268 713 q 490 667 456 713 q 525 578 525 622 q 476 408 525 464 q 347 328 428 353 q 169 283 267 303 l 168 264 q 197 110 168 150 q 303 71 225 71 q 450 135 374 71 l 476 94 q 381 17 442 47 q 260 -12 319 -12 m 175 342 q 340 397 288 367 q 406 465 392 428 q 419 549 419 501 q 404 601 419 574 q 333 629 389 629 q 254 610 267 629 q 203 483 222 561 q 175 342 183 406 z "},"ệ":{"ha":539,"x_min":56,"x_max":551,"o":"m 260 -12 q 105 33 154 -12 q 56 203 56 78 q 90 424 56 306 q 197 628 125 543 q 378 713 268 713 q 490 667 456 713 q 525 578 525 622 q 476 408 525 464 q 347 328 428 353 q 169 283 267 303 l 168 264 q 197 110 168 150 q 303 71 225 71 q 450 135 374 71 l 476 94 q 381 17 442 47 q 260 -12 319 -12 m 175 342 q 340 397 288 367 q 406 465 392 428 q 419 549 419 501 q 404 601 419 574 q 333 629 389 629 q 254 610 267 629 q 203 483 222 561 q 175 342 183 406 m 224 -231 q 172 -210 192 -231 q 153 -158 153 -189 q 173 -97 153 -126 q 236 -67 193 -67 q 288 -87 268 -67 q 308 -142 308 -107 q 288 -202 308 -174 q 224 -231 267 -231 z "},"ề":{"ha":539,"x_min":56,"x_max":613,"o":"m 260 -12 q 105 33 154 -12 q 56 203 56 78 q 90 424 56 306 q 197 628 125 543 q 378 713 268 713 q 490 667 456 713 q 525 578 525 622 q 476 408 525 464 q 347 328 428 353 q 169 283 267 303 l 168 264 q 197 110 168 150 q 303 71 225 71 q 450 135 374 71 l 476 94 q 381 17 442 47 q 260 -12 319 -12 m 175 342 q 340 397 288 367 q 406 465 392 428 q 419 549 419 501 q 404 601 419 574 q 333 629 389 629 q 254 610 267 629 q 203 483 222 561 q 175 342 183 406 z "},"ể":{"ha":539,"x_min":56,"x_max":693,"o":"m 260 -12 q 105 33 154 -12 q 56 203 56 78 q 90 424 56 306 q 197 628 125 543 q 378 713 268 713 q 490 667 456 713 q 525 578 525 622 q 476 408 525 464 q 347 328 428 353 q 169 283 267 303 l 168 264 q 197 110 168 150 q 303 71 225 71 q 450 135 374 71 l 476 94 q 381 17 442 47 q 260 -12 319 -12 m 175 342 q 340 397 288 367 q 406 465 392 428 q 419 549 419 501 q 404 601 419 574 q 333 629 389 629 q 254 610 267 629 q 203 483 222 561 q 175 342 183 406 z "},"ễ":{"ha":539,"x_min":56,"x_max":617,"o":"m 260 -12 q 105 33 154 -12 q 56 203 56 78 q 90 424 56 306 q 197 628 125 543 q 378 713 268 713 q 490 667 456 713 q 525 578 525 622 q 476 408 525 464 q 347 328 428 353 q 169 283 267 303 l 168 264 q 197 110 168 150 q 303 71 225 71 q 450 135 374 71 l 476 94 q 381 17 442 47 q 260 -12 319 -12 m 175 342 q 340 397 288 367 q 406 465 392 428 q 419 549 419 501 q 404 601 419 574 q 333 629 389 629 q 254 610 267 629 q 203 483 222 561 q 175 342 183 406 z "},"ȅ":{"ha":539,"x_min":56,"x_max":525,"o":"m 260 -12 q 105 33 154 -12 q 56 203 56 78 q 90 424 56 306 q 197 628 125 543 q 378 713 268 713 q 490 667 456 713 q 525 578 525 622 q 476 408 525 464 q 347 328 428 353 q 169 283 267 303 l 168 264 q 197 110 168 150 q 303 71 225 71 q 450 135 374 71 l 476 94 q 381 17 442 47 q 260 -12 319 -12 m 175 342 q 340 397 288 367 q 406 465 392 428 q 419 549 419 501 q 404 601 419 574 q 333 629 389 629 q 254 610 267 629 q 203 483 222 561 q 175 342 183 406 m 475 779 l 399 882 q 363 960 363 932 q 379 999 363 978 q 457 1035 396 1019 l 525 810 l 475 779 m 264 779 l 188 882 q 151 960 151 932 q 168 999 151 978 q 246 1035 185 1019 l 314 810 l 264 779 z "},"ë":{"ha":540,"x_min":56,"x_max":558,"o":"m 211 825 q 167 842 183 825 q 150 885 150 860 q 171 949 150 917 q 236 981 192 981 q 282 963 264 981 q 300 915 300 946 q 276 854 300 883 q 211 825 253 825 m 471 825 q 426 842 443 825 q 408 885 408 860 q 431 949 408 917 q 496 981 453 981 q 541 963 524 981 q 558 915 558 946 q 535 854 558 883 q 471 825 513 825 m 260 -12 q 105 33 154 -12 q 56 203 56 78 q 90 424 56 306 q 197 628 125 543 q 378 713 268 713 q 490 667 456 713 q 525 578 525 622 q 476 408 525 464 q 347 328 428 353 q 169 283 267 303 l 168 264 q 197 110 168 150 q 303 71 225 71 q 450 135 374 71 l 476 94 q 381 17 442 47 q 260 -12 319 -12 m 175 342 q 340 397 288 367 q 406 465 392 428 q 419 549 419 501 q 404 601 419 574 q 333 629 389 629 q 254 610 267 629 q 203 483 222 561 q 175 342 183 406 z "},"ė":{"ha":540,"x_min":56,"x_max":525,"o":"m 260 -12 q 105 33 154 -12 q 56 203 56 78 q 90 424 56 306 q 197 628 125 543 q 378 713 268 713 q 490 667 456 713 q 525 578 525 622 q 476 408 525 464 q 347 328 428 353 q 169 283 267 303 q 169 273 169 278 q 168 264 168 268 q 197 110 168 150 q 303 71 225 71 q 403 103 356 71 q 450 135 450 135 l 476 94 q 451 68 476 94 q 376 15 425 42 q 260 -12 328 -12 m 175 342 q 340 397 288 367 q 406 465 392 428 q 419 549 419 501 q 404 601 419 574 q 333 629 389 629 q 254 610 267 629 q 203 483 222 561 q 175 342 183 406 m 372 821 q 321 842 340 821 q 301 893 301 863 q 322 955 301 925 q 385 985 342 985 q 437 965 417 985 q 457 910 457 944 q 436 849 457 878 q 372 821 415 821 z "},"ẹ":{"ha":539,"x_min":56,"x_max":525,"o":"m 260 -12 q 105 33 154 -12 q 56 203 56 78 q 90 424 56 306 q 197 628 125 543 q 378 713 268 713 q 490 667 456 713 q 525 578 525 622 q 476 408 525 464 q 347 328 428 353 q 169 283 267 303 l 168 264 q 197 110 168 150 q 303 71 225 71 q 450 135 374 71 l 476 94 q 381 17 442 47 q 260 -12 319 -12 m 175 342 q 340 397 288 367 q 406 465 392 428 q 419 549 419 501 q 404 601 419 574 q 333 629 389 629 q 254 610 267 629 q 203 483 222 561 q 175 342 183 406 m 224 -231 q 172 -210 192 -231 q 153 -158 153 -189 q 173 -97 153 -126 q 236 -67 193 -67 q 288 -87 268 -67 q 308 -142 308 -107 q 288 -202 308 -174 q 224 -231 267 -231 z "},"è":{"ha":540,"x_min":56,"x_max":525,"o":"m 447 776 l 307 867 q 258 902 285 881 q 232 946 232 924 q 243 985 232 964 q 290 1018 254 1006 l 483 821 l 447 776 m 260 -12 q 105 33 154 -12 q 56 203 56 78 q 90 424 56 306 q 197 628 125 543 q 378 713 268 713 q 490 667 456 713 q 525 578 525 622 q 476 408 525 464 q 347 328 428 353 q 169 283 267 303 l 168 264 q 197 110 168 150 q 303 71 225 71 q 450 135 374 71 l 476 94 q 381 17 442 47 q 260 -12 319 -12 m 175 342 q 340 397 288 367 q 406 465 392 428 q 419 549 419 501 q 404 601 419 574 q 333 629 389 629 q 254 610 267 629 q 203 483 222 561 q 175 342 183 406 z "},"ẻ":{"ha":539,"x_min":56,"x_max":526,"o":"m 260 -12 q 105 33 154 -12 q 56 203 56 78 q 90 424 56 306 q 197 628 125 543 q 378 713 268 713 q 490 667 456 713 q 525 578 525 622 q 476 408 525 464 q 347 328 428 353 q 169 283 267 303 l 168 264 q 197 110 168 150 q 303 71 225 71 q 450 135 374 71 l 476 94 q 381 17 442 47 q 260 -12 319 -12 m 175 342 q 340 397 288 367 q 406 465 392 428 q 419 549 419 501 q 404 601 419 574 q 333 629 389 629 q 254 610 267 629 q 203 483 222 561 q 175 342 183 406 m 321 744 q 314 782 314 769 q 375 844 314 819 q 418 869 406 858 q 431 899 431 881 q 368 931 431 931 q 278 919 326 931 q 272 937 274 929 q 271 951 271 944 q 290 994 271 982 q 361 1006 310 1006 q 526 906 526 1006 q 501 845 526 868 q 432 803 476 822 q 394 780 401 790 q 388 751 388 769 l 321 744 z "},"ȇ":{"ha":539,"x_min":56,"x_max":572,"o":"m 260 -12 q 105 33 154 -12 q 56 203 56 78 q 90 424 56 306 q 197 628 125 543 q 378 713 268 713 q 490 667 456 713 q 525 578 525 622 q 476 408 525 464 q 347 328 428 353 q 169 283 267 303 l 168 264 q 197 110 168 150 q 303 71 225 71 q 450 135 374 71 l 476 94 q 381 17 442 47 q 260 -12 319 -12 m 175 342 q 340 397 288 367 q 406 465 392 428 q 419 549 419 501 q 404 601 419 574 q 333 629 389 629 q 254 610 267 629 q 203 483 222 561 q 175 342 183 406 m 211 789 l 182 814 q 201 858 182 814 q 269 948 221 903 q 404 993 318 993 q 533 942 493 993 q 572 850 572 892 q 564 822 572 835 q 527 797 551 804 q 485 790 503 790 q 465 869 482 828 q 379 910 447 910 q 290 880 328 910 q 232 819 253 850 q 211 789 211 789 z "},"ē":{"ha":540,"x_min":56,"x_max":569,"o":"m 260 -12 q 105 33 154 -12 q 56 203 56 78 q 90 424 56 306 q 197 628 125 543 q 378 713 268 713 q 490 667 456 713 q 525 578 525 622 q 476 408 525 464 q 347 328 428 353 q 169 283 267 303 q 169 273 169 278 q 168 264 168 268 q 197 110 168 150 q 303 71 225 71 q 403 103 356 71 q 450 135 450 135 l 476 94 q 451 68 476 94 q 376 15 425 42 q 260 -12 328 -12 m 175 342 q 340 397 288 367 q 406 465 392 428 q 419 549 419 501 q 404 601 419 574 q 333 629 389 629 q 254 610 267 629 q 203 483 222 561 q 175 342 183 406 m 167 853 l 178 940 l 569 940 l 558 853 l 167 853 z "},"ę":{"ha":540,"x_min":56,"x_max":525,"o":"m 294 -246 q 221 -228 251 -246 q 190 -158 190 -210 q 213 -78 190 -115 q 276 -11 236 -40 q 260 -12 271 -12 q 105 33 154 -12 q 56 203 56 78 q 90 424 56 306 q 197 628 125 543 q 378 713 268 713 q 490 667 456 713 q 525 578 525 622 q 476 408 525 464 q 347 328 428 353 q 169 283 267 303 q 169 273 169 278 q 168 264 168 268 q 197 110 168 150 q 303 71 225 71 q 403 103 356 71 q 450 135 450 135 l 476 94 q 450 65 476 93 q 376 14 424 38 q 321 -31 360 4 q 282 -119 282 -65 q 339 -175 282 -175 q 392 -161 367 -175 q 418 -147 418 -147 l 440 -181 q 399 -213 440 -181 q 294 -246 358 -246 m 175 342 q 340 397 288 367 q 406 465 392 428 q 419 549 419 501 q 404 601 419 574 q 333 629 389 629 q 254 610 267 629 q 203 483 222 561 q 175 342 183 406 z "},"ẽ":{"ha":539,"x_min":56,"x_max":593,"o":"m 260 -12 q 105 33 154 -12 q 56 203 56 78 q 90 424 56 306 q 197 628 125 543 q 378 713 268 713 q 490 667 456 713 q 525 578 525 622 q 476 408 525 464 q 347 328 428 353 q 169 283 267 303 l 168 264 q 197 110 168 150 q 303 71 225 71 q 450 135 374 71 l 476 94 q 381 17 442 47 q 260 -12 319 -12 m 175 342 q 340 397 288 367 q 406 465 392 428 q 419 549 419 501 q 404 601 419 574 q 333 629 389 629 q 254 610 267 629 q 203 483 222 561 q 175 342 183 406 z "},"ə":{"ha":539,"x_min":14,"x_max":483,"o":"m 279 699 q 434 653 385 699 q 483 483 483 608 q 449 262 483 381 q 342 58 414 143 q 161 -26 271 -26 q 49 19 83 -26 q 14 108 14 64 q 63 278 14 222 q 192 358 111 333 q 369 403 272 383 l 371 422 q 342 576 371 536 q 236 615 314 615 q 89 551 165 615 l 63 592 q 158 669 97 639 q 279 699 219 699 m 364 344 q 199 289 251 319 q 133 222 147 258 q 119 138 119 185 q 135 85 119 113 q 206 57 150 57 q 285 76 272 57 q 336 203 317 125 q 364 344 356 281 z "},"f":{"ha":374,"x_min":47,"x_max":540,"o":"m 47 -243 l 179 625 l 74 625 l 74 669 l 96 704 l 192 704 q 297 914 213 840 q 486 988 381 988 q 540 938 540 988 q 531 896 540 910 q 522 882 521 882 l 426 882 q 375 877 397 882 q 346 865 353 872 q 322 833 340 860 q 296 750 304 806 l 289 704 l 431 704 l 431 660 l 408 625 l 278 625 l 156 -229 l 47 -243 z "},"g":{"ha":660,"x_min":-12,"x_max":628,"o":"m 190 -231 q -12 -104 -12 -231 q 5 -39 -12 -71 q 50 8 22 -7 l 96 8 l 96 -122 q 217 -162 136 -162 q 343 -128 303 -162 q 403 0 383 -93 q 431 133 422 94 q 460 210 440 171 l 456 213 q 362 99 433 153 q 233 44 290 44 q 74 263 74 44 q 119 474 74 369 q 233 645 164 578 q 374 713 303 713 q 540 669 458 713 l 575 718 l 628 718 l 513 22 q 409 -165 493 -99 q 190 -231 325 -231 m 271 128 q 352 161 303 128 q 449 247 401 194 l 504 569 q 410 608 463 592 q 319 624 358 624 q 281 611 290 624 q 217 463 246 568 q 188 276 188 357 q 211 169 188 211 q 271 128 235 128 z "},"ǵ":{"ha":660,"x_min":-12,"x_max":628,"o":"m 190 -231 q -12 -104 -12 -231 q 5 -39 -12 -71 q 50 8 22 -7 l 96 8 l 96 -122 q 217 -162 136 -162 q 343 -128 303 -162 q 403 0 383 -93 q 431 133 422 94 q 460 210 440 171 l 456 213 q 362 99 433 153 q 233 44 290 44 q 74 263 74 44 q 119 474 74 369 q 233 645 164 578 q 374 713 303 713 q 540 669 458 713 l 575 718 l 628 718 l 513 22 q 409 -165 493 -99 q 190 -231 325 -231 m 271 128 q 352 161 303 128 q 449 247 401 194 l 504 569 q 410 608 463 592 q 319 624 358 624 q 281 611 290 624 q 217 463 246 568 q 188 276 188 357 q 211 169 188 211 q 271 128 235 128 z "},"ğ":{"ha":660,"x_min":-12,"x_max":646,"o":"m 190 -231 q 42 -199 96 -231 q -12 -104 -12 -168 q 19 -19 -12 -47 q 50 8 50 8 l 96 8 l 96 -122 q 126 -142 96 -122 q 217 -162 156 -162 q 337 -133 293 -162 q 403 0 381 -104 q 431 133 422 94 q 460 210 440 171 l 456 213 q 415 150 447 190 q 336 77 383 110 q 233 44 289 44 q 122 92 169 44 q 74 263 74 139 q 90 377 74 303 q 143 528 107 451 q 236 659 179 606 q 374 713 293 713 q 465 699 421 713 q 540 669 508 686 l 575 718 l 628 718 l 513 22 q 460 -110 500 -53 q 353 -199 421 -167 q 190 -231 286 -231 m 271 128 q 349 158 307 128 q 419 217 390 188 q 449 247 449 247 l 504 569 q 444 597 504 569 q 319 624 385 624 q 281 611 290 624 q 223 481 258 582 q 188 276 188 381 q 221 151 188 175 q 271 128 254 128 m 424 789 q 295 840 335 789 q 256 932 256 890 q 265 961 256 947 q 302 985 279 978 q 343 992 325 992 q 363 913 346 954 q 449 872 381 872 q 538 903 500 872 q 596 963 575 933 q 617 993 617 993 l 646 968 q 626 923 646 968 q 558 833 607 878 q 424 789 510 789 z "},"ǧ":{"ha":660,"x_min":-12,"x_max":628,"o":"m 190 -231 q -12 -104 -12 -231 q 5 -39 -12 -71 q 50 8 22 -7 l 96 8 l 96 -122 q 217 -162 136 -162 q 343 -128 303 -162 q 403 0 383 -93 q 431 133 422 94 q 460 210 440 171 l 456 213 q 362 99 433 153 q 233 44 290 44 q 74 263 74 44 q 119 474 74 369 q 233 645 164 578 q 374 713 303 713 q 540 669 458 713 l 575 718 l 628 718 l 513 22 q 409 -165 493 -99 q 190 -231 325 -231 m 271 128 q 352 161 303 128 q 449 247 401 194 l 504 569 q 410 608 463 592 q 319 624 358 624 q 281 611 290 624 q 217 463 246 568 q 188 276 188 357 q 211 169 188 211 q 271 128 235 128 z "},"ĝ":{"ha":660,"x_min":-12,"x_max":628,"o":"m 190 -231 q -12 -104 -12 -231 q 5 -39 -12 -71 q 50 8 22 -7 l 96 8 l 96 -122 q 217 -162 136 -162 q 343 -128 303 -162 q 403 0 383 -93 q 431 133 422 94 q 460 210 440 171 l 456 213 q 362 99 433 153 q 233 44 290 44 q 74 263 74 44 q 119 474 74 369 q 233 645 164 578 q 374 713 303 713 q 540 669 458 713 l 575 718 l 628 718 l 513 22 q 409 -165 493 -99 q 190 -231 325 -231 m 271 128 q 352 161 303 128 q 449 247 401 194 l 504 569 q 410 608 463 592 q 319 624 358 624 q 281 611 290 624 q 217 463 246 568 q 188 276 188 357 q 211 169 188 211 q 271 128 235 128 z "},"ģ":{"ha":660,"x_min":-12,"x_max":628,"o":"m 190 -231 q 42 -199 96 -231 q -12 -104 -12 -168 q 19 -19 -12 -47 q 50 8 50 8 l 96 8 l 96 -122 q 126 -142 96 -122 q 217 -162 156 -162 q 337 -133 293 -162 q 403 0 381 -104 q 431 133 422 94 q 460 210 440 171 l 456 213 q 415 150 447 190 q 336 77 383 110 q 233 44 289 44 q 122 92 169 44 q 74 263 74 139 q 90 377 74 303 q 143 528 107 451 q 236 659 179 606 q 374 713 293 713 q 465 699 421 713 q 540 669 508 686 l 575 718 l 628 718 l 513 22 q 460 -110 500 -53 q 353 -199 421 -167 q 190 -231 286 -231 m 271 128 q 349 158 307 128 q 419 217 390 188 q 449 247 449 247 l 504 569 q 444 597 504 569 q 319 624 385 624 q 281 611 290 624 q 223 481 258 582 q 188 276 188 381 q 221 151 188 175 q 271 128 254 128 m 438 776 q 388 795 410 776 q 367 857 367 814 q 394 931 367 899 q 451 985 421 964 q 493 1010 482 1006 l 515 986 q 489 955 513 983 q 465 888 465 926 q 477 837 465 856 q 499 808 489 818 q 478 788 493 800 q 438 776 464 776 z "},"ġ":{"ha":660,"x_min":-12,"x_max":628,"o":"m 190 -231 q -12 -104 -12 -231 q 5 -39 -12 -71 q 50 8 22 -7 l 96 8 l 96 -122 q 217 -162 136 -162 q 343 -128 303 -162 q 403 0 383 -93 q 431 133 422 94 q 460 210 440 171 l 456 213 q 362 99 433 153 q 233 44 290 44 q 74 263 74 44 q 119 474 74 369 q 233 645 164 578 q 374 713 303 713 q 540 669 458 713 l 575 718 l 628 718 l 513 22 q 409 -165 493 -99 q 190 -231 325 -231 m 271 128 q 352 161 303 128 q 449 247 401 194 l 504 569 q 410 608 463 592 q 319 624 358 624 q 281 611 290 624 q 217 463 246 568 q 188 276 188 357 q 211 169 188 211 q 271 128 235 128 z "},"h":{"ha":725,"x_min":71,"x_max":656,"o":"m 219 871 l 110 893 l 110 944 l 315 971 l 315 871 l 275 611 q 369 673 303 633 q 497 713 435 713 q 597 676 569 713 q 624 586 624 639 q 619 528 624 558 q 611 476 614 497 l 551 92 l 656 92 l 656 38 q 615 16 656 38 q 525 -6 574 -6 q 462 10 481 -6 q 443 65 443 26 q 444 80 443 72 q 446 96 444 88 l 511 490 q 518 550 518 525 q 506 599 518 581 q 451 618 494 618 q 341 592 394 618 q 267 553 288 567 l 182 0 l 71 0 l 219 871 z "},"ħ":{"ha":725,"x_min":71,"x_max":656,"o":"m 525 -6 q 462 10 481 -6 q 443 65 443 26 q 444 80 443 72 q 446 96 444 88 l 511 490 q 518 550 518 525 q 506 599 518 581 q 451 618 494 618 q 341 592 394 618 q 267 553 288 567 l 182 0 l 71 0 l 206 785 l 111 785 l 111 851 l 215 851 l 219 871 l 146 915 l 146 949 l 315 971 l 315 871 l 313 851 l 522 851 l 522 785 l 301 785 l 275 611 q 369 673 303 633 q 497 713 435 713 q 597 676 569 713 q 624 586 624 639 q 619 528 624 558 q 611 476 614 497 l 551 92 l 656 92 l 656 38 q 615 16 656 38 q 525 -6 574 -6 z "},"ĥ":{"ha":725,"x_min":71,"x_max":656,"o":"m 219 871 l 110 893 l 110 944 l 315 971 l 315 871 l 275 611 q 369 673 303 633 q 497 713 435 713 q 597 676 569 713 q 624 586 624 639 q 619 528 624 558 q 611 476 614 497 l 551 92 l 656 92 l 656 38 q 615 16 656 38 q 525 -6 574 -6 q 462 10 481 -6 q 443 65 443 26 q 444 80 443 72 q 446 96 444 88 l 511 490 q 518 550 518 525 q 506 599 518 581 q 451 618 494 618 q 341 592 394 618 q 267 553 288 567 l 182 0 l 71 0 l 219 871 z "},"ḥ":{"ha":725,"x_min":71,"x_max":656,"o":"m 219 871 l 110 893 l 110 944 l 315 971 l 315 871 l 275 611 q 369 673 303 633 q 497 713 435 713 q 597 676 569 713 q 624 586 624 639 q 619 528 624 558 q 611 476 614 497 l 551 92 l 656 92 l 656 38 q 615 16 656 38 q 525 -6 574 -6 q 462 10 481 -6 q 443 65 443 26 q 444 80 443 72 q 446 96 444 88 l 511 490 q 518 550 518 525 q 506 599 518 581 q 451 618 494 618 q 341 592 394 618 q 267 553 288 567 l 182 0 l 71 0 l 219 871 m 286 -231 q 235 -210 254 -231 q 215 -158 215 -189 q 235 -97 215 -126 q 299 -67 256 -67 q 351 -87 331 -67 q 371 -142 371 -107 q 350 -202 371 -174 q 286 -231 329 -231 z "},"i":{"ha":400,"x_min":79,"x_max":333,"o":"m 249 821 q 197 842 217 821 q 178 893 178 863 q 198 955 178 925 q 261 985 218 985 q 313 965 292 985 q 333 910 333 944 q 313 849 333 878 q 249 821 292 821 m 189 603 l 79 626 l 79 678 l 289 704 l 289 600 l 203 92 l 304 92 l 304 38 q 264 16 304 38 q 175 -6 224 -6 q 112 10 131 -6 q 93 65 93 26 q 94 81 93 72 q 97 99 94 90 l 189 603 z "},"ı":{"ha":400,"x_min":79,"x_max":304,"o":"m 189 603 l 79 626 l 79 678 l 289 704 l 289 600 l 203 92 l 304 92 l 304 38 q 264 16 304 38 q 175 -6 224 -6 q 112 10 131 -6 q 93 65 93 26 q 94 81 93 72 q 97 99 94 90 l 189 603 z "},"í":{"ha":400,"x_min":79,"x_max":371,"o":"m 175 -6 q 112 10 131 -6 q 93 65 93 26 q 94 81 93 72 q 97 99 94 90 l 189 603 l 79 626 l 79 678 l 289 704 l 289 600 l 203 92 l 304 92 l 304 38 q 264 16 304 38 q 175 -6 224 -6 m 156 776 l 119 821 l 313 1018 q 360 985 349 1006 q 371 946 371 964 q 344 902 371 924 q 296 867 318 881 l 156 776 z "},"ĭ":{"ha":400,"x_min":79,"x_max":472,"o":"m 189 603 l 79 626 l 79 678 l 289 704 l 289 600 l 203 92 l 304 92 l 304 38 q 264 16 304 38 q 175 -6 224 -6 q 112 10 131 -6 q 93 65 93 26 q 94 81 93 72 q 97 99 94 90 l 189 603 z "},"ǐ":{"ha":400,"x_min":79,"x_max":464,"o":"m 189 603 l 79 626 l 79 678 l 289 704 l 289 600 l 203 92 l 304 92 l 304 38 q 264 16 304 38 q 175 -6 224 -6 q 112 10 131 -6 q 93 65 93 26 q 94 81 93 72 q 97 99 94 90 l 189 603 z "},"î":{"ha":400,"x_min":46,"x_max":392,"o":"m 175 -6 q 112 10 131 -6 q 93 65 93 26 q 94 81 93 72 q 97 99 94 90 l 189 603 l 79 626 l 79 678 l 289 704 l 289 600 l 203 92 l 304 92 l 304 38 q 264 16 304 38 q 175 -6 224 -6 m 350 788 l 226 892 l 86 792 l 46 831 l 175 960 q 212 996 190 975 q 244 1017 233 1017 q 266 1003 256 1017 q 294 971 276 990 l 392 836 l 350 788 z "},"ȉ":{"ha":400,"x_min":51,"x_max":425,"o":"m 189 603 l 79 626 l 79 678 l 289 704 l 289 600 l 203 92 l 304 92 l 304 38 q 264 16 304 38 q 175 -6 224 -6 q 112 10 131 -6 q 93 65 93 26 q 94 81 93 72 q 97 99 94 90 l 189 603 m 375 779 l 299 882 q 263 960 263 932 q 279 999 263 978 q 357 1035 296 1019 l 425 810 l 375 779 m 164 779 l 88 882 q 51 960 51 932 q 68 999 51 978 q 146 1035 85 1019 l 214 810 l 164 779 z "},"ï":{"ha":400,"x_min":35,"x_max":443,"o":"m 175 -6 q 112 10 131 -6 q 93 65 93 26 q 94 81 93 72 q 97 99 94 90 l 189 603 l 79 626 l 79 678 l 289 704 l 289 600 l 203 92 l 304 92 l 304 38 q 264 16 304 38 q 175 -6 224 -6 m 96 825 q 51 842 68 825 q 35 885 35 860 q 56 949 35 917 q 121 981 78 981 q 167 963 149 981 q 185 915 185 946 q 161 854 185 883 q 96 825 138 825 m 356 825 q 310 842 328 825 q 293 885 293 860 q 315 949 293 917 q 381 981 336 981 q 426 963 408 981 q 443 915 443 946 q 420 854 443 883 q 356 825 397 825 z "},"ị":{"ha":400,"x_min":61,"x_max":333,"o":"m 249 821 q 197 842 217 821 q 178 893 178 863 q 198 955 178 925 q 261 985 218 985 q 313 965 292 985 q 333 910 333 944 q 313 849 333 878 q 249 821 292 821 m 189 603 l 79 626 l 79 678 l 289 704 l 289 600 l 203 92 l 304 92 l 304 38 q 264 16 304 38 q 175 -6 224 -6 q 112 10 131 -6 q 93 65 93 26 q 94 81 93 72 q 97 99 94 90 l 189 603 m 132 -231 q 81 -210 100 -231 q 61 -158 61 -189 q 81 -97 61 -126 q 144 -67 101 -67 q 197 -87 176 -67 q 217 -142 217 -107 q 196 -202 217 -174 q 132 -231 175 -231 z "},"ì":{"ha":400,"x_min":79,"x_max":331,"o":"m 189 603 l 79 626 l 79 678 l 289 704 l 289 600 l 203 92 l 304 92 l 304 38 q 264 16 304 38 q 175 -6 224 -6 q 112 10 131 -6 q 93 65 93 26 q 94 81 93 72 q 97 99 94 90 l 189 603 m 154 867 q 106 902 132 881 q 79 946 79 924 q 90 985 79 964 q 138 1018 101 1006 l 331 821 l 294 776 l 154 867 z "},"ỉ":{"ha":400,"x_min":79,"x_max":426,"o":"m 189 603 l 79 626 l 79 678 l 289 704 l 289 600 l 203 92 l 304 92 l 304 38 q 264 16 304 38 q 175 -6 224 -6 q 112 10 131 -6 q 93 65 93 26 q 94 81 93 72 q 97 99 94 90 l 189 603 m 221 744 q 214 782 214 769 q 275 844 214 819 q 318 869 306 858 q 331 899 331 881 q 268 931 331 931 q 178 919 226 931 q 172 937 174 929 q 171 951 171 944 q 190 994 171 982 q 261 1006 210 1006 q 426 906 426 1006 q 401 845 426 868 q 332 803 376 822 q 294 780 301 790 q 288 751 288 769 l 221 744 z "},"ȋ":{"ha":400,"x_min":79,"x_max":472,"o":"m 189 603 l 79 626 l 79 678 l 289 704 l 289 600 l 203 92 l 304 92 l 304 38 q 264 16 304 38 q 175 -6 224 -6 q 112 10 131 -6 q 93 65 93 26 q 94 81 93 72 q 97 99 94 90 l 189 603 m 111 789 l 82 814 q 101 858 82 814 q 169 948 121 903 q 304 993 218 993 q 433 942 393 993 q 472 850 472 892 q 464 822 472 835 q 427 797 451 804 q 385 790 403 790 q 365 869 382 828 q 279 910 347 910 q 190 880 228 910 q 132 819 153 850 q 111 789 111 789 z "},"ĳ":{"ha":743,"x_min":79,"x_max":703,"o":"m 249 821 q 197 842 217 821 q 178 893 178 863 q 198 955 178 925 q 261 985 218 985 q 313 965 292 985 q 333 910 333 944 q 313 849 333 878 q 249 821 292 821 m 189 603 l 79 626 l 79 678 l 289 704 l 289 600 l 203 92 l 304 92 l 304 38 q 264 16 304 38 q 175 -6 224 -6 q 112 10 131 -6 q 93 65 93 26 q 94 81 93 72 q 97 99 94 90 l 189 603 m 288 -232 q 233 -182 233 -232 q 243 -140 233 -154 q 251 -126 253 -126 l 347 -126 q 428 -110 411 -126 q 451 -77 433 -104 q 478 6 469 -50 l 572 611 l 463 635 l 463 686 l 672 713 l 672 613 l 589 51 q 480 -163 567 -94 q 288 -232 393 -232 m 618 810 q 567 831 586 810 q 547 882 547 851 q 567 944 547 914 q 631 974 588 974 q 683 953 663 974 q 703 899 703 933 q 682 838 703 867 q 618 810 661 810 z "},"ī":{"ha":400,"x_min":39,"x_max":397,"o":"m 53 935 l 397 935 l 383 847 l 39 847 l 53 935 m 189 603 l 79 626 l 79 678 l 289 704 l 289 600 l 203 92 l 304 92 l 304 38 q 264 16 304 38 q 175 -6 224 -6 q 112 10 131 -6 q 93 65 93 26 q 94 81 93 72 q 97 99 94 90 l 189 603 z "},"į":{"ha":400,"x_min":75,"x_max":333,"o":"m 179 -246 q 106 -228 136 -246 q 75 -158 75 -210 q 110 -62 75 -106 q 200 11 144 -18 l 218 -4 q 179 -7 190 -7 q 113 9 133 -7 q 93 65 93 25 q 94 81 93 72 q 97 99 94 90 l 189 603 l 79 626 l 79 678 l 289 704 l 289 600 l 203 92 l 304 92 l 304 38 q 291 30 304 38 q 260 14 278 22 q 205 -31 243 3 q 167 -119 167 -65 q 224 -175 167 -175 q 277 -161 251 -175 q 303 -147 303 -147 l 325 -181 q 284 -213 325 -181 q 179 -246 243 -246 m 249 821 q 197 842 217 821 q 178 893 178 863 q 198 955 178 925 q 261 985 218 985 q 313 965 292 985 q 333 910 333 944 q 313 849 333 878 q 249 821 292 821 z "},"ĩ":{"ha":400,"x_min":64,"x_max":493,"o":"m 189 603 l 79 626 l 79 678 l 289 704 l 289 600 l 203 92 l 304 92 l 304 38 q 264 16 304 38 q 175 -6 224 -6 q 112 10 131 -6 q 93 65 93 26 q 94 81 93 72 q 97 99 94 90 l 189 603 z "},"j":{"ha":378,"x_min":-132,"x_max":338,"o":"m -78 -232 q -132 -182 -132 -232 q -122 -140 -132 -154 q -114 -126 -112 -126 l -18 -126 q 63 -110 46 -126 q 86 -77 68 -104 q 113 6 104 -50 l 207 611 l 97 635 l 97 686 l 307 713 l 307 613 l 224 51 q 115 -163 201 -94 q -78 -232 28 -232 m 253 810 q 201 831 221 810 q 182 882 182 851 q 202 944 182 914 q 265 974 222 974 q 317 953 297 974 q 338 899 338 933 q 317 838 338 867 q 253 810 296 810 z "},"ȷ":{"ha":378,"x_min":-132,"x_max":307,"o":"m -18 -126 q 63 -110 46 -126 q 86 -77 68 -104 q 113 6 104 -50 l 207 611 l 97 635 l 97 686 l 307 713 l 307 613 l 224 51 q 115 -163 201 -94 q -78 -232 28 -232 q -132 -182 -132 -232 q -122 -140 -132 -154 q -114 -126 -112 -126 l -18 -126 z "},"ĵ":{"ha":378,"x_min":-132,"x_max":451,"o":"m -18 -126 q 63 -110 46 -126 q 86 -77 68 -104 q 113 6 104 -50 l 207 611 l 97 635 l 97 686 l 307 713 l 307 613 l 224 51 q 115 -163 201 -94 q -78 -232 28 -232 q -132 -182 -132 -232 q -122 -140 -132 -154 q -114 -126 -112 -126 l -18 -126 z "},"k":{"ha":657,"x_min":60,"x_max":622,"o":"m 208 871 l 99 893 l 99 944 l 304 971 l 304 871 l 264 613 q 355 672 288 631 q 482 713 422 713 q 585 677 549 713 q 622 581 622 642 q 544 414 622 481 q 399 303 467 347 l 500 92 l 618 92 l 618 38 q 585 16 618 38 q 489 -6 553 -6 q 396 58 424 -6 l 296 285 l 296 313 q 441 422 369 353 q 513 554 513 492 q 439 618 513 618 q 329 592 383 618 q 254 553 275 565 l 169 0 l 60 0 l 208 871 z "},"ķ":{"ha":660,"x_min":69,"x_max":632,"o":"m 218 871 l 108 893 l 108 944 l 314 971 l 314 871 l 274 613 q 364 672 297 631 q 492 713 431 713 q 595 677 558 713 q 632 581 632 642 q 554 414 632 481 q 408 303 476 347 l 510 92 l 628 92 l 628 38 q 595 16 628 38 q 499 -6 563 -6 q 406 58 433 -6 l 306 285 l 306 313 q 450 422 378 353 q 522 554 522 492 q 449 618 522 618 q 339 592 393 618 q 264 553 285 565 l 179 0 l 69 0 l 218 871 m 235 -256 q 260 -226 235 -256 q 286 -157 286 -197 q 275 -106 286 -125 q 253 -78 264 -87 q 272 -58 258 -69 q 314 -46 286 -46 q 363 -65 342 -46 q 385 -126 385 -83 q 358 -201 385 -168 q 300 -254 331 -233 q 258 -279 269 -275 l 235 -256 z "},"ĸ":{"ha":676,"x_min":79,"x_max":642,"o":"m 418 303 l 519 92 l 638 92 l 638 38 q 605 16 638 38 q 508 -6 572 -6 q 415 58 443 -6 l 315 285 l 315 313 q 460 422 389 353 q 532 556 532 492 q 458 618 532 618 q 351 590 403 618 q 279 549 300 563 l 189 0 l 79 0 l 189 603 l 79 626 l 79 678 l 289 704 l 289 611 q 383 674 319 635 q 513 713 446 713 q 606 676 569 713 q 642 579 642 640 q 564 414 642 481 q 418 303 486 347 z "},"l":{"ha":376,"x_min":83,"x_max":315,"o":"m 221 871 l 111 893 l 111 944 l 315 971 l 315 871 l 193 92 l 294 92 l 294 38 q 257 16 294 38 q 171 -6 219 -6 q 106 10 128 -6 q 83 65 83 26 q 84 80 83 72 q 86 96 85 88 l 221 871 z "},"ĺ":{"ha":376,"x_min":82,"x_max":418,"o":"m 169 -6 q 103 10 125 -6 q 82 65 82 26 q 83 80 82 72 q 85 96 83 88 l 219 871 l 110 893 l 110 944 l 314 978 l 314 871 l 192 92 l 293 92 l 293 38 q 256 16 293 38 q 169 -6 218 -6 m 129 978 l 107 1029 l 378 1174 q 418 1106 418 1149 q 400 1065 418 1076 q 346 1043 382 1053 l 129 978 z "},"ľ":{"ha":376,"x_min":82,"x_max":481,"o":"m 347 800 q 365 833 347 800 q 382 918 382 865 q 377 950 382 936 q 363 979 372 964 q 381 999 368 988 q 422 1011 394 1011 q 465 994 450 1011 q 481 949 481 976 q 458 861 481 897 q 408 804 435 825 q 369 779 381 783 l 347 800 m 219 871 l 110 893 l 110 944 l 314 971 l 314 871 l 192 92 l 293 92 l 293 38 q 256 16 293 38 q 169 -6 218 -6 q 103 10 125 -6 q 82 65 82 26 q 83 80 82 72 q 85 96 83 88 l 219 871 z "},"ļ":{"ha":376,"x_min":60,"x_max":314,"o":"m 219 871 l 110 893 l 110 944 l 314 971 l 314 871 l 192 92 l 293 92 l 293 38 q 256 16 293 38 q 169 -6 218 -6 q 103 10 125 -6 q 82 65 82 26 q 83 80 82 72 q 85 96 83 88 l 219 871 m 60 -256 q 85 -226 60 -256 q 111 -157 111 -197 q 100 -106 111 -125 q 78 -78 89 -87 q 97 -58 83 -69 q 139 -46 111 -46 q 188 -65 167 -46 q 210 -126 210 -83 q 183 -201 210 -168 q 125 -254 156 -233 q 83 -279 94 -275 l 60 -256 z "},"ŀ":{"ha":376,"x_min":83,"x_max":467,"o":"m 221 871 l 111 893 l 111 944 l 315 971 l 315 871 l 193 92 l 294 92 l 294 38 q 257 16 294 38 q 171 -6 219 -6 q 106 10 128 -6 q 83 65 83 26 q 84 80 83 72 q 86 96 85 88 l 221 871 m 372 411 q 306 478 306 411 q 331 550 306 518 q 399 582 357 582 q 448 563 429 582 q 467 515 467 544 q 442 444 467 476 q 372 411 418 411 z "},"ǉ":{"ha":754,"x_min":83,"x_max":714,"o":"m 221 871 l 111 893 l 111 944 l 315 971 l 315 871 l 193 92 l 294 92 l 294 38 q 257 16 294 38 q 171 -6 219 -6 q 106 10 128 -6 q 83 65 83 26 q 84 80 83 72 q 86 96 85 88 l 221 871 m 299 -232 q 244 -182 244 -232 q 254 -140 244 -154 q 263 -126 264 -126 l 358 -126 q 439 -110 422 -126 q 463 -77 444 -104 q 489 6 481 -50 l 583 611 l 474 635 l 474 686 l 683 713 l 683 613 l 600 51 q 491 -163 578 -94 q 299 -232 404 -232 m 629 810 q 578 831 597 810 q 558 882 558 851 q 578 944 558 914 q 642 974 599 974 q 694 953 674 974 q 714 899 714 933 q 693 838 714 867 q 629 810 672 810 z "},"ł":{"ha":376,"x_min":-1,"x_max":390,"o":"m 136 396 l -1 343 l -1 414 l 150 474 l 219 871 l 110 893 l 110 944 l 314 971 l 314 871 l 258 517 l 390 569 l 390 494 l 246 439 l 192 92 l 293 92 l 293 38 q 256 16 293 38 q 169 -6 218 -6 q 103 10 125 -6 q 82 65 82 26 q 83 80 82 72 q 85 96 83 88 l 136 396 z "},"m":{"ha":1089,"x_min":79,"x_max":1015,"o":"m 194 603 l 86 626 l 86 678 l 294 704 l 294 610 q 331 635 294 610 q 419 687 367 661 q 522 713 472 713 q 613 679 588 713 q 640 606 639 646 q 690 640 651 614 q 778 690 728 667 q 875 713 828 713 q 969 679 942 713 q 996 604 996 646 q 990 556 996 589 q 982 501 985 522 l 914 92 l 1015 92 l 1015 38 q 974 16 1015 38 q 885 -6 933 -6 q 821 10 842 -6 q 800 65 800 26 q 801 80 800 72 q 803 96 801 88 l 874 478 q 880 523 878 501 q 882 558 882 544 q 872 598 882 578 q 822 618 861 618 q 713 592 768 618 q 636 551 658 567 q 632 524 633 538 q 629 501 631 511 l 549 0 l 436 0 l 519 478 q 525 523 524 501 q 526 558 526 544 q 517 598 526 578 q 469 618 508 618 q 345 585 406 618 q 285 551 285 551 l 199 0 l 79 0 l 194 603 z "},"n":{"ha":740,"x_min":79,"x_max":667,"o":"m 189 603 l 79 626 l 79 678 l 289 704 l 289 610 q 382 671 314 629 q 514 713 450 713 q 613 676 586 713 q 640 586 640 639 q 635 528 640 558 q 628 476 631 497 l 563 92 l 667 92 l 667 38 q 626 16 667 38 q 538 -6 586 -6 q 474 10 494 -6 q 454 65 454 26 q 455 80 454 72 q 457 96 456 88 l 528 490 q 533 518 531 500 q 535 554 535 536 q 522 601 535 585 q 465 618 508 618 q 351 590 406 618 q 279 550 297 561 l 193 0 l 79 0 l 189 603 z "},"ń":{"ha":740,"x_min":79,"x_max":667,"o":"m 538 -6 q 474 10 494 -6 q 454 65 454 26 q 455 80 454 72 q 457 96 456 88 l 528 490 q 533 518 531 500 q 535 554 535 536 q 522 601 535 585 q 465 618 508 618 q 351 590 406 618 q 279 550 297 561 l 193 0 l 79 0 l 189 603 l 79 626 l 79 678 l 289 704 l 289 610 q 382 671 314 629 q 514 713 450 713 q 613 676 586 713 q 640 586 640 639 q 635 528 640 558 q 628 476 631 497 l 563 92 l 667 92 l 667 38 q 626 16 667 38 q 538 -6 586 -6 m 394 776 l 358 821 l 551 1018 q 599 985 588 1006 q 610 946 610 964 q 583 902 610 924 q 535 867 557 881 l 394 776 z "},"ŉ":{"ha":833,"x_min":79,"x_max":667,"o":"m 88 800 q 105 833 88 800 q 122 918 122 865 q 118 950 122 936 q 103 979 114 964 q 122 999 108 988 q 163 1011 136 1011 q 206 994 190 1011 q 221 949 221 976 q 198 861 221 897 q 148 804 175 825 q 110 779 121 783 l 88 800 m 189 603 l 79 626 l 79 678 l 289 704 l 289 610 q 382 671 314 629 q 514 713 450 713 q 613 676 586 713 q 640 586 640 639 q 635 528 640 558 q 628 476 631 497 l 563 92 l 667 92 l 667 38 q 626 16 667 38 q 538 -6 586 -6 q 474 10 494 -6 q 454 65 454 26 q 455 80 454 72 q 457 96 456 88 l 528 490 q 533 518 531 500 q 535 554 535 536 q 522 601 535 585 q 465 618 508 618 q 351 590 406 618 q 279 550 297 561 l 193 0 l 79 0 l 189 603 z "},"ň":{"ha":740,"x_min":79,"x_max":667,"o":"m 189 603 l 79 626 l 79 678 l 289 704 l 289 610 q 382 671 314 629 q 514 713 450 713 q 613 676 586 713 q 640 586 640 639 q 635 528 640 558 q 628 476 631 497 l 563 92 l 667 92 l 667 38 q 626 16 667 38 q 538 -6 586 -6 q 474 10 494 -6 q 454 65 454 26 q 455 80 454 72 q 457 96 456 88 l 528 490 q 533 518 531 500 q 535 554 535 536 q 522 601 535 585 q 465 618 508 618 q 351 590 406 618 q 279 550 297 561 l 193 0 l 79 0 l 189 603 m 265 967 l 311 1015 l 444 901 l 600 1013 l 636 971 l 494 838 q 457 801 478 822 q 425 781 436 781 q 403 794 414 781 q 375 826 393 807 l 265 967 z "},"ņ":{"ha":740,"x_min":79,"x_max":667,"o":"m 189 603 l 79 626 l 79 678 l 289 704 l 289 610 q 382 671 314 629 q 514 713 450 713 q 613 676 586 713 q 640 586 640 639 q 635 528 640 558 q 628 476 631 497 l 563 92 l 667 92 l 667 38 q 626 16 667 38 q 538 -6 586 -6 q 474 10 494 -6 q 454 65 454 26 q 455 80 454 72 q 457 96 456 88 l 528 490 q 533 518 531 500 q 535 554 535 536 q 522 601 535 585 q 465 618 508 618 q 351 590 406 618 q 279 550 297 561 l 193 0 l 79 0 l 189 603 m 278 -256 q 303 -226 278 -256 q 329 -157 329 -197 q 317 -106 329 -125 q 296 -78 306 -87 q 316 -58 301 -69 q 357 -46 331 -46 q 406 -65 385 -46 q 428 -126 428 -83 q 401 -201 428 -168 q 343 -254 374 -233 q 301 -279 313 -275 l 278 -256 z "},"ṅ":{"ha":740,"x_min":79,"x_max":667,"o":"m 189 603 l 79 626 l 79 678 l 289 704 l 289 610 q 382 671 314 629 q 514 713 450 713 q 613 676 586 713 q 640 586 640 639 q 635 528 640 558 q 628 476 631 497 l 563 92 l 667 92 l 667 38 q 626 16 667 38 q 538 -6 586 -6 q 474 10 494 -6 q 454 65 454 26 q 455 80 454 72 q 457 96 456 88 l 528 490 q 533 518 531 500 q 535 554 535 536 q 522 601 535 585 q 465 618 508 618 q 351 590 406 618 q 279 550 297 561 l 193 0 l 79 0 l 189 603 z "},"ŋ":{"ha":718,"x_min":79,"x_max":640,"o":"m 263 -232 q 208 -182 208 -232 q 226 -126 208 -153 l 322 -126 q 373 -122 350 -126 q 403 -110 396 -117 q 453 6 440 -72 l 526 483 q 535 554 535 536 q 465 618 535 618 q 379 599 431 618 q 279 550 328 581 l 193 0 l 79 0 l 189 603 l 79 626 l 79 678 l 289 704 l 289 610 q 408 683 344 654 q 514 713 472 713 q 640 586 640 713 q 638 550 640 568 q 628 476 636 532 l 564 51 q 463 -156 544 -81 q 263 -232 382 -232 z "},"ɲ":{"ha":760,"x_min":-132,"x_max":686,"o":"m 582 92 l 686 92 l 686 38 q 646 16 686 38 q 557 -6 606 -6 q 494 10 514 -6 q 474 65 474 26 q 474 80 474 72 q 476 96 475 88 l 547 490 q 552 518 550 500 q 554 554 554 536 q 541 601 554 585 q 485 618 528 618 q 371 590 425 618 q 299 550 317 561 l 224 51 q 115 -163 201 -94 q -78 -232 28 -232 q -132 -182 -132 -232 q -122 -140 -132 -154 q -114 -126 -112 -126 l -18 -126 q 63 -110 46 -126 q 86 -77 68 -104 q 113 6 104 -50 l 208 603 l 99 626 l 99 678 l 308 704 l 308 610 q 401 671 333 629 q 533 713 469 713 q 633 676 606 713 q 660 586 660 639 q 655 528 660 558 q 647 476 650 497 l 582 92 z "},"ǌ":{"ha":1118,"x_min":79,"x_max":1078,"o":"m 189 603 l 79 626 l 79 678 l 289 704 l 289 610 q 382 671 314 629 q 514 713 450 713 q 613 676 586 713 q 640 586 640 639 q 635 528 640 558 q 628 476 631 497 l 563 92 l 667 92 l 667 38 q 626 16 667 38 q 538 -6 586 -6 q 474 10 494 -6 q 454 65 454 26 q 455 80 454 72 q 457 96 456 88 l 528 490 q 533 518 531 500 q 535 554 535 536 q 522 601 535 585 q 465 618 508 618 q 351 590 406 618 q 279 550 297 561 l 193 0 l 79 0 l 189 603 m 663 -232 q 608 -182 608 -232 q 618 -140 608 -154 q 626 -126 628 -126 l 722 -126 q 803 -110 786 -126 q 826 -77 808 -104 q 853 6 844 -50 l 947 611 l 838 635 l 838 686 l 1047 713 l 1047 613 l 964 51 q 855 -163 942 -94 q 663 -232 768 -232 m 993 810 q 942 831 961 810 q 922 882 922 851 q 942 944 922 914 q 1006 974 963 974 q 1058 953 1038 974 q 1078 899 1078 933 q 1057 838 1078 867 q 993 810 1036 810 z "},"ñ":{"ha":740,"x_min":79,"x_max":667,"o":"m 538 -6 q 474 10 494 -6 q 454 65 454 26 q 455 80 454 72 q 457 96 456 88 l 528 490 q 533 518 531 500 q 535 554 535 536 q 522 601 535 585 q 465 618 508 618 q 351 590 406 618 q 279 550 297 561 l 193 0 l 79 0 l 189 603 l 79 626 l 79 678 l 289 704 l 289 610 q 382 671 314 629 q 514 713 450 713 q 613 676 586 713 q 640 586 640 639 q 635 528 640 558 q 628 476 631 497 l 563 92 l 667 92 l 667 38 q 626 16 667 38 q 538 -6 586 -6 m 529 826 q 488 833 511 826 q 442 849 464 840 l 349 881 l 250 832 l 224 858 l 272 921 q 346 972 313 972 q 388 965 364 972 q 435 950 411 957 l 528 918 l 626 967 l 653 940 l 604 882 q 568 842 586 858 q 529 826 550 826 z "},"o":{"ha":636,"x_min":56,"x_max":581,"o":"m 247 -12 q 104 48 153 -12 q 56 219 56 108 q 144 570 56 428 q 393 713 233 713 q 536 651 492 713 q 581 478 581 589 q 542 228 581 339 q 428 52 503 117 q 247 -12 353 -12 m 300 69 q 349 73 322 69 q 390 89 376 76 q 437 203 407 104 q 467 422 467 303 q 441 585 467 542 q 338 629 415 629 q 288 623 314 629 q 249 604 263 617 q 201 492 232 589 q 169 276 169 394 q 196 110 169 151 q 300 69 222 69 z "},"ó":{"ha":636,"x_min":56,"x_max":581,"o":"m 247 -12 q 104 48 153 -12 q 56 219 56 108 q 144 570 56 428 q 393 713 233 713 q 536 651 492 713 q 581 478 581 589 q 542 228 581 339 q 428 52 503 117 q 247 -12 353 -12 m 300 69 q 349 73 322 69 q 390 89 376 76 q 437 203 407 104 q 467 422 467 303 q 441 585 467 542 q 338 629 415 629 q 288 623 314 629 q 249 604 263 617 q 201 492 232 589 q 169 276 169 394 q 196 110 169 151 q 300 69 222 69 m 311 776 l 275 821 l 468 1018 q 515 985 504 1006 q 526 946 526 964 q 500 902 526 924 q 451 867 474 881 l 311 776 z "},"ŏ":{"ha":636,"x_min":56,"x_max":614,"o":"m 247 -12 q 104 48 153 -12 q 56 219 56 108 q 144 570 56 428 q 393 713 233 713 q 536 651 492 713 q 581 478 581 589 q 542 228 581 339 q 428 52 503 117 q 247 -12 353 -12 m 300 69 q 349 73 322 69 q 390 89 376 76 q 437 203 407 104 q 467 422 467 303 q 441 585 467 542 q 338 629 415 629 q 288 623 314 629 q 249 604 263 617 q 201 492 232 589 q 169 276 169 394 q 196 110 169 151 q 300 69 222 69 z "},"ǒ":{"ha":636,"x_min":56,"x_max":606,"o":"m 247 -12 q 104 48 153 -12 q 56 219 56 108 q 144 570 56 428 q 393 713 233 713 q 536 651 492 713 q 581 478 581 589 q 542 228 581 339 q 428 52 503 117 q 247 -12 353 -12 m 300 69 q 349 73 322 69 q 390 89 376 76 q 437 203 407 104 q 467 422 467 303 q 441 585 467 542 q 338 629 415 629 q 288 623 314 629 q 249 604 263 617 q 201 492 232 589 q 169 276 169 394 q 196 110 169 151 q 300 69 222 69 z "},"ô":{"ha":636,"x_min":56,"x_max":581,"o":"m 247 -12 q 104 48 153 -12 q 56 219 56 108 q 144 570 56 428 q 393 713 233 713 q 536 651 492 713 q 581 478 581 589 q 542 228 581 339 q 428 52 503 117 q 247 -12 353 -12 m 300 69 q 349 73 322 69 q 390 89 376 76 q 437 203 407 104 q 467 422 467 303 q 441 585 467 542 q 338 629 415 629 q 288 623 314 629 q 249 604 263 617 q 201 492 232 589 q 169 276 169 394 q 196 110 169 151 q 300 69 222 69 m 529 781 l 392 890 l 238 785 l 197 824 l 340 958 q 377 994 356 972 q 410 1015 399 1015 q 431 1002 419 1015 q 460 969 442 989 l 571 829 l 529 781 z "},"ố":{"ha":636,"x_min":56,"x_max":729,"o":"m 247 -12 q 104 48 153 -12 q 56 219 56 108 q 144 570 56 428 q 393 713 233 713 q 536 651 492 713 q 581 478 581 589 q 542 228 581 339 q 428 52 503 117 q 247 -12 353 -12 m 300 69 q 349 73 322 69 q 390 89 376 76 q 437 203 407 104 q 467 422 467 303 q 441 585 467 542 q 338 629 415 629 q 288 623 314 629 q 249 604 263 617 q 201 492 232 589 q 169 276 169 394 q 196 110 169 151 q 300 69 222 69 z "},"ộ":{"ha":636,"x_min":56,"x_max":593,"o":"m 247 -12 q 104 48 153 -12 q 56 219 56 108 q 144 570 56 428 q 393 713 233 713 q 536 651 492 713 q 581 478 581 589 q 542 228 581 339 q 428 52 503 117 q 247 -12 353 -12 m 300 69 q 349 73 322 69 q 390 89 376 76 q 437 203 407 104 q 467 422 467 303 q 441 585 467 542 q 338 629 415 629 q 288 623 314 629 q 249 604 263 617 q 201 492 232 589 q 169 276 169 394 q 196 110 169 151 q 300 69 222 69 m 242 -231 q 190 -210 210 -231 q 171 -158 171 -189 q 191 -97 171 -126 q 254 -67 211 -67 q 306 -87 286 -67 q 326 -142 326 -107 q 306 -202 326 -174 q 242 -231 285 -231 z "},"ồ":{"ha":636,"x_min":56,"x_max":654,"o":"m 247 -12 q 104 48 153 -12 q 56 219 56 108 q 144 570 56 428 q 393 713 233 713 q 536 651 492 713 q 581 478 581 589 q 542 228 581 339 q 428 52 503 117 q 247 -12 353 -12 m 300 69 q 349 73 322 69 q 390 89 376 76 q 437 203 407 104 q 467 422 467 303 q 441 585 467 542 q 338 629 415 629 q 288 623 314 629 q 249 604 263 617 q 201 492 232 589 q 169 276 169 394 q 196 110 169 151 q 300 69 222 69 z "},"ổ":{"ha":636,"x_min":56,"x_max":735,"o":"m 247 -12 q 104 48 153 -12 q 56 219 56 108 q 144 570 56 428 q 393 713 233 713 q 536 651 492 713 q 581 478 581 589 q 542 228 581 339 q 428 52 503 117 q 247 -12 353 -12 m 300 69 q 349 73 322 69 q 390 89 376 76 q 437 203 407 104 q 467 422 467 303 q 441 585 467 542 q 338 629 415 629 q 288 623 314 629 q 249 604 263 617 q 201 492 232 589 q 169 276 169 394 q 196 110 169 151 q 300 69 222 69 z "},"ỗ":{"ha":636,"x_min":56,"x_max":658,"o":"m 247 -12 q 104 48 153 -12 q 56 219 56 108 q 144 570 56 428 q 393 713 233 713 q 536 651 492 713 q 581 478 581 589 q 542 228 581 339 q 428 52 503 117 q 247 -12 353 -12 m 300 69 q 349 73 322 69 q 390 89 376 76 q 437 203 407 104 q 467 422 467 303 q 441 585 467 542 q 338 629 415 629 q 288 623 314 629 q 249 604 263 617 q 201 492 232 589 q 169 276 169 394 q 196 110 169 151 q 300 69 222 69 z "},"ȍ":{"ha":636,"x_min":56,"x_max":581,"o":"m 247 -12 q 104 48 153 -12 q 56 219 56 108 q 144 570 56 428 q 393 713 233 713 q 536 651 492 713 q 581 478 581 589 q 542 228 581 339 q 428 52 503 117 q 247 -12 353 -12 m 300 69 q 349 73 322 69 q 390 89 376 76 q 437 203 407 104 q 467 422 467 303 q 441 585 467 542 q 338 629 415 629 q 288 623 314 629 q 249 604 263 617 q 201 492 232 589 q 169 276 169 394 q 196 110 169 151 q 300 69 222 69 m 517 779 l 440 882 q 404 960 404 932 q 421 999 404 978 q 499 1035 438 1019 l 567 810 l 517 779 m 306 779 l 229 882 q 193 960 193 932 q 210 999 193 978 q 288 1035 226 1019 l 356 810 l 306 779 z "},"ö":{"ha":636,"x_min":56,"x_max":597,"o":"m 247 -12 q 104 48 153 -12 q 56 219 56 108 q 144 570 56 428 q 393 713 233 713 q 536 651 492 713 q 581 478 581 589 q 542 228 581 339 q 428 52 503 117 q 247 -12 353 -12 m 300 69 q 349 73 322 69 q 390 89 376 76 q 437 203 407 104 q 467 422 467 303 q 441 585 467 542 q 338 629 415 629 q 288 623 314 629 q 249 604 263 617 q 201 492 232 589 q 169 276 169 394 q 196 110 169 151 q 300 69 222 69 m 250 825 q 206 842 222 825 q 189 885 189 860 q 210 949 189 917 q 275 981 231 981 q 321 963 303 981 q 339 915 339 946 q 315 854 339 883 q 250 825 292 825 m 510 825 q 465 842 482 825 q 447 885 447 860 q 469 949 447 917 q 535 981 492 981 q 580 963 563 981 q 597 915 597 946 q 574 854 597 883 q 510 825 551 825 z "},"ọ":{"ha":636,"x_min":56,"x_max":581,"o":"m 247 -12 q 104 48 153 -12 q 56 219 56 108 q 144 570 56 428 q 393 713 233 713 q 536 651 492 713 q 581 478 581 589 q 542 228 581 339 q 428 52 503 117 q 247 -12 353 -12 m 300 69 q 349 73 322 69 q 390 89 376 76 q 437 203 407 104 q 467 422 467 303 q 441 585 467 542 q 338 629 415 629 q 288 623 314 629 q 249 604 263 617 q 201 492 232 589 q 169 276 169 394 q 196 110 169 151 q 300 69 222 69 m 242 -231 q 190 -210 210 -231 q 171 -158 171 -189 q 191 -97 171 -126 q 254 -67 211 -67 q 306 -87 286 -67 q 326 -142 326 -107 q 306 -202 326 -174 q 242 -231 285 -231 z "},"ò":{"ha":636,"x_min":56,"x_max":581,"o":"m 247 -12 q 104 48 153 -12 q 56 219 56 108 q 144 570 56 428 q 393 713 233 713 q 536 651 492 713 q 581 478 581 589 q 542 228 581 339 q 428 52 503 117 q 247 -12 353 -12 m 300 69 q 349 73 322 69 q 390 89 376 76 q 437 203 407 104 q 467 422 467 303 q 441 585 467 542 q 338 629 415 629 q 288 623 314 629 q 249 604 263 617 q 201 492 232 589 q 169 276 169 394 q 196 110 169 151 q 300 69 222 69 m 465 775 l 325 865 q 276 901 303 879 q 250 944 250 922 q 261 984 250 964 q 308 1017 272 1004 l 501 819 l 465 775 z "},"ỏ":{"ha":636,"x_min":56,"x_max":581,"o":"m 247 -12 q 104 48 153 -12 q 56 219 56 108 q 144 570 56 428 q 393 713 233 713 q 536 651 492 713 q 581 478 581 589 q 542 228 581 339 q 428 52 503 117 q 247 -12 353 -12 m 300 69 q 349 73 322 69 q 390 89 376 76 q 437 203 407 104 q 467 422 467 303 q 441 585 467 542 q 338 629 415 629 q 288 623 314 629 q 249 604 263 617 q 201 492 232 589 q 169 276 169 394 q 196 110 169 151 q 300 69 222 69 m 363 744 q 356 782 356 769 q 417 844 356 819 q 460 869 447 858 q 472 899 472 881 q 410 931 472 931 q 319 919 368 931 q 314 937 315 929 q 313 951 313 944 q 332 994 313 982 q 403 1006 351 1006 q 568 906 568 1006 q 543 845 568 868 q 474 803 518 822 q 436 780 443 790 q 429 751 429 769 l 363 744 z "},"ơ":{"ha":636,"x_min":56,"x_max":746,"o":"m 247 -12 q 104 48 153 -12 q 56 219 56 108 q 144 570 56 428 q 393 713 233 713 q 536 651 492 713 q 581 478 581 589 q 542 228 581 339 q 428 52 503 117 q 247 -12 353 -12 m 300 69 q 349 73 322 69 q 390 89 376 76 q 437 203 407 104 q 467 422 467 303 q 441 585 467 542 q 338 629 415 629 q 288 623 314 629 q 249 604 263 617 q 201 492 232 589 q 169 276 169 394 q 196 110 169 151 q 300 69 222 69 m 485 426 l 482 468 q 594 551 533 500 q 654 658 654 601 q 625 706 654 685 l 625 726 l 701 781 q 731 753 715 769 q 746 694 746 738 q 690 578 746 647 q 485 426 635 508 z "},"ớ":{"ha":636,"x_min":56,"x_max":746,"o":"m 247 -12 q 104 48 153 -12 q 56 219 56 108 q 144 570 56 428 q 393 713 233 713 q 536 651 492 713 q 581 478 581 589 q 542 228 581 339 q 428 52 503 117 q 247 -12 353 -12 m 300 69 q 349 73 322 69 q 390 89 376 76 q 437 203 407 104 q 467 422 467 303 q 441 585 467 542 q 338 629 415 629 q 288 623 314 629 q 249 604 263 617 q 201 492 232 589 q 169 276 169 394 q 196 110 169 151 q 300 69 222 69 m 485 426 l 482 468 q 594 551 533 500 q 654 658 654 601 q 625 706 654 685 l 625 726 l 701 781 q 731 753 715 769 q 746 694 746 738 q 690 578 746 647 q 485 426 635 508 z "},"ợ":{"ha":636,"x_min":56,"x_max":746,"o":"m 247 -12 q 104 48 153 -12 q 56 219 56 108 q 144 570 56 428 q 393 713 233 713 q 536 651 492 713 q 581 478 581 589 q 542 228 581 339 q 428 52 503 117 q 247 -12 353 -12 m 300 69 q 349 73 322 69 q 390 89 376 76 q 437 203 407 104 q 467 422 467 303 q 441 585 467 542 q 338 629 415 629 q 288 623 314 629 q 249 604 263 617 q 201 492 232 589 q 169 276 169 394 q 196 110 169 151 q 300 69 222 69 m 485 426 l 482 468 q 594 551 533 500 q 654 658 654 601 q 625 706 654 685 l 625 726 l 701 781 q 731 753 715 769 q 746 694 746 738 q 690 578 746 647 q 485 426 635 508 m 242 -231 q 190 -210 210 -231 q 171 -158 171 -189 q 191 -97 171 -126 q 254 -67 211 -67 q 306 -87 286 -67 q 326 -142 326 -107 q 306 -202 326 -174 q 242 -231 285 -231 z "},"ờ":{"ha":636,"x_min":56,"x_max":746,"o":"m 247 -12 q 104 48 153 -12 q 56 219 56 108 q 144 570 56 428 q 393 713 233 713 q 536 651 492 713 q 581 478 581 589 q 542 228 581 339 q 428 52 503 117 q 247 -12 353 -12 m 300 69 q 349 73 322 69 q 390 89 376 76 q 437 203 407 104 q 467 422 467 303 q 441 585 467 542 q 338 629 415 629 q 288 623 314 629 q 249 604 263 617 q 201 492 232 589 q 169 276 169 394 q 196 110 169 151 q 300 69 222 69 m 485 426 l 482 468 q 594 551 533 500 q 654 658 654 601 q 625 706 654 685 l 625 726 l 701 781 q 731 753 715 769 q 746 694 746 738 q 690 578 746 647 q 485 426 635 508 z "},"ở":{"ha":636,"x_min":56,"x_max":746,"o":"m 247 -12 q 104 48 153 -12 q 56 219 56 108 q 144 570 56 428 q 393 713 233 713 q 536 651 492 713 q 581 478 581 589 q 542 228 581 339 q 428 52 503 117 q 247 -12 353 -12 m 300 69 q 349 73 322 69 q 390 89 376 76 q 437 203 407 104 q 467 422 467 303 q 441 585 467 542 q 338 629 415 629 q 288 623 314 629 q 249 604 263 617 q 201 492 232 589 q 169 276 169 394 q 196 110 169 151 q 300 69 222 69 m 485 426 l 482 468 q 594 551 533 500 q 654 658 654 601 q 625 706 654 685 l 625 726 l 701 781 q 731 753 715 769 q 746 694 746 738 q 690 578 746 647 q 485 426 635 508 m 363 744 q 356 782 356 769 q 417 844 356 819 q 460 869 447 858 q 472 899 472 881 q 410 931 472 931 q 319 919 368 931 q 314 937 315 929 q 313 951 313 944 q 332 994 313 982 q 403 1006 351 1006 q 568 906 568 1006 q 543 845 568 868 q 474 803 518 822 q 436 780 443 790 q 429 751 429 769 l 363 744 z "},"ỡ":{"ha":636,"x_min":56,"x_max":746,"o":"m 247 -12 q 104 48 153 -12 q 56 219 56 108 q 144 570 56 428 q 393 713 233 713 q 536 651 492 713 q 581 478 581 589 q 542 228 581 339 q 428 52 503 117 q 247 -12 353 -12 m 300 69 q 349 73 322 69 q 390 89 376 76 q 437 203 407 104 q 467 422 467 303 q 441 585 467 542 q 338 629 415 629 q 288 623 314 629 q 249 604 263 617 q 201 492 232 589 q 169 276 169 394 q 196 110 169 151 q 300 69 222 69 m 485 426 l 482 468 q 594 551 533 500 q 654 658 654 601 q 625 706 654 685 l 625 726 l 701 781 q 731 753 715 769 q 746 694 746 738 q 690 578 746 647 q 485 426 635 508 z "},"ő":{"ha":636,"x_min":56,"x_max":619,"o":"m 247 -12 q 56 219 56 -12 q 144 570 56 428 q 393 713 233 713 q 536 651 492 713 q 581 478 581 589 q 494 128 581 269 q 247 -12 407 -12 m 300 69 q 349 73 322 69 q 390 89 376 76 q 437 203 407 104 q 467 422 467 303 q 441 585 467 542 q 338 629 415 629 q 288 623 314 629 q 249 604 263 617 q 219 546 238 594 q 185 426 200 497 q 169 276 169 356 q 196 110 169 151 q 300 69 222 69 m 243 779 l 201 810 l 333 1035 q 395 1006 382 1022 q 408 971 408 989 q 387 924 408 949 q 349 882 365 899 l 243 779 m 454 779 l 413 810 l 544 1035 q 606 1006 593 1022 q 619 971 619 989 q 598 924 619 949 q 560 882 576 899 l 454 779 z "},"ȏ":{"ha":636,"x_min":56,"x_max":614,"o":"m 247 -12 q 104 48 153 -12 q 56 219 56 108 q 144 570 56 428 q 393 713 233 713 q 536 651 492 713 q 581 478 581 589 q 542 228 581 339 q 428 52 503 117 q 247 -12 353 -12 m 300 69 q 349 73 322 69 q 390 89 376 76 q 437 203 407 104 q 467 422 467 303 q 441 585 467 542 q 338 629 415 629 q 288 623 314 629 q 249 604 263 617 q 201 492 232 589 q 169 276 169 394 q 196 110 169 151 q 300 69 222 69 m 253 789 l 224 814 q 243 858 224 814 q 311 948 263 903 q 446 993 360 993 q 574 942 535 993 q 614 850 614 892 q 606 822 614 835 q 569 797 593 804 q 526 790 544 790 q 506 869 524 828 q 421 910 489 910 q 332 880 369 910 q 274 819 294 850 q 253 789 253 789 z "},"ō":{"ha":636,"x_min":56,"x_max":586,"o":"m 247 -12 q 104 48 153 -12 q 56 219 56 108 q 144 570 56 428 q 393 713 233 713 q 536 651 492 713 q 581 478 581 589 q 542 228 581 339 q 428 52 503 117 q 247 -12 353 -12 m 300 69 q 349 73 322 69 q 390 89 376 76 q 437 203 407 104 q 467 422 467 303 q 441 585 467 542 q 338 629 415 629 q 288 623 314 629 q 249 604 263 617 q 201 492 232 589 q 169 276 169 394 q 196 110 169 151 q 300 69 222 69 m 183 853 l 194 940 l 586 940 l 575 853 l 183 853 z "},"ǫ":{"ha":636,"x_min":56,"x_max":581,"o":"m 247 -12 q 104 48 153 -12 q 56 219 56 108 q 144 570 56 428 q 393 713 233 713 q 536 651 492 713 q 581 478 581 589 q 542 228 581 339 q 428 52 503 117 q 247 -12 353 -12 m 300 69 q 349 73 322 69 q 390 89 376 76 q 437 203 407 104 q 467 422 467 303 q 441 585 467 542 q 338 629 415 629 q 288 623 314 629 q 249 604 263 617 q 201 492 232 589 q 169 276 169 394 q 196 110 169 151 q 300 69 222 69 z "},"ø":{"ha":636,"x_min":56,"x_max":581,"o":"m 164 -103 l 94 -69 l 133 19 q 56 219 56 74 q 144 570 56 428 q 393 713 233 713 q 439 708 418 713 l 476 793 l 543 763 l 507 679 q 581 478 581 622 q 542 228 581 339 q 428 52 503 117 q 247 -12 353 -12 q 204 -8 225 -12 l 164 -103 m 185 133 l 400 619 q 338 629 376 629 q 288 623 314 629 q 249 604 263 617 q 201 492 232 589 q 169 276 169 394 q 173 192 169 228 q 185 133 176 157 m 300 69 q 349 73 322 69 q 390 89 376 76 q 437 203 407 104 q 467 422 467 303 q 463 500 467 467 q 453 557 460 533 l 242 76 q 300 69 263 69 z "},"ǿ":{"ha":636,"x_min":56,"x_max":581,"o":"m 164 -103 l 94 -69 l 133 19 q 56 219 56 74 q 144 570 56 428 q 393 713 233 713 q 439 708 418 713 l 476 793 l 543 763 l 507 679 q 581 478 581 622 q 542 228 581 339 q 428 52 503 117 q 247 -12 353 -12 q 204 -8 225 -12 l 164 -103 m 185 133 l 400 619 q 338 629 376 629 q 288 623 314 629 q 249 604 263 617 q 201 492 232 589 q 169 276 169 394 q 173 192 169 228 q 185 133 176 157 m 300 69 q 349 73 322 69 q 390 89 376 76 q 437 203 407 104 q 467 422 467 303 q 463 500 467 467 q 453 557 460 533 l 242 76 q 300 69 263 69 z "},"õ":{"ha":636,"x_min":56,"x_max":596,"o":"m 247 -12 q 104 48 153 -12 q 56 219 56 108 q 144 570 56 428 q 393 713 233 713 q 536 651 492 713 q 581 478 581 589 q 542 228 581 339 q 428 52 503 117 q 247 -12 353 -12 m 300 69 q 349 73 322 69 q 390 89 376 76 q 437 203 407 104 q 467 422 467 303 q 441 585 467 542 q 338 629 415 629 q 288 623 314 629 q 249 604 263 617 q 201 492 232 589 q 169 276 169 394 q 196 110 169 151 q 300 69 222 69 m 472 826 q 430 833 453 826 q 385 849 407 840 l 292 881 l 193 832 l 167 858 l 215 921 q 289 972 256 972 q 331 965 307 972 q 378 950 356 957 l 471 918 l 569 967 l 596 940 l 547 882 q 510 842 528 858 q 472 826 493 826 z "},"œ":{"ha":942,"x_min":56,"x_max":926,"o":"m 247 -12 q 56 219 56 -12 q 149 576 56 440 q 393 713 242 713 q 563 586 528 713 q 779 713 649 713 q 885 674 843 713 q 926 578 926 636 q 845 389 926 456 q 571 283 764 322 l 569 264 q 600 113 569 154 q 711 71 631 71 q 854 124 781 71 l 881 83 q 785 15 844 42 q 668 -12 725 -12 q 472 100 510 -12 q 247 -12 385 -12 m 300 69 q 390 89 368 69 q 426 163 408 106 q 455 292 443 219 q 467 422 467 364 q 440 587 467 544 q 338 629 414 629 q 249 604 276 629 q 213 531 231 588 q 182 404 194 475 q 169 276 169 333 q 196 111 169 153 q 300 69 222 69 m 576 342 q 769 417 718 374 q 821 549 821 461 q 735 629 821 629 q 656 610 668 629 q 608 496 629 569 q 576 342 586 422 z "},"p":{"ha":681,"x_min":21,"x_max":632,"o":"m 174 603 l 64 625 l 64 676 l 267 703 l 267 622 q 250 581 267 600 l 253 576 q 288 617 257 583 q 367 681 319 650 q 465 713 414 713 q 591 659 550 713 q 632 504 632 606 q 615 370 632 454 q 561 201 597 286 q 466 58 525 117 q 324 0 407 0 q 241 7 282 0 q 175 21 200 14 l 136 -229 l 21 -243 l 174 603 m 193 133 q 253 99 211 119 q 347 78 294 78 q 390 82 367 78 q 418 93 413 86 q 460 178 436 115 q 501 320 483 240 q 518 475 518 400 q 499 581 518 544 q 428 617 479 617 q 328 584 379 617 q 256 533 278 551 l 193 133 z "},"þ":{"ha":661,"x_min":-83,"x_max":613,"o":"m -83 -231 l -78 -179 l 18 -160 l 200 871 l 90 893 l 90 944 l 296 971 l 296 871 l 260 625 q 253 608 258 618 q 238 585 247 597 l 240 581 q 340 676 283 639 q 446 713 397 713 q 613 496 613 713 q 567 248 613 364 q 449 60 522 132 q 294 -12 376 -12 q 219 -6 264 -12 q 157 8 175 1 l 131 -160 l 225 -179 l 221 -231 l -83 -231 m 340 69 q 397 82 389 69 q 470 257 442 147 q 499 467 499 367 q 477 582 499 547 q 406 617 456 617 q 243 533 335 617 l 174 110 q 340 69 258 69 z "},"q":{"ha":650,"x_min":50,"x_max":615,"o":"m 404 56 q 420 114 411 92 q 439 153 429 136 l 435 154 q 343 37 400 86 q 215 -12 286 -12 q 90 47 129 -12 q 50 208 50 107 q 71 360 50 274 q 132 526 92 446 q 231 660 172 607 q 368 713 290 713 q 466 697 422 713 q 525 672 510 681 l 565 728 l 615 728 l 465 -229 l 351 -243 l 404 56 m 490 574 q 410 613 456 597 q 313 629 364 629 q 281 622 293 629 q 264 608 268 614 q 194 449 225 550 q 164 238 164 349 q 181 119 164 168 q 250 69 199 69 q 351 117 303 69 q 429 208 400 165 l 490 574 z "},"r":{"ha":440,"x_min":79,"x_max":504,"o":"m 189 603 l 79 626 l 79 678 l 289 704 l 289 635 q 275 572 289 600 l 281 572 q 347 664 299 615 q 454 713 396 713 q 504 654 504 713 q 497 614 504 631 q 483 590 489 597 l 425 590 q 322 565 356 590 q 274 521 288 539 l 194 0 l 82 0 l 189 603 z "},"ŕ":{"ha":440,"x_min":79,"x_max":504,"o":"m 82 0 l 189 603 l 79 626 l 79 678 l 289 704 l 289 635 q 275 572 289 600 l 281 572 q 347 664 299 615 q 454 713 396 713 q 504 654 504 713 q 497 614 504 631 q 483 590 489 597 l 425 590 q 322 565 356 590 q 274 521 288 539 l 194 0 l 82 0 m 281 776 l 244 821 l 438 1018 q 485 985 474 1006 q 496 946 496 964 q 469 902 496 924 q 421 867 443 881 l 281 776 z "},"ř":{"ha":440,"x_min":79,"x_max":519,"o":"m 189 603 l 79 626 l 79 678 l 289 704 l 289 635 q 275 572 289 600 l 281 572 q 347 664 299 615 q 454 713 396 713 q 504 654 504 713 q 497 614 504 631 q 483 590 489 597 l 425 590 q 322 565 356 590 q 274 521 288 539 l 194 0 l 82 0 l 189 603 m 149 967 l 194 1015 l 328 901 l 483 1013 l 519 971 l 378 838 q 340 801 361 822 q 308 781 319 781 q 287 794 297 781 q 258 826 276 807 l 149 967 z "},"ŗ":{"ha":440,"x_min":61,"x_max":504,"o":"m 189 603 l 79 626 l 79 678 l 289 704 l 289 635 q 275 572 289 600 l 281 572 q 347 664 299 615 q 454 713 396 713 q 504 654 504 713 q 497 614 504 631 q 483 590 489 597 l 425 590 q 322 565 356 590 q 274 521 288 539 l 194 0 l 82 0 l 189 603 m 61 -256 q 87 -226 61 -256 q 113 -157 113 -197 q 101 -106 113 -125 q 79 -78 89 -87 q 99 -58 85 -69 q 140 -46 114 -46 q 190 -65 168 -46 q 211 -126 211 -83 q 184 -201 211 -168 q 126 -254 157 -233 q 85 -279 96 -275 l 61 -256 z "},"ȑ":{"ha":440,"x_min":72,"x_max":504,"o":"m 189 603 l 79 626 l 79 678 l 289 704 l 289 635 q 275 572 289 600 l 281 572 q 347 664 299 615 q 454 713 396 713 q 504 654 504 713 q 497 614 504 631 q 483 590 489 597 l 425 590 q 322 565 356 590 q 274 521 288 539 l 194 0 l 82 0 l 189 603 m 396 779 l 319 882 q 283 960 283 932 q 300 999 283 978 q 378 1035 317 1019 l 446 810 l 396 779 m 185 779 l 108 882 q 72 960 72 932 q 89 999 72 978 q 167 1035 106 1019 l 235 810 l 185 779 z "},"ṛ":{"ha":440,"x_min":40,"x_max":504,"o":"m 189 603 l 79 626 l 79 678 l 289 704 l 289 635 q 275 572 289 600 l 281 572 q 347 664 299 615 q 454 713 396 713 q 504 654 504 713 q 497 614 504 631 q 483 590 489 597 l 425 590 q 322 565 356 590 q 274 521 288 539 l 194 0 l 82 0 l 189 603 m 111 -231 q 60 -210 79 -231 q 40 -158 40 -189 q 60 -97 40 -126 q 124 -67 81 -67 q 176 -87 156 -67 q 196 -142 196 -107 q 175 -202 196 -174 q 111 -231 154 -231 z "},"ȓ":{"ha":440,"x_min":79,"x_max":504,"o":"m 189 603 l 79 626 l 79 678 l 289 704 l 289 635 q 275 572 289 600 l 281 572 q 347 664 299 615 q 454 713 396 713 q 504 654 504 713 q 497 614 504 631 q 483 590 489 597 l 425 590 q 322 565 356 590 q 274 521 288 539 l 194 0 l 82 0 l 189 603 m 132 789 l 103 814 q 122 858 103 814 q 190 948 142 903 q 325 993 239 993 q 453 942 414 993 q 493 850 493 892 q 485 822 493 835 q 448 797 472 804 q 406 790 424 790 q 385 869 403 828 q 300 910 368 910 q 211 880 249 910 q 153 819 174 850 q 132 789 132 789 z "},"s":{"ha":556,"x_min":22,"x_max":517,"o":"m 221 -12 q 71 19 119 -12 q 22 114 22 50 q 46 179 22 139 q 85 219 69 219 l 119 219 l 131 83 q 176 66 146 72 q 235 60 206 60 q 341 87 308 60 q 374 175 374 114 q 331 257 374 222 q 235 328 288 292 q 137 412 182 365 q 92 529 92 458 q 165 657 92 601 q 332 713 239 713 q 467 680 418 713 q 517 592 517 647 q 499 533 517 561 q 454 493 481 504 l 419 493 l 408 621 q 326 636 372 636 q 189 556 189 636 q 230 476 189 510 q 322 407 271 442 q 426 319 378 368 q 474 196 474 271 q 398 50 474 113 q 221 -12 322 -12 z "},"ś":{"ha":556,"x_min":25,"x_max":519,"o":"m 224 -12 q 74 19 122 -12 q 25 114 25 50 q 49 179 25 139 q 88 219 72 219 l 122 219 l 133 83 q 178 66 149 72 q 238 60 208 60 q 344 87 311 60 q 376 175 376 114 q 343 247 376 215 q 265 310 310 278 q 150 399 206 350 q 94 529 94 449 q 168 657 94 601 q 335 713 242 713 q 470 680 421 713 q 519 592 519 647 q 501 533 519 561 q 457 493 483 504 l 422 493 l 411 621 q 329 636 375 636 q 192 556 192 636 q 233 476 192 510 q 325 407 274 442 q 428 319 381 367 q 476 196 476 271 q 401 50 476 113 q 224 -12 325 -12 m 282 776 l 246 821 l 439 1018 q 497 946 497 1000 q 422 867 497 911 l 282 776 z "},"ꞌ":{"ha":174,"x_min":58,"x_max":233,"o":"m 115 979 q 190 997 160 997 q 225 985 217 997 q 233 960 233 974 q 221 894 233 939 q 197 819 208 850 l 114 575 l 58 575 l 115 979 z "},"š":{"ha":556,"x_min":22,"x_max":539,"o":"m 328 781 q 306 794 317 781 q 278 826 296 807 l 168 967 l 214 1015 l 347 901 l 503 1013 l 539 971 l 397 838 q 360 801 381 822 q 328 781 339 781 m 221 -12 q 71 19 119 -12 q 22 114 22 50 q 46 179 22 139 q 85 219 69 219 l 119 219 l 131 83 q 176 66 146 72 q 235 60 206 60 q 341 87 308 60 q 374 175 374 114 q 331 257 374 222 q 235 328 288 292 q 137 412 182 365 q 92 529 92 458 q 165 657 92 601 q 332 713 239 713 q 467 680 418 713 q 517 592 517 647 q 499 533 517 561 q 454 493 481 504 l 419 493 l 408 621 q 326 636 372 636 q 189 556 189 636 q 230 476 189 510 q 322 407 271 442 q 426 319 378 368 q 474 196 474 271 q 398 50 474 113 q 221 -12 322 -12 z "},"ş":{"ha":556,"x_min":25,"x_max":519,"o":"m 183 -260 q 67 -219 119 -260 l 94 -179 q 132 -197 114 -192 q 178 -201 150 -201 q 239 -169 239 -201 q 207 -133 239 -151 l 135 -96 l 135 -68 l 176 -10 q 25 114 25 3 q 49 179 25 139 q 88 219 72 219 l 122 219 l 133 83 q 178 66 149 72 q 238 60 208 60 q 344 87 311 60 q 376 175 376 114 q 341 249 376 218 q 260 313 306 281 q 148 402 201 353 q 94 529 94 451 q 168 657 94 601 q 335 713 242 713 q 470 680 421 713 q 519 592 519 647 q 501 533 519 561 q 457 493 483 504 l 422 493 l 411 621 q 329 636 375 636 q 192 556 192 636 q 233 476 192 510 q 325 407 274 442 q 428 319 381 367 q 476 196 476 271 q 406 55 476 117 q 242 -12 336 -7 l 242 -40 l 289 -69 q 333 -136 333 -97 q 294 -228 333 -196 q 183 -260 256 -260 z "},"ŝ":{"ha":556,"x_min":22,"x_max":529,"o":"m 221 -12 q 71 19 119 -12 q 22 114 22 50 q 46 179 22 139 q 85 219 69 219 l 119 219 l 131 83 q 176 66 146 72 q 235 60 206 60 q 341 87 308 60 q 374 175 374 114 q 331 257 374 222 q 235 328 288 292 q 137 412 182 365 q 92 529 92 458 q 165 657 92 601 q 332 713 239 713 q 467 680 418 713 q 517 592 517 647 q 499 533 517 561 q 454 493 481 504 l 419 493 l 408 621 q 326 636 372 636 q 189 556 189 636 q 230 476 189 510 q 322 407 271 442 q 426 319 378 368 q 474 196 474 271 q 398 50 474 113 q 221 -12 322 -12 z "},"ș":{"ha":556,"x_min":25,"x_max":519,"o":"m 224 -12 q 74 19 122 -12 q 25 114 25 50 q 49 179 25 139 q 88 219 72 219 l 122 219 l 133 83 q 178 66 149 72 q 238 60 208 60 q 344 87 311 60 q 376 175 376 114 q 338 253 376 219 q 251 319 300 286 q 144 406 194 358 q 94 529 94 454 q 168 657 94 601 q 335 713 242 713 q 470 680 421 713 q 519 592 519 647 q 501 533 519 561 q 457 493 483 504 l 422 493 l 411 621 q 329 636 375 636 q 192 556 192 636 q 233 475 192 510 q 328 404 275 440 q 430 318 383 367 q 476 196 476 269 q 401 50 476 113 q 224 -12 325 -12 m 160 -279 l 136 -256 q 188 -157 188 -210 q 154 -78 188 -107 q 215 -46 175 -46 q 286 -126 286 -46 q 247 -210 286 -164 q 160 -279 208 -257 z "},"ṣ":{"ha":556,"x_min":22,"x_max":517,"o":"m 221 -12 q 71 19 119 -12 q 22 114 22 50 q 46 179 22 139 q 85 219 69 219 l 119 219 l 131 83 q 176 66 146 72 q 235 60 206 60 q 341 87 308 60 q 374 175 374 114 q 331 257 374 222 q 235 328 288 292 q 137 412 182 365 q 92 529 92 458 q 165 657 92 601 q 332 713 239 713 q 467 680 418 713 q 517 592 517 647 q 499 533 517 561 q 454 493 481 504 l 419 493 l 408 621 q 326 636 372 636 q 189 556 189 636 q 230 476 189 510 q 322 407 271 442 q 426 319 378 368 q 474 196 474 271 q 398 50 474 113 q 221 -12 322 -12 m 201 -231 q 150 -210 169 -231 q 131 -158 131 -189 q 151 -97 131 -126 q 214 -67 171 -67 q 266 -87 246 -67 q 286 -142 286 -107 q 265 -202 286 -174 q 201 -231 244 -231 z "},"ß":{"ha":750,"x_min":18,"x_max":703,"o":"m 154 675 q 257 894 175 815 q 450 974 339 974 q 608 924 544 974 q 671 776 671 875 q 601 601 671 660 q 465 504 532 542 q 605 399 553 442 q 680 315 657 356 q 703 219 703 275 q 629 42 703 96 q 461 -12 556 -12 q 322 13 383 -12 q 260 113 260 38 q 290 190 260 161 q 321 219 319 219 l 356 219 l 368 83 q 394 72 368 83 q 472 60 421 60 q 553 84 511 60 q 596 190 596 108 q 577 267 596 233 q 508 340 558 300 q 360 440 457 381 l 374 529 q 517 629 472 583 q 563 772 563 675 q 530 858 563 824 q 432 892 497 892 q 307 848 339 892 q 264 732 275 804 l 126 -229 l 18 -243 l 154 675 z "},"ſ":{"ha":374,"x_min":47,"x_max":540,"o":"m 47 -243 l 179 625 l 74 625 l 74 669 l 96 704 l 192 704 q 292 910 211 832 q 486 988 372 988 q 540 938 540 988 q 531 896 540 910 q 522 882 521 882 l 426 882 q 346 865 363 882 q 296 750 308 828 l 156 -229 l 47 -243 z "},"t":{"ha":435,"x_min":69,"x_max":471,"o":"m 188 625 l 69 625 l 81 704 l 203 704 l 229 846 l 328 861 l 301 704 l 471 704 l 460 625 l 289 625 l 208 92 l 392 92 l 392 38 q 331 16 392 38 q 207 -6 269 -6 q 124 15 147 -6 q 100 85 100 36 q 103 114 100 94 q 107 147 106 133 l 188 625 z "},"ŧ":{"ha":435,"x_min":47,"x_max":471,"o":"m 47 396 l 57 463 l 432 463 l 422 396 l 47 396 m 188 625 l 69 625 l 81 704 l 203 704 l 229 846 l 328 861 l 301 704 l 471 704 l 460 625 l 289 625 l 208 92 l 392 92 l 392 38 q 331 16 392 38 q 207 -6 269 -6 q 124 15 147 -6 q 100 85 100 36 q 103 114 100 94 q 107 147 106 133 l 188 625 z "},"ť":{"ha":435,"x_min":69,"x_max":539,"o":"m 400 790 q 420 828 400 790 q 440 918 440 865 q 435 950 440 936 q 421 979 431 964 q 440 999 426 988 q 481 1011 453 1011 q 524 994 508 1011 q 539 949 539 976 q 515 859 539 897 q 465 798 492 821 q 426 769 438 775 l 400 790 m 188 625 l 69 625 l 81 704 l 203 704 l 229 846 l 328 861 l 301 704 l 471 704 l 460 625 l 289 625 l 208 92 l 392 92 l 392 38 q 331 16 392 38 q 207 -6 269 -6 q 124 15 147 -6 q 100 85 100 36 q 103 114 100 94 q 107 147 106 133 l 188 625 z "},"ţ":{"ha":435,"x_min":56,"x_max":471,"o":"m 83 -179 q 115 -195 97 -189 q 167 -201 132 -201 q 228 -169 228 -201 q 196 -133 228 -151 l 124 -96 l 124 -68 l 171 -3 q 100 85 100 7 q 103 114 100 94 q 107 147 106 133 l 188 625 l 69 625 l 81 704 l 203 704 l 229 846 l 328 861 l 301 704 l 471 704 l 460 625 l 289 625 l 208 92 l 392 92 l 392 38 q 340 19 392 38 q 231 -4 289 1 l 231 -40 l 278 -69 q 310 -97 297 -81 q 322 -136 322 -114 q 272 -237 322 -214 q 172 -260 221 -260 q 103 -247 132 -260 q 56 -219 74 -233 l 83 -179 z "},"ț":{"ha":435,"x_min":69,"x_max":471,"o":"m 188 625 l 69 625 l 81 704 l 203 704 l 229 846 l 328 861 l 301 704 l 471 704 l 460 625 l 289 625 l 208 92 l 392 92 l 392 38 q 331 16 392 38 q 207 -6 269 -6 q 124 15 147 -6 q 100 85 100 36 q 103 114 100 94 q 107 147 106 133 l 188 625 m 117 -256 q 142 -226 117 -256 q 168 -157 168 -197 q 156 -106 168 -125 q 135 -78 144 -87 q 155 -58 140 -69 q 196 -46 169 -46 q 245 -65 224 -46 q 267 -126 267 -83 q 240 -201 267 -168 q 182 -254 213 -233 q 140 -279 151 -275 l 117 -256 z "}}}
